<ttFont>
    <TTGlyph name=".notdef" xMin="47" yMin="0" xMax="978" yMax="1415">
      <contour>
        <pt x="262" y="1134" on="1"/>
        <pt x="283" y="1154" on="0"/>
        <pt x="334" y="1190" on="0"/>
        <pt x="394" y="1218" on="0"/>
        <pt x="465" y="1235" on="0"/>
        <pt x="507" y="1235" on="1"/>
        <pt x="561" y="1235" on="0"/>
        <pt x="654" y="1204" on="0"/>
        <pt x="723" y="1145" on="0"/>
        <pt x="762" y="1062" on="0"/>
        <pt x="762" y="1010" on="1"/>
        <pt x="762" y="955" on="0"/>
        <pt x="729" y="876" on="0"/>
        <pt x="680" y="817" on="0"/>
        <pt x="621" y="772" on="0"/>
        <pt x="570" y="732" on="0"/>
        <pt x="534" y="693" on="0"/>
        <pt x="532" y="668" on="1"/>
        <pt x="522" y="554" on="1"/>
        <pt x="457" y="554" on="1"/>
        <pt x="453" y="638" on="1"/>
        <pt x="452" y="653" on="0"/>
        <pt x="451" y="670" on="0"/>
        <pt x="451" y="678" on="0"/>
        <pt x="451" y="680" on="0"/>
        <pt x="451" y="681" on="1"/>
        <pt x="451" y="711" on="0"/>
        <pt x="484" y="757" on="0"/>
        <pt x="533" y="798" on="0"/>
        <pt x="591" y="840" on="0"/>
        <pt x="640" y="892" on="0"/>
        <pt x="673" y="959" on="0"/>
        <pt x="673" y="1005" on="1"/>
        <pt x="673" y="1041" on="0"/>
        <pt x="645" y="1097" on="0"/>
        <pt x="598" y="1136" on="0"/>
        <pt x="535" y="1157" on="0"/>
        <pt x="500" y="1157" on="1"/>
        <pt x="454" y="1157" on="0"/>
        <pt x="388" y="1134" on="0"/>
        <pt x="342" y="1105" on="0"/>
        <pt x="315" y="1082" on="0"/>
        <pt x="308" y="1082" on="1"/>
        <pt x="294" y="1082" on="0"/>
        <pt x="287" y="1093" on="1"/>
      </contour>
      <contour>
        <pt x="410" y="265" on="1"/>
        <pt x="410" y="297" on="0"/>
        <pt x="454" y="343" on="0"/>
        <pt x="487" y="343" on="1"/>
        <pt x="519" y="343" on="0"/>
        <pt x="563" y="297" on="0"/>
        <pt x="563" y="265" on="1"/>
        <pt x="563" y="233" on="0"/>
        <pt x="519" y="187" on="0"/>
        <pt x="487" y="187" on="1"/>
        <pt x="454" y="187" on="0"/>
        <pt x="410" y="233" on="0"/>
      </contour>
      <contour>
        <pt x="47" y="1415" on="1"/>
        <pt x="978" y="1415" on="1"/>
        <pt x="978" y="0" on="1"/>
        <pt x="47" y="0" on="1"/>
      </contour>
      <contour>
        <pt x="82" y="36" on="1"/>
        <pt x="941" y="36" on="1"/>
        <pt x="941" y="1379" on="1"/>
        <pt x="82" y="1379" on="1"/>
      </contour>
    </TTGlyph>
    <TTGlyph name="A" xMin="-52" yMin="0" xMax="1112" yMax="1415">
      <contour>
        <pt x="1112" y="0" on="1"/>
        <pt x="1036" y="0" on="1"/>
        <pt x="1022" y="0" on="0"/>
        <pt x="1005" y="15" on="0"/>
        <pt x="1002" y="26" on="1"/>
        <pt x="901" y="440" on="1"/>
        <pt x="267" y="440" on="1"/>
        <pt x="65" y="26" on="1"/>
        <pt x="60" y="15" on="0"/>
        <pt x="38" y="0" on="0"/>
        <pt x="24" y="0" on="1"/>
        <pt x="-52" y="0" on="1"/>
        <pt x="655" y="1415" on="1"/>
        <pt x="753" y="1415" on="1"/>
      </contour>
      <contour>
        <pt x="303" y="513" on="1"/>
        <pt x="884" y="513" on="1"/>
        <pt x="709" y="1233" on="1"/>
        <pt x="704" y="1250" on="0"/>
        <pt x="695" y="1292" on="0"/>
        <pt x="692" y="1315" on="1"/>
        <pt x="690" y="1309" on="0"/>
        <pt x="679" y="1284" on="0"/>
        <pt x="667" y="1258" on="0"/>
        <pt x="657" y="1236" on="0"/>
        <pt x="655" y="1232" on="1"/>
      </contour>
    </TTGlyph>
    <TTGlyph name="AE" xMin="-80" yMin="0" xMax="1697" yMax="1415">
      <contour>
        <pt x="1687" y="1333" on="1"/>
        <pt x="936" y="1333" on="1"/>
        <pt x="936" y="756" on="1"/>
        <pt x="1502" y="756" on="1"/>
        <pt x="1491" y="676" on="1"/>
        <pt x="936" y="676" on="1"/>
        <pt x="936" y="82" on="1"/>
        <pt x="1535" y="82" on="1"/>
        <pt x="1523" y="0" on="1"/>
        <pt x="843" y="0" on="1"/>
        <pt x="843" y="440" on="1"/>
        <pt x="298" y="440" on="1"/>
        <pt x="40" y="26" on="1"/>
        <pt x="33" y="15" on="0"/>
        <pt x="11" y="0" on="0"/>
        <pt x="-3" y="0" on="1"/>
        <pt x="-80" y="0" on="1"/>
        <pt x="807" y="1415" on="1"/>
        <pt x="1697" y="1415" on="1"/>
      </contour>
      <contour>
        <pt x="343" y="513" on="1"/>
        <pt x="843" y="513" on="1"/>
        <pt x="843" y="1334" on="1"/>
        <pt x="833" y="1309" on="0"/>
        <pt x="811" y="1266" on="0"/>
        <pt x="799" y="1245" on="1"/>
      </contour>
    </TTGlyph>
    <TTGlyph name="Aacute" xMin="-52" yMin="0" xMax="1112" yMax="1770">
      <component glyphName="A" x="0" y="0" flags="0x204"/>
      <component glyphName="acute.case" x="328" y="0" flags="0x4"/>
    </TTGlyph>
    <TTGlyph name="Acircumflex" xMin="-52" yMin="0" xMax="1112" yMax="1741">
      <component glyphName="A" x="0" y="0" flags="0x204"/>
      <component glyphName="circumflex.case" x="320" y="0" flags="0x4"/>
    </TTGlyph>
    <TTGlyph name="Adieresis" xMin="-52" yMin="0" xMax="1112" yMax="1742">
      <component glyphName="A" x="0" y="0" flags="0x204"/>
      <component glyphName="dieresis.case" x="320" y="0" flags="0x4"/>
    </TTGlyph>
    <TTGlyph name="Agrave" xMin="-52" yMin="0" xMax="1112" yMax="1770">
      <component glyphName="A" x="0" y="0" flags="0x204"/>
      <component glyphName="grave.case" x="320" y="0" flags="0x4"/>
    </TTGlyph>
    <TTGlyph name="Aogonek" xMin="-52" yMin="-338" xMax="1177" yMax="1415">
      <contour>
        <pt x="1155" y="-244" on="1"/>
        <pt x="1164" y="-244" on="0"/>
        <pt x="1167" y="-252" on="1"/>
        <pt x="1177" y="-285" on="1"/>
        <pt x="1149" y="-309" on="0"/>
        <pt x="1068" y="-338" on="0"/>
        <pt x="1025" y="-338" on="1"/>
        <pt x="959" y="-338" on="0"/>
        <pt x="884" y="-272" on="0"/>
        <pt x="884" y="-214" on="1"/>
        <pt x="884" y="-180" on="0"/>
        <pt x="909" y="-118" on="0"/>
        <pt x="951" y="-64" on="0"/>
        <pt x="1005" y="-18" on="0"/>
        <pt x="1034" y="0" on="1"/>
        <pt x="1020" y="1" on="0"/>
        <pt x="1006" y="15" on="0"/>
        <pt x="1002" y="26" on="1"/>
        <pt x="901" y="440" on="1"/>
        <pt x="267" y="440" on="1"/>
        <pt x="65" y="26" on="1"/>
        <pt x="59" y="15" on="0"/>
        <pt x="38" y="0" on="0"/>
        <pt x="24" y="0" on="1"/>
        <pt x="-52" y="0" on="1"/>
        <pt x="655" y="1415" on="1"/>
        <pt x="753" y="1415" on="1"/>
        <pt x="1112" y="0" on="1"/>
        <pt x="1087" y="-12" on="0"/>
        <pt x="1032" y="-48" on="0"/>
        <pt x="986" y="-96" on="0"/>
        <pt x="956" y="-156" on="0"/>
        <pt x="956" y="-190" on="1"/>
        <pt x="956" y="-231" on="0"/>
        <pt x="1007" y="-279" on="0"/>
        <pt x="1049" y="-279" on="1"/>
        <pt x="1075" y="-279" on="0"/>
        <pt x="1111" y="-268" on="0"/>
        <pt x="1136" y="-255" on="0"/>
        <pt x="1150" y="-244" on="0"/>
      </contour>
      <contour>
        <pt x="303" y="513" on="1"/>
        <pt x="884" y="513" on="1"/>
        <pt x="709" y="1233" on="1"/>
        <pt x="704" y="1250" on="0"/>
        <pt x="695" y="1293" on="0"/>
        <pt x="692" y="1316" on="1"/>
        <pt x="683" y="1293" on="0"/>
        <pt x="663" y="1249" on="0"/>
        <pt x="655" y="1232" on="1"/>
      </contour>
    </TTGlyph>
    <TTGlyph name="Aring" xMin="-52" yMin="0" xMax="1112" yMax="1789">
      <component glyphName="A" x="0" y="0" flags="0x204"/>
      <component glyphName="ring.case" x="320" y="0" flags="0x4"/>
    </TTGlyph>
    <TTGlyph name="Atilde" xMin="-52" yMin="0" xMax="1112" yMax="1716">
      <component glyphName="A" x="0" y="0" flags="0x204"/>
      <component glyphName="tilde.case" x="320" y="0" flags="0x4"/>
    </TTGlyph>
    <TTGlyph name="B" xMin="131" yMin="0" xMax="1077" yMax="1415">
      <contour>
        <pt x="131" y="0" on="1"/>
        <pt x="305" y="1415" on="1"/>
        <pt x="682" y="1415" on="1"/>
        <pt x="784" y="1415" on="0"/>
        <pt x="932" y="1373" on="0"/>
        <pt x="1030" y="1294" on="0"/>
        <pt x="1077" y="1180" on="0"/>
        <pt x="1077" y="1108" on="1"/>
        <pt x="1077" y="1040" on="0"/>
        <pt x="1033" y="916" on="0"/>
        <pt x="952" y="815" on="0"/>
        <pt x="836" y="742" on="0"/>
        <pt x="763" y="724" on="1"/>
        <pt x="901" y="701" on="0"/>
        <pt x="1047" y="550" on="0"/>
        <pt x="1047" y="429" on="1"/>
        <pt x="1047" y="331" on="0"/>
        <pt x="980" y="172" on="0"/>
        <pt x="853" y="60" on="0"/>
        <pt x="671" y="0" on="0"/>
        <pt x="556" y="0" on="1"/>
      </contour>
      <contour>
        <pt x="314" y="679" on="1"/>
        <pt x="240" y="79" on="1"/>
        <pt x="564" y="79" on="1"/>
        <pt x="750" y="79" on="0"/>
        <pt x="948" y="260" on="0"/>
        <pt x="948" y="426" on="1"/>
        <pt x="948" y="484" on="0"/>
        <pt x="907" y="577" on="0"/>
        <pt x="828" y="643" on="0"/>
        <pt x="713" y="679" on="0"/>
        <pt x="639" y="679" on="1"/>
      </contour>
      <contour>
        <pt x="323" y="751" on="1"/>
        <pt x="602" y="751" on="1"/>
        <pt x="699" y="751" on="0"/>
        <pt x="841" y="809" on="0"/>
        <pt x="933" y="904" on="0"/>
        <pt x="977" y="1026" on="0"/>
        <pt x="977" y="1091" on="1"/>
        <pt x="977" y="1210" on="0"/>
        <pt x="828" y="1336" on="0"/>
        <pt x="673" y="1336" on="1"/>
        <pt x="395" y="1336" on="1"/>
      </contour>
    </TTGlyph>
    <TTGlyph name="C" xMin="131" yMin="-16" xMax="1267" yMax="1431">
      <contour>
        <pt x="679" y="69" on="1"/>
        <pt x="752" y="69" on="0"/>
        <pt x="868" y="94" on="0"/>
        <pt x="958" y="131" on="0"/>
        <pt x="1023" y="174" on="0"/>
        <pt x="1069" y="211" on="0"/>
        <pt x="1098" y="236" on="0"/>
        <pt x="1106" y="236" on="1"/>
        <pt x="1115" y="236" on="0"/>
        <pt x="1119" y="230" on="1"/>
        <pt x="1154" y="188" on="1"/>
        <pt x="1108" y="141" on="0"/>
        <pt x="1003" y="66" on="0"/>
        <pt x="883" y="13" on="0"/>
        <pt x="744" y="-16" on="0"/>
        <pt x="664" y="-16" on="1"/>
        <pt x="542" y="-16" on="0"/>
        <pt x="345" y="72" on="0"/>
        <pt x="206" y="234" on="0"/>
        <pt x="131" y="460" on="0"/>
        <pt x="131" y="598" on="1"/>
        <pt x="131" y="783" on="0"/>
        <pt x="243" y="1090" on="0"/>
        <pt x="440" y="1310" on="0"/>
        <pt x="707" y="1431" on="0"/>
        <pt x="862" y="1431" on="1"/>
        <pt x="935" y="1431" on="0"/>
        <pt x="1051" y="1408" on="0"/>
        <pt x="1148" y="1364" on="0"/>
        <pt x="1229" y="1298" on="0"/>
        <pt x="1267" y="1256" on="1"/>
        <pt x="1236" y="1216" on="1"/>
        <pt x="1225" y="1204" on="0"/>
        <pt x="1209" y="1204" on="1"/>
        <pt x="1197" y="1204" on="0"/>
        <pt x="1156" y="1248" on="0"/>
        <pt x="1078" y="1301" on="0"/>
        <pt x="953" y="1345" on="0"/>
        <pt x="857" y="1345" on="1"/>
        <pt x="725" y="1345" on="0"/>
        <pt x="497" y="1241" on="0"/>
        <pt x="329" y="1049" on="0"/>
        <pt x="232" y="775" on="0"/>
        <pt x="232" y="605" on="1"/>
        <pt x="232" y="481" on="0"/>
        <pt x="298" y="282" on="0"/>
        <pt x="416" y="143" on="0"/>
        <pt x="581" y="69" on="0"/>
      </contour>
    </TTGlyph>
    <TTGlyph name="Cacute" xMin="131" yMin="-16" xMax="1267" yMax="1770">
      <component glyphName="C" x="0" y="0" flags="0x4"/>
      <component glyphName="acute.case" x="468" y="0" flags="0x4"/>
    </TTGlyph>
    <TTGlyph name="Ccedilla" xMin="131" yMin="-355" xMax="1267" yMax="1431">
      <contour>
        <pt x="520" y="-274" on="1"/>
        <pt x="525" y="-274" on="0"/>
        <pt x="540" y="-285" on="0"/>
        <pt x="563" y="-298" on="0"/>
        <pt x="598" y="-309" on="0"/>
        <pt x="624" y="-309" on="1"/>
        <pt x="675" y="-309" on="0"/>
        <pt x="733" y="-259" on="0"/>
        <pt x="733" y="-217" on="1"/>
        <pt x="733" y="-195" on="0"/>
        <pt x="711" y="-165" on="0"/>
        <pt x="671" y="-145" on="0"/>
        <pt x="615" y="-134" on="0"/>
        <pt x="581" y="-129" on="1"/>
        <pt x="628" y="-15" on="1"/>
        <pt x="514" y="-9" on="0"/>
        <pt x="330" y="85" on="0"/>
        <pt x="201" y="245" on="0"/>
        <pt x="131" y="465" on="0"/>
        <pt x="131" y="598" on="1"/>
        <pt x="131" y="783" on="0"/>
        <pt x="243" y="1090" on="0"/>
        <pt x="440" y="1310" on="0"/>
        <pt x="707" y="1431" on="0"/>
        <pt x="862" y="1431" on="1"/>
        <pt x="935" y="1431" on="0"/>
        <pt x="1051" y="1408" on="0"/>
        <pt x="1148" y="1364" on="0"/>
        <pt x="1229" y="1298" on="0"/>
        <pt x="1267" y="1256" on="1"/>
        <pt x="1236" y="1216" on="1"/>
        <pt x="1225" y="1204" on="0"/>
        <pt x="1209" y="1204" on="1"/>
        <pt x="1197" y="1204" on="0"/>
        <pt x="1156" y="1248" on="0"/>
        <pt x="1078" y="1301" on="0"/>
        <pt x="953" y="1345" on="0"/>
        <pt x="857" y="1345" on="1"/>
        <pt x="725" y="1345" on="0"/>
        <pt x="497" y="1241" on="0"/>
        <pt x="329" y="1049" on="0"/>
        <pt x="232" y="775" on="0"/>
        <pt x="232" y="605" on="1"/>
        <pt x="232" y="481" on="0"/>
        <pt x="298" y="282" on="0"/>
        <pt x="416" y="143" on="0"/>
        <pt x="581" y="69" on="0"/>
        <pt x="679" y="69" on="1"/>
        <pt x="752" y="69" on="0"/>
        <pt x="868" y="94" on="0"/>
        <pt x="958" y="131" on="0"/>
        <pt x="1023" y="174" on="0"/>
        <pt x="1069" y="211" on="0"/>
        <pt x="1098" y="236" on="0"/>
        <pt x="1106" y="236" on="1"/>
        <pt x="1115" y="236" on="0"/>
        <pt x="1119" y="230" on="1"/>
        <pt x="1154" y="188" on="1"/>
        <pt x="1109" y="143" on="0"/>
        <pt x="1009" y="70" on="0"/>
        <pt x="894" y="17" on="0"/>
        <pt x="762" y="-14" on="0"/>
        <pt x="686" y="-16" on="1"/>
        <pt x="656" y="-92" on="1"/>
        <pt x="730" y="-106" on="0"/>
        <pt x="808" y="-161" on="0"/>
        <pt x="808" y="-212" on="1"/>
        <pt x="808" y="-245" on="0"/>
        <pt x="779" y="-298" on="0"/>
        <pt x="729" y="-335" on="0"/>
        <pt x="660" y="-355" on="0"/>
        <pt x="620" y="-355" on="1"/>
        <pt x="582" y="-355" on="0"/>
        <pt x="514" y="-332" on="0"/>
        <pt x="491" y="-312" on="1"/>
        <pt x="504" y="-285" on="1"/>
        <pt x="512" y="-274" on="0"/>
      </contour>
    </TTGlyph>
    <TTGlyph name="D" xMin="131" yMin="0" xMax="1325" yMax="1415">
      <contour>
        <pt x="1325" y="815" on="1"/>
        <pt x="1325" y="690" on="0"/>
        <pt x="1276" y="472" on="0"/>
        <pt x="1185" y="291" on="0"/>
        <pt x="1056" y="149" on="0"/>
        <pt x="896" y="51" on="0"/>
        <pt x="710" y="0" on="0"/>
        <pt x="607" y="0" on="1"/>
        <pt x="131" y="0" on="1"/>
        <pt x="305" y="1415" on="1"/>
        <pt x="781" y="1415" on="1"/>
        <pt x="906" y="1415" on="0"/>
        <pt x="1108" y="1330" on="0"/>
        <pt x="1249" y="1174" on="0"/>
        <pt x="1325" y="952" on="0"/>
      </contour>
      <contour>
        <pt x="1222" y="813" on="1"/>
        <pt x="1222" y="934" on="0"/>
        <pt x="1159" y="1128" on="0"/>
        <pt x="1042" y="1262" on="0"/>
        <pt x="875" y="1334" on="0"/>
        <pt x="771" y="1334" on="1"/>
        <pt x="395" y="1334" on="1"/>
        <pt x="240" y="81" on="1"/>
        <pt x="616" y="81" on="1"/>
        <pt x="748" y="81" on="0"/>
        <pt x="970" y="180" on="0"/>
        <pt x="1132" y="368" on="0"/>
        <pt x="1222" y="640" on="0"/>
      </contour>
    </TTGlyph>
    <TTGlyph name="Delta" xMin="-45" yMin="0" xMax="1129" yMax="1415">
      <contour>
        <pt x="1129" y="0" on="1"/>
        <pt x="-45" y="0" on="1"/>
        <pt x="672" y="1415" on="1"/>
        <pt x="761" y="1415" on="1"/>
      </contour>
      <contour>
        <pt x="99" y="80" on="1"/>
        <pt x="1005" y="80" on="1"/>
        <pt x="719" y="1233" on="1"/>
        <pt x="715" y="1249" on="0"/>
        <pt x="707" y="1286" on="0"/>
        <pt x="703" y="1308" on="1"/>
        <pt x="695" y="1286" on="0"/>
        <pt x="678" y="1248" on="0"/>
        <pt x="670" y="1232" on="1"/>
      </contour>
    </TTGlyph>
    <TTGlyph name="E" xMin="131" yMin="0" xMax="1087" yMax="1415">
      <contour>
        <pt x="1076" y="1333" on="1"/>
        <pt x="395" y="1333" on="1"/>
        <pt x="324" y="757" on="1"/>
        <pt x="891" y="757" on="1"/>
        <pt x="880" y="677" on="1"/>
        <pt x="314" y="677" on="1"/>
        <pt x="241" y="82" on="1"/>
        <pt x="925" y="82" on="1"/>
        <pt x="914" y="0" on="1"/>
        <pt x="131" y="0" on="1"/>
        <pt x="305" y="1415" on="1"/>
        <pt x="1087" y="1415" on="1"/>
      </contour>
    </TTGlyph>
    <TTGlyph name="Eacute" xMin="131" yMin="0" xMax="1087" yMax="1770">
      <component glyphName="E" x="0" y="0" flags="0x204"/>
      <component glyphName="acute.case" x="327" y="0" flags="0x4"/>
    </TTGlyph>
    <TTGlyph name="Ecircumflex" xMin="131" yMin="0" xMax="1087" yMax="1741">
      <component glyphName="E" x="0" y="0" flags="0x204"/>
      <component glyphName="circumflex.case" x="327" y="0" flags="0x4"/>
    </TTGlyph>
    <TTGlyph name="Edieresis" xMin="131" yMin="0" xMax="1087" yMax="1742">
      <component glyphName="E" x="0" y="0" flags="0x204"/>
      <component glyphName="dieresis.case" x="327" y="0" flags="0x4"/>
    </TTGlyph>
    <TTGlyph name="Egrave" xMin="131" yMin="0" xMax="1087" yMax="1770">
      <component glyphName="E" x="0" y="0" flags="0x204"/>
      <component glyphName="grave.case" x="327" y="0" flags="0x4"/>
    </TTGlyph>
    <TTGlyph name="Eogonek" xMin="131" yMin="-338" xMax="1087" yMax="1415">
      <contour>
        <pt x="856" y="-244" on="1"/>
        <pt x="865" y="-244" on="0"/>
        <pt x="868" y="-252" on="1"/>
        <pt x="878" y="-285" on="1"/>
        <pt x="850" y="-309" on="0"/>
        <pt x="769" y="-338" on="0"/>
        <pt x="726" y="-338" on="1"/>
        <pt x="660" y="-338" on="0"/>
        <pt x="585" y="-272" on="0"/>
        <pt x="585" y="-214" on="1"/>
        <pt x="585" y="-180" on="0"/>
        <pt x="610" y="-118" on="0"/>
        <pt x="652" y="-64" on="0"/>
        <pt x="706" y="-18" on="0"/>
        <pt x="735" y="0" on="1"/>
        <pt x="131" y="0" on="1"/>
        <pt x="305" y="1415" on="1"/>
        <pt x="1087" y="1415" on="1"/>
        <pt x="1076" y="1333" on="1"/>
        <pt x="395" y="1333" on="1"/>
        <pt x="324" y="757" on="1"/>
        <pt x="891" y="757" on="1"/>
        <pt x="880" y="677" on="1"/>
        <pt x="314" y="677" on="1"/>
        <pt x="241" y="82" on="1"/>
        <pt x="925" y="82" on="1"/>
        <pt x="914" y="0" on="1"/>
        <pt x="802" y="0" on="1"/>
        <pt x="781" y="-12" on="0"/>
        <pt x="730" y="-48" on="0"/>
        <pt x="687" y="-96" on="0"/>
        <pt x="657" y="-156" on="0"/>
        <pt x="657" y="-190" on="1"/>
        <pt x="657" y="-231" on="0"/>
        <pt x="708" y="-279" on="0"/>
        <pt x="750" y="-279" on="1"/>
        <pt x="776" y="-279" on="0"/>
        <pt x="812" y="-268" on="0"/>
        <pt x="837" y="-255" on="0"/>
        <pt x="851" y="-244" on="0"/>
      </contour>
    </TTGlyph>
    <TTGlyph name="Eth" xMin="69" yMin="0" xMax="1376" yMax="1415">
      <contour>
        <pt x="77" y="748" on="1"/>
        <pt x="275" y="748" on="1"/>
        <pt x="357" y="1415" on="1"/>
        <pt x="833" y="1415" on="1"/>
        <pt x="958" y="1415" on="0"/>
        <pt x="1159" y="1330" on="0"/>
        <pt x="1300" y="1174" on="0"/>
        <pt x="1376" y="952" on="0"/>
        <pt x="1376" y="815" on="1"/>
        <pt x="1376" y="628" on="0"/>
        <pt x="1268" y="326" on="0"/>
        <pt x="1076" y="114" on="0"/>
        <pt x="813" y="0" on="0"/>
        <pt x="659" y="0" on="1"/>
        <pt x="183" y="0" on="1"/>
        <pt x="267" y="686" on="1"/>
        <pt x="69" y="686" on="1"/>
      </contour>
      <contour>
        <pt x="1273" y="813" on="1"/>
        <pt x="1273" y="934" on="0"/>
        <pt x="1210" y="1128" on="0"/>
        <pt x="1093" y="1262" on="0"/>
        <pt x="926" y="1334" on="0"/>
        <pt x="823" y="1334" on="1"/>
        <pt x="446" y="1334" on="1"/>
        <pt x="374" y="748" on="1"/>
        <pt x="745" y="748" on="1"/>
        <pt x="738" y="686" on="1"/>
        <pt x="367" y="686" on="1"/>
        <pt x="293" y="81" on="1"/>
        <pt x="669" y="81" on="1"/>
        <pt x="801" y="81" on="0"/>
        <pt x="1022" y="180" on="0"/>
        <pt x="1183" y="368" on="0"/>
        <pt x="1273" y="640" on="0"/>
      </contour>
    </TTGlyph>
    <TTGlyph name="Euro" xMin="41" yMin="-15" xMax="1209" yMax="1430">
      <contour>
        <pt x="76" y="862" on="1"/>
        <pt x="234" y="862" on="1"/>
        <pt x="264" y="995" on="0"/>
        <pt x="377" y="1205" on="0"/>
        <pt x="535" y="1352" on="0"/>
        <pt x="733" y="1430" on="0"/>
        <pt x="847" y="1430" on="1"/>
        <pt x="911" y="1430" on="0"/>
        <pt x="1017" y="1407" on="0"/>
        <pt x="1104" y="1363" on="0"/>
        <pt x="1177" y="1298" on="0"/>
        <pt x="1209" y="1256" on="1"/>
        <pt x="1172" y="1220" on="1"/>
        <pt x="1167" y="1215" on="0"/>
        <pt x="1160" y="1210" on="0"/>
        <pt x="1152" y="1210" on="1"/>
        <pt x="1144" y="1210" on="0"/>
        <pt x="1124" y="1231" on="0"/>
        <pt x="1094" y="1262" on="0"/>
        <pt x="1050" y="1298" on="0"/>
        <pt x="986" y="1329" on="0"/>
        <pt x="899" y="1350" on="0"/>
        <pt x="841" y="1350" on="1"/>
        <pt x="746" y="1350" on="0"/>
        <pt x="582" y="1286" on="0"/>
        <pt x="450" y="1161" on="0"/>
        <pt x="354" y="979" on="0"/>
        <pt x="327" y="862" on="1"/>
        <pt x="940" y="862" on="1"/>
        <pt x="937" y="833" on="1"/>
        <pt x="935" y="822" on="0"/>
        <pt x="919" y="805" on="0"/>
        <pt x="902" y="805" on="1"/>
        <pt x="316" y="805" on="1"/>
        <pt x="309" y="763" on="0"/>
        <pt x="301" y="675" on="0"/>
        <pt x="299" y="627" on="1"/>
        <pt x="820" y="627" on="1"/>
        <pt x="817" y="598" on="1"/>
        <pt x="815" y="586" on="0"/>
        <pt x="797" y="570" on="0"/>
        <pt x="782" y="570" on="1"/>
        <pt x="298" y="570" on="1"/>
        <pt x="298" y="448" on="0"/>
        <pt x="350" y="260" on="0"/>
        <pt x="447" y="132" on="0"/>
        <pt x="587" y="65" on="0"/>
        <pt x="676" y="65" on="1"/>
        <pt x="738" y="65" on="0"/>
        <pt x="837" y="89" on="0"/>
        <pt x="914" y="126" on="0"/>
        <pt x="972" y="169" on="0"/>
        <pt x="1013" y="206" on="0"/>
        <pt x="1041" y="230" on="0"/>
        <pt x="1050" y="230" on="1"/>
        <pt x="1058" y="230" on="0"/>
        <pt x="1066" y="221" on="1"/>
        <pt x="1098" y="188" on="1"/>
        <pt x="1057" y="142" on="0"/>
        <pt x="963" y="67" on="0"/>
        <pt x="855" y="14" on="0"/>
        <pt x="731" y="-15" on="0"/>
        <pt x="661" y="-15" on="1"/>
        <pt x="551" y="-15" on="0"/>
        <pt x="380" y="66" on="0"/>
        <pt x="263" y="218" on="0"/>
        <pt x="203" y="435" on="0"/>
        <pt x="203" y="570" on="1"/>
        <pt x="41" y="570" on="1"/>
        <pt x="47" y="627" on="1"/>
        <pt x="204" y="627" on="1"/>
        <pt x="206" y="674" on="0"/>
        <pt x="214" y="763" on="0"/>
        <pt x="222" y="805" on="1"/>
        <pt x="70" y="805" on="1"/>
      </contour>
    </TTGlyph>
    <TTGlyph name="F" xMin="131" yMin="0" xMax="1087" yMax="1415">
      <contour>
        <pt x="1076" y="1333" on="1"/>
        <pt x="395" y="1333" on="1"/>
        <pt x="321" y="734" on="1"/>
        <pt x="912" y="734" on="1"/>
        <pt x="900" y="651" on="1"/>
        <pt x="311" y="651" on="1"/>
        <pt x="231" y="0" on="1"/>
        <pt x="131" y="0" on="1"/>
        <pt x="305" y="1415" on="1"/>
        <pt x="1087" y="1415" on="1"/>
      </contour>
    </TTGlyph>
    <TTGlyph name="G" xMin="131" yMin="-16" xMax="1308" yMax="1431">
      <contour>
        <pt x="699" y="65" on="1"/>
        <pt x="766" y="65" on="0"/>
        <pt x="877" y="80" on="0"/>
        <pt x="975" y="110" on="0"/>
        <pt x="1065" y="152" on="0"/>
        <pt x="1110" y="179" on="1"/>
        <pt x="1158" y="564" on="1"/>
        <pt x="911" y="564" on="1"/>
        <pt x="889" y="564" on="0"/>
        <pt x="889" y="583" on="1"/>
        <pt x="889" y="583" on="0"/>
        <pt x="889" y="586" on="0"/>
        <pt x="890" y="597" on="0"/>
        <pt x="893" y="620" on="0"/>
        <pt x="895" y="641" on="1"/>
        <pt x="1258" y="641" on="1"/>
        <pt x="1195" y="139" on="1"/>
        <pt x="1142" y="102" on="0"/>
        <pt x="1031" y="44" on="0"/>
        <pt x="906" y="5" on="0"/>
        <pt x="766" y="-16" on="0"/>
        <pt x="684" y="-16" on="1"/>
        <pt x="557" y="-16" on="0"/>
        <pt x="352" y="73" on="0"/>
        <pt x="208" y="235" on="0"/>
        <pt x="131" y="462" on="0"/>
        <pt x="131" y="600" on="1"/>
        <pt x="131" y="787" on="0"/>
        <pt x="241" y="1094" on="0"/>
        <pt x="439" y="1312" on="0"/>
        <pt x="713" y="1431" on="0"/>
        <pt x="877" y="1431" on="1"/>
        <pt x="954" y="1431" on="0"/>
        <pt x="1080" y="1408" on="0"/>
        <pt x="1184" y="1364" on="0"/>
        <pt x="1270" y="1300" on="0"/>
        <pt x="1308" y="1259" on="1"/>
        <pt x="1277" y="1220" on="1"/>
        <pt x="1265" y="1205" on="0"/>
        <pt x="1251" y="1205" on="1"/>
        <pt x="1243" y="1205" on="0"/>
        <pt x="1235" y="1209" on="1"/>
        <pt x="1226" y="1213" on="0"/>
        <pt x="1199" y="1237" on="0"/>
        <pt x="1160" y="1267" on="0"/>
        <pt x="1105" y="1300" on="0"/>
        <pt x="1030" y="1327" on="0"/>
        <pt x="932" y="1345" on="0"/>
        <pt x="869" y="1345" on="1"/>
        <pt x="728" y="1345" on="0"/>
        <pt x="494" y="1241" on="0"/>
        <pt x="325" y="1049" on="0"/>
        <pt x="232" y="774" on="0"/>
        <pt x="232" y="603" on="1"/>
        <pt x="232" y="479" on="0"/>
        <pt x="298" y="280" on="0"/>
        <pt x="420" y="140" on="0"/>
        <pt x="592" y="65" on="0"/>
      </contour>
    </TTGlyph>
    <TTGlyph name="H" xMin="131" yMin="0" xMax="1313" yMax="1415">
      <contour>
        <pt x="1139" y="0" on="1"/>
        <pt x="1039" y="0" on="1"/>
        <pt x="1122" y="679" on="1"/>
        <pt x="314" y="679" on="1"/>
        <pt x="231" y="0" on="1"/>
        <pt x="131" y="0" on="1"/>
        <pt x="305" y="1415" on="1"/>
        <pt x="405" y="1415" on="1"/>
        <pt x="323" y="754" on="1"/>
        <pt x="1131" y="754" on="1"/>
        <pt x="1213" y="1415" on="1"/>
        <pt x="1313" y="1415" on="1"/>
      </contour>
    </TTGlyph>
    <TTGlyph name="I" xMin="165" yMin="0" xMax="438" yMax="1415">
      <contour>
        <pt x="265" y="0" on="1"/>
        <pt x="165" y="0" on="1"/>
        <pt x="338" y="1415" on="1"/>
        <pt x="438" y="1415" on="1"/>
      </contour>
    </TTGlyph>
    <TTGlyph name="Iacute" xMin="165" yMin="0" xMax="709" yMax="1770">
      <component glyphName="I" x="0" y="0" flags="0x204"/>
      <component glyphName="acute.case" x="6" y="0" flags="0x4"/>
    </TTGlyph>
    <TTGlyph name="Icircumflex" xMin="136" yMin="0" xMax="656" yMax="1741">
      <component glyphName="I" x="0" y="0" flags="0x204"/>
      <component glyphName="circumflex.case" x="6" y="0" flags="0x4"/>
    </TTGlyph>
    <TTGlyph name="Idieresis" xMin="160" yMin="0" xMax="649" yMax="1742">
      <component glyphName="I" x="0" y="0" flags="0x204"/>
      <component glyphName="dieresis.case" x="6" y="0" flags="0x4"/>
    </TTGlyph>
    <TTGlyph name="Igrave" xMin="129" yMin="0" xMax="475" yMax="1770">
      <component glyphName="I" x="0" y="0" flags="0x204"/>
      <component glyphName="grave.case" x="6" y="0" flags="0x4"/>
    </TTGlyph>
    <TTGlyph name="J" xMin="22" yMin="-16" xMax="757" yMax="1415">
      <contour>
        <pt x="637" y="441" on="1"/>
        <pt x="622" y="324" on="0"/>
        <pt x="550" y="152" on="0"/>
        <pt x="440" y="39" on="0"/>
        <pt x="295" y="-16" on="0"/>
        <pt x="208" y="-16" on="1"/>
        <pt x="154" y="-16" on="0"/>
        <pt x="65" y="-2" on="0"/>
        <pt x="22" y="13" on="1"/>
        <pt x="30" y="67" on="1"/>
        <pt x="32" y="75" on="0"/>
        <pt x="42" y="89" on="0"/>
        <pt x="56" y="89" on="1"/>
        <pt x="66" y="89" on="0"/>
        <pt x="90" y="82" on="0"/>
        <pt x="125" y="74" on="0"/>
        <pt x="174" y="67" on="0"/>
        <pt x="209" y="67" on="1"/>
        <pt x="268" y="67" on="0"/>
        <pt x="376" y="104" on="0"/>
        <pt x="463" y="191" on="0"/>
        <pt x="524" y="334" on="0"/>
        <pt x="537" y="439" on="1"/>
        <pt x="657" y="1415" on="1"/>
        <pt x="757" y="1415" on="1"/>
      </contour>
    </TTGlyph>
    <TTGlyph name="K" xMin="158" yMin="0" xMax="1261" yMax="1417">
      <contour>
        <pt x="350" y="760" on="1"/>
        <pt x="427" y="760" on="1"/>
        <pt x="461" y="760" on="0"/>
        <pt x="501" y="775" on="0"/>
        <pt x="524" y="798" on="1"/>
        <pt x="1116" y="1386" on="1"/>
        <pt x="1133" y="1403" on="0"/>
        <pt x="1161" y="1415" on="0"/>
        <pt x="1180" y="1415" on="1"/>
        <pt x="1261" y="1415" on="1"/>
        <pt x="619" y="778" on="1"/>
        <pt x="600" y="760" on="0"/>
        <pt x="571" y="736" on="0"/>
        <pt x="554" y="730" on="1"/>
        <pt x="572" y="724" on="0"/>
        <pt x="598" y="699" on="0"/>
        <pt x="612" y="680" on="1"/>
        <pt x="1123" y="0" on="1"/>
        <pt x="1043" y="0" on="1"/>
        <pt x="1017" y="0" on="0"/>
        <pt x="998" y="14" on="0"/>
        <pt x="989" y="26" on="1"/>
        <pt x="519" y="640" on="1"/>
        <pt x="510" y="651" on="0"/>
        <pt x="495" y="667" on="0"/>
        <pt x="475" y="678" on="0"/>
        <pt x="447" y="683" on="0"/>
        <pt x="425" y="683" on="1"/>
        <pt x="341" y="683" on="1"/>
        <pt x="257" y="0" on="1"/>
        <pt x="158" y="0" on="1"/>
        <pt x="331" y="1417" on="1"/>
        <pt x="431" y="1417" on="1"/>
      </contour>
    </TTGlyph>
    <TTGlyph name="L" xMin="131" yMin="0" xMax="856" yMax="1415">
      <contour>
        <pt x="240" y="85" on="1"/>
        <pt x="856" y="85" on="1"/>
        <pt x="845" y="0" on="1"/>
        <pt x="131" y="0" on="1"/>
        <pt x="305" y="1415" on="1"/>
        <pt x="404" y="1415" on="1"/>
      </contour>
    </TTGlyph>
    <TTGlyph name="Lslash" xMin="48" yMin="0" xMax="897" yMax="1415">
      <contour>
        <pt x="359" y="722" on="1"/>
        <pt x="763" y="937" on="1"/>
        <pt x="756" y="876" on="1"/>
        <pt x="754" y="866" on="0"/>
        <pt x="746" y="852" on="0"/>
        <pt x="735" y="846" on="1"/>
        <pt x="349" y="638" on="1"/>
        <pt x="281" y="85" on="1"/>
        <pt x="897" y="85" on="1"/>
        <pt x="886" y="0" on="1"/>
        <pt x="172" y="0" on="1"/>
        <pt x="244" y="589" on="1"/>
        <pt x="48" y="487" on="1"/>
        <pt x="57" y="551" on="1"/>
        <pt x="59" y="562" on="0"/>
        <pt x="67" y="575" on="0"/>
        <pt x="77" y="580" on="1"/>
        <pt x="255" y="674" on="1"/>
        <pt x="346" y="1415" on="1"/>
        <pt x="445" y="1415" on="1"/>
      </contour>
    </TTGlyph>
    <TTGlyph name="M" xMin="131" yMin="0" xMax="1596" yMax="1415">
      <contour>
        <pt x="813" y="400" on="1"/>
        <pt x="817" y="389" on="0"/>
        <pt x="824" y="366" on="0"/>
        <pt x="826" y="354" on="1"/>
        <pt x="836" y="376" on="0"/>
        <pt x="850" y="400" on="1"/>
        <pt x="1488" y="1396" on="1"/>
        <pt x="1496" y="1409" on="0"/>
        <pt x="1513" y="1415" on="0"/>
        <pt x="1527" y="1415" on="1"/>
        <pt x="1596" y="1415" on="1"/>
        <pt x="1422" y="0" on="1"/>
        <pt x="1335" y="0" on="1"/>
        <pt x="1484" y="1209" on="1"/>
        <pt x="1486" y="1220" on="0"/>
        <pt x="1490" y="1247" on="0"/>
        <pt x="1493" y="1261" on="1"/>
        <pt x="863" y="272" on="1"/>
        <pt x="847" y="247" on="0"/>
        <pt x="822" y="247" on="1"/>
        <pt x="806" y="247" on="1"/>
        <pt x="780" y="247" on="0"/>
        <pt x="771" y="272" on="1"/>
        <pt x="369" y="1264" on="1"/>
        <pt x="369" y="1234" on="0"/>
        <pt x="366" y="1210" on="1"/>
        <pt x="218" y="0" on="1"/>
        <pt x="131" y="0" on="1"/>
        <pt x="305" y="1415" on="1"/>
        <pt x="373" y="1415" on="1"/>
        <pt x="387" y="1415" on="0"/>
        <pt x="404" y="1410" on="0"/>
        <pt x="409" y="1396" on="1"/>
        <pt x="813" y="400" on="1"/>
      </contour>
    </TTGlyph>
    <TTGlyph name="N" xMin="131" yMin="0" xMax="1313" yMax="1415">
      <contour>
        <pt x="354" y="1415" on="1"/>
        <pt x="368" y="1415" on="0"/>
        <pt x="381" y="1408" on="0"/>
        <pt x="388" y="1396" on="1"/>
        <pt x="1074" y="164" on="1"/>
        <pt x="1075" y="178" on="0"/>
        <pt x="1076" y="203" on="0"/>
        <pt x="1078" y="214" on="1"/>
        <pt x="1226" y="1415" on="1"/>
        <pt x="1313" y="1415" on="1"/>
        <pt x="1139" y="0" on="1"/>
        <pt x="1093" y="0" on="1"/>
        <pt x="1068" y="0" on="0"/>
        <pt x="1056" y="22" on="1"/>
        <pt x="369" y="1254" on="1"/>
        <pt x="366" y="1209" on="1"/>
        <pt x="218" y="0" on="1"/>
        <pt x="131" y="0" on="1"/>
        <pt x="305" y="1415" on="1"/>
        <pt x="354" y="1415" on="1"/>
      </contour>
    </TTGlyph>
    <TTGlyph name="Nacute" xMin="131" yMin="0" xMax="1313" yMax="1770">
      <component glyphName="N" x="0" y="0" flags="0x204"/>
      <component glyphName="acute.case" x="426" y="0" flags="0x4"/>
    </TTGlyph>
    <TTGlyph name="Ntilde" xMin="131" yMin="0" xMax="1313" yMax="1716">
      <component glyphName="N" x="0" y="0" flags="0x204"/>
      <component glyphName="tilde.case" x="426" y="0" flags="0x4"/>
    </TTGlyph>
    <TTGlyph name="O" xMin="131" yMin="-15" xMax="1393" yMax="1431">
      <contour>
        <pt x="1393" y="816" on="1"/>
        <pt x="1393" y="629" on="0"/>
        <pt x="1284" y="323" on="0"/>
        <pt x="1090" y="105" on="0"/>
        <pt x="826" y="-15" on="0"/>
        <pt x="672" y="-15" on="1"/>
        <pt x="548" y="-15" on="0"/>
        <pt x="348" y="74" on="0"/>
        <pt x="207" y="236" on="0"/>
        <pt x="131" y="462" on="0"/>
        <pt x="131" y="599" on="1"/>
        <pt x="131" y="785" on="0"/>
        <pt x="241" y="1092" on="0"/>
        <pt x="434" y="1311" on="0"/>
        <pt x="697" y="1431" on="0"/>
        <pt x="850" y="1431" on="1"/>
        <pt x="975" y="1431" on="0"/>
        <pt x="1176" y="1342" on="0"/>
        <pt x="1317" y="1180" on="0"/>
        <pt x="1393" y="953" on="0"/>
      </contour>
      <contour>
        <pt x="1290" y="814" on="1"/>
        <pt x="1290" y="937" on="0"/>
        <pt x="1227" y="1134" on="0"/>
        <pt x="1109" y="1273" on="0"/>
        <pt x="942" y="1348" on="0"/>
        <pt x="839" y="1348" on="1"/>
        <pt x="709" y="1348" on="0"/>
        <pt x="487" y="1244" on="0"/>
        <pt x="324" y="1050" on="0"/>
        <pt x="232" y="774" on="0"/>
        <pt x="232" y="602" on="1"/>
        <pt x="232" y="479" on="0"/>
        <pt x="296" y="282" on="0"/>
        <pt x="414" y="144" on="0"/>
        <pt x="580" y="69" on="0"/>
        <pt x="683" y="69" on="1"/>
        <pt x="815" y="69" on="0"/>
        <pt x="1037" y="172" on="0"/>
        <pt x="1199" y="366" on="0"/>
        <pt x="1290" y="641" on="0"/>
      </contour>
    </TTGlyph>
    <TTGlyph name="OE" xMin="131" yMin="-13" xMax="2048" yMax="1431">
      <contour>
        <pt x="2048" y="1415" on="1"/>
        <pt x="2039" y="1333" on="1"/>
        <pt x="1361" y="1333" on="1"/>
        <pt x="1290" y="756" on="1"/>
        <pt x="1852" y="756" on="1"/>
        <pt x="1843" y="676" on="1"/>
        <pt x="1280" y="676" on="1"/>
        <pt x="1208" y="82" on="1"/>
        <pt x="1885" y="82" on="1"/>
        <pt x="1874" y="0" on="1"/>
        <pt x="1107" y="0" on="1"/>
        <pt x="1146" y="318" on="1"/>
        <pt x="1103" y="240" on="0"/>
        <pt x="990" y="117" on="0"/>
        <pt x="854" y="32" on="0"/>
        <pt x="697" y="-13" on="0"/>
        <pt x="611" y="-13" on="1"/>
        <pt x="500" y="-13" on="0"/>
        <pt x="323" y="74" on="0"/>
        <pt x="198" y="232" on="0"/>
        <pt x="131" y="454" on="0"/>
        <pt x="131" y="589" on="1"/>
        <pt x="131" y="778" on="0"/>
        <pt x="232" y="1088" on="0"/>
        <pt x="409" y="1309" on="0"/>
        <pt x="648" y="1431" on="0"/>
        <pt x="787" y="1431" on="1"/>
        <pt x="874" y="1431" on="0"/>
        <pt x="1019" y="1378" on="0"/>
        <pt x="1133" y="1281" on="0"/>
        <pt x="1214" y="1142" on="0"/>
        <pt x="1237" y="1056" on="1"/>
        <pt x="1281" y="1415" on="1"/>
      </contour>
      <contour>
        <pt x="1188" y="824" on="1"/>
        <pt x="1188" y="944" on="0"/>
        <pt x="1133" y="1138" on="0"/>
        <pt x="1030" y="1275" on="0"/>
        <pt x="882" y="1350" on="0"/>
        <pt x="789" y="1350" on="1"/>
        <pt x="670" y="1350" on="0"/>
        <pt x="466" y="1243" on="0"/>
        <pt x="317" y="1045" on="0"/>
        <pt x="232" y="765" on="0"/>
        <pt x="232" y="592" on="1"/>
        <pt x="232" y="472" on="0"/>
        <pt x="288" y="278" on="0"/>
        <pt x="392" y="141" on="0"/>
        <pt x="540" y="68" on="0"/>
        <pt x="632" y="68" on="1"/>
        <pt x="752" y="68" on="0"/>
        <pt x="956" y="174" on="0"/>
        <pt x="1104" y="370" on="0"/>
        <pt x="1188" y="650" on="0"/>
      </contour>
    </TTGlyph>
    <TTGlyph name="Oacute" xMin="131" yMin="-15" xMax="1393" yMax="1770">
      <component glyphName="O" x="0" y="0" flags="0x204"/>
      <component glyphName="acute.case" x="460" y="0" flags="0x4"/>
    </TTGlyph>
    <TTGlyph name="Ocircumflex" xMin="131" yMin="-15" xMax="1393" yMax="1741">
      <component glyphName="O" x="0" y="0" flags="0x204"/>
      <component glyphName="circumflex.case" x="460" y="0" flags="0x4"/>
    </TTGlyph>
    <TTGlyph name="Odieresis" xMin="131" yMin="-15" xMax="1393" yMax="1742">
      <component glyphName="O" x="0" y="0" flags="0x204"/>
      <component glyphName="dieresis.case" x="460" y="0" flags="0x4"/>
    </TTGlyph>
    <TTGlyph name="Ograve" xMin="131" yMin="-15" xMax="1393" yMax="1770">
      <component glyphName="O" x="0" y="0" flags="0x204"/>
      <component glyphName="grave.case" x="460" y="0" flags="0x4"/>
    </TTGlyph>
    <TTGlyph name="Omega" xMin="40" yMin="0" xMax="1339" yMax="1431">
      <contour>
        <pt x="736" y="0" on="1"/>
        <pt x="780" y="360" on="1"/>
        <pt x="880" y="383" on="0"/>
        <pt x="1048" y="472" on="0"/>
        <pt x="1169" y="609" on="0"/>
        <pt x="1237" y="796" on="0"/>
        <pt x="1237" y="917" on="1"/>
        <pt x="1237" y="1023" on="0"/>
        <pt x="1170" y="1185" on="0"/>
        <pt x="1052" y="1295" on="0"/>
        <pt x="892" y="1350" on="0"/>
        <pt x="799" y="1350" on="1"/>
        <pt x="687" y="1350" on="0"/>
        <pt x="484" y="1277" on="0"/>
        <pt x="329" y="1133" on="0"/>
        <pt x="238" y="918" on="0"/>
        <pt x="238" y="776" on="1"/>
        <pt x="238" y="690" on="0"/>
        <pt x="286" y="553" on="0"/>
        <pt x="375" y="449" on="0"/>
        <pt x="499" y="379" on="0"/>
        <pt x="575" y="360" on="1"/>
        <pt x="532" y="0" on="1"/>
        <pt x="71" y="0" on="1"/>
        <pt x="40" y="0" on="0"/>
        <pt x="40" y="31" on="1"/>
        <pt x="40" y="31" on="0"/>
        <pt x="40" y="34" on="0"/>
        <pt x="41" y="44" on="0"/>
        <pt x="43" y="66" on="0"/>
        <pt x="45" y="86" on="1"/>
        <pt x="463" y="86" on="1"/>
        <pt x="490" y="309" on="1"/>
        <pt x="412" y="330" on="0"/>
        <pt x="282" y="412" on="0"/>
        <pt x="189" y="531" on="0"/>
        <pt x="137" y="685" on="0"/>
        <pt x="137" y="777" on="1"/>
        <pt x="137" y="931" on="0"/>
        <pt x="245" y="1174" on="0"/>
        <pt x="430" y="1342" on="0"/>
        <pt x="674" y="1431" on="0"/>
        <pt x="809" y="1431" on="1"/>
        <pt x="923" y="1431" on="0"/>
        <pt x="1118" y="1361" on="0"/>
        <pt x="1259" y="1229" on="0"/>
        <pt x="1339" y="1040" on="0"/>
        <pt x="1339" y="922" on="1"/>
        <pt x="1339" y="797" on="0"/>
        <pt x="1264" y="592" on="0"/>
        <pt x="1133" y="437" on="0"/>
        <pt x="956" y="333" on="0"/>
        <pt x="853" y="309" on="1"/>
        <pt x="825" y="86" on="1"/>
        <pt x="1243" y="86" on="1"/>
        <pt x="1238" y="35" on="1"/>
        <pt x="1236" y="21" on="0"/>
        <pt x="1212" y="2" on="0"/>
        <pt x="1197" y="0" on="1"/>
      </contour>
    </TTGlyph>
    <TTGlyph name="Oslash" xMin="79" yMin="-105" xMax="1435" yMax="1479">
      <contour>
        <pt x="1393" y="816" on="1"/>
        <pt x="1393" y="629" on="0"/>
        <pt x="1284" y="323" on="0"/>
        <pt x="1090" y="105" on="0"/>
        <pt x="826" y="-15" on="0"/>
        <pt x="672" y="-15" on="1"/>
        <pt x="568" y="-15" on="0"/>
        <pt x="395" y="47" on="0"/>
        <pt x="328" y="104" on="1"/>
        <pt x="184" y="-74" on="1"/>
        <pt x="170" y="-91" on="0"/>
        <pt x="136" y="-105" on="0"/>
        <pt x="120" y="-105" on="1"/>
        <pt x="79" y="-105" on="1"/>
        <pt x="283" y="148" on="1"/>
        <pt x="209" y="229" on="0"/>
        <pt x="131" y="458" on="0"/>
        <pt x="131" y="599" on="1"/>
        <pt x="131" y="785" on="0"/>
        <pt x="241" y="1092" on="0"/>
        <pt x="434" y="1311" on="0"/>
        <pt x="697" y="1431" on="0"/>
        <pt x="850" y="1431" on="1"/>
        <pt x="959" y="1431" on="0"/>
        <pt x="1140" y="1362" on="0"/>
        <pt x="1209" y="1299" on="1"/>
        <pt x="1331" y="1450" on="1"/>
        <pt x="1344" y="1467" on="0"/>
        <pt x="1364" y="1479" on="0"/>
        <pt x="1383" y="1479" on="1"/>
        <pt x="1435" y="1479" on="1"/>
        <pt x="1253" y="1253" on="1"/>
        <pt x="1321" y="1172" on="0"/>
        <pt x="1393" y="950" on="0"/>
      </contour>
      <contour>
        <pt x="232" y="602" on="1"/>
        <pt x="232" y="484" on="0"/>
        <pt x="290" y="294" on="0"/>
        <pt x="344" y="225" on="1"/>
        <pt x="1149" y="1224" on="1"/>
        <pt x="1091" y="1284" on="0"/>
        <pt x="935" y="1348" on="0"/>
        <pt x="839" y="1348" on="1"/>
        <pt x="709" y="1348" on="0"/>
        <pt x="487" y="1244" on="0"/>
        <pt x="324" y="1050" on="0"/>
        <pt x="232" y="774" on="0"/>
      </contour>
      <contour>
        <pt x="1290" y="814" on="1"/>
        <pt x="1290" y="925" on="0"/>
        <pt x="1238" y="1106" on="0"/>
        <pt x="1190" y="1175" on="1"/>
        <pt x="387" y="178" on="1"/>
        <pt x="444" y="124" on="0"/>
        <pt x="593" y="69" on="0"/>
        <pt x="683" y="69" on="1"/>
        <pt x="815" y="69" on="0"/>
        <pt x="1037" y="172" on="0"/>
        <pt x="1199" y="366" on="0"/>
        <pt x="1290" y="641" on="0"/>
      </contour>
    </TTGlyph>
    <TTGlyph name="Otilde" xMin="131" yMin="-15" xMax="1393" yMax="1716">
      <component glyphName="O" x="0" y="0" flags="0x204"/>
      <component glyphName="tilde.case" x="460" y="0" flags="0x4"/>
    </TTGlyph>
    <TTGlyph name="P" xMin="158" yMin="0" xMax="1087" yMax="1415">
      <contour>
        <pt x="327" y="571" on="1"/>
        <pt x="257" y="0" on="1"/>
        <pt x="158" y="0" on="1"/>
        <pt x="331" y="1415" on="1"/>
        <pt x="671" y="1415" on="1"/>
        <pt x="879" y="1415" on="0"/>
        <pt x="1087" y="1228" on="0"/>
        <pt x="1087" y="1059" on="1"/>
        <pt x="1087" y="951" on="0"/>
        <pt x="1013" y="772" on="0"/>
        <pt x="877" y="643" on="0"/>
        <pt x="685" y="571" on="0"/>
        <pt x="567" y="571" on="1"/>
      </contour>
      <contour>
        <pt x="421" y="1336" on="1"/>
        <pt x="337" y="651" on="1"/>
        <pt x="577" y="651" on="1"/>
        <pt x="671" y="651" on="0"/>
        <pt x="822" y="711" on="0"/>
        <pt x="929" y="817" on="0"/>
        <pt x="987" y="963" on="0"/>
        <pt x="987" y="1049" on="1"/>
        <pt x="987" y="1185" on="0"/>
        <pt x="824" y="1336" on="0"/>
        <pt x="661" y="1336" on="1"/>
      </contour>
    </TTGlyph>
    <TTGlyph name="Q" xMin="131" yMin="-312" xMax="1393" yMax="1431">
      <contour>
        <pt x="1393" y="816" on="1"/>
        <pt x="1393" y="687" on="0"/>
        <pt x="1340" y="461" on="0"/>
        <pt x="1243" y="273" on="0"/>
        <pt x="1106" y="126" on="0"/>
        <pt x="1021" y="77" on="1"/>
        <pt x="1312" y="-312" on="1"/>
        <pt x="1234" y="-312" on="1"/>
        <pt x="1214" y="-312" on="0"/>
        <pt x="1185" y="-302" on="0"/>
        <pt x="1175" y="-288" on="1"/>
        <pt x="937" y="35" on="1"/>
        <pt x="813" y="-15" on="0"/>
        <pt x="672" y="-15" on="1"/>
        <pt x="548" y="-15" on="0"/>
        <pt x="348" y="74" on="0"/>
        <pt x="207" y="236" on="0"/>
        <pt x="131" y="462" on="0"/>
        <pt x="131" y="599" on="1"/>
        <pt x="131" y="785" on="0"/>
        <pt x="241" y="1092" on="0"/>
        <pt x="434" y="1311" on="0"/>
        <pt x="697" y="1431" on="0"/>
        <pt x="850" y="1431" on="1"/>
        <pt x="975" y="1431" on="0"/>
        <pt x="1176" y="1342" on="0"/>
        <pt x="1317" y="1180" on="0"/>
        <pt x="1393" y="953" on="0"/>
      </contour>
      <contour>
        <pt x="1290" y="814" on="1"/>
        <pt x="1290" y="937" on="0"/>
        <pt x="1227" y="1134" on="0"/>
        <pt x="1109" y="1273" on="0"/>
        <pt x="942" y="1348" on="0"/>
        <pt x="839" y="1348" on="1"/>
        <pt x="709" y="1348" on="0"/>
        <pt x="487" y="1244" on="0"/>
        <pt x="324" y="1050" on="0"/>
        <pt x="232" y="774" on="0"/>
        <pt x="232" y="602" on="1"/>
        <pt x="232" y="479" on="0"/>
        <pt x="296" y="282" on="0"/>
        <pt x="414" y="144" on="0"/>
        <pt x="580" y="69" on="0"/>
        <pt x="683" y="69" on="1"/>
        <pt x="815" y="69" on="0"/>
        <pt x="1037" y="172" on="0"/>
        <pt x="1199" y="366" on="0"/>
        <pt x="1290" y="641" on="0"/>
      </contour>
    </TTGlyph>
    <TTGlyph name="R" xMin="158" yMin="0" xMax="1075" yMax="1415">
      <contour>
        <pt x="336" y="641" on="1"/>
        <pt x="257" y="0" on="1"/>
        <pt x="158" y="0" on="1"/>
        <pt x="331" y="1415" on="1"/>
        <pt x="667" y="1415" on="1"/>
        <pt x="872" y="1415" on="0"/>
        <pt x="1075" y="1252" on="0"/>
        <pt x="1075" y="1097" on="1"/>
        <pt x="1075" y="1005" on="0"/>
        <pt x="1015" y="852" on="0"/>
        <pt x="905" y="737" on="0"/>
        <pt x="750" y="665" on="0"/>
        <pt x="656" y="653" on="1"/>
        <pt x="677" y="638" on="0"/>
        <pt x="691" y="614" on="1"/>
        <pt x="1060" y="0" on="1"/>
        <pt x="975" y="0" on="1"/>
        <pt x="945" y="0" on="0"/>
        <pt x="930" y="25" on="1"/>
        <pt x="589" y="601" on="1"/>
        <pt x="575" y="623" on="0"/>
        <pt x="542" y="641" on="0"/>
        <pt x="505" y="641" on="1"/>
      </contour>
      <contour>
        <pt x="422" y="1336" on="1"/>
        <pt x="345" y="715" on="1"/>
        <pt x="568" y="715" on="1"/>
        <pt x="663" y="715" on="0"/>
        <pt x="814" y="767" on="0"/>
        <pt x="920" y="863" on="0"/>
        <pt x="976" y="999" on="0"/>
        <pt x="976" y="1082" on="1"/>
        <pt x="976" y="1210" on="0"/>
        <pt x="814" y="1336" on="0"/>
        <pt x="658" y="1336" on="1"/>
      </contour>
    </TTGlyph>
    <TTGlyph name="S" xMin="39" yMin="-16" xMax="944" yMax="1431">
      <contour>
        <pt x="916" y="1244" on="1"/>
        <pt x="905" y="1227" on="0"/>
        <pt x="890" y="1227" on="1"/>
        <pt x="878" y="1227" on="0"/>
        <pt x="844" y="1265" on="0"/>
        <pt x="785" y="1310" on="0"/>
        <pt x="692" y="1348" on="0"/>
        <pt x="622" y="1348" on="1"/>
        <pt x="546" y="1348" on="0"/>
        <pt x="427" y="1299" on="0"/>
        <pt x="344" y="1214" on="0"/>
        <pt x="300" y="1101" on="0"/>
        <pt x="300" y="1037" on="1"/>
        <pt x="300" y="976" on="0"/>
        <pt x="350" y="893" on="0"/>
        <pt x="431" y="834" on="0"/>
        <pt x="534" y="791" on="0"/>
        <pt x="643" y="750" on="0"/>
        <pt x="746" y="701" on="0"/>
        <pt x="827" y="631" on="0"/>
        <pt x="877" y="531" on="0"/>
        <pt x="877" y="458" on="1"/>
        <pt x="877" y="362" on="0"/>
        <pt x="811" y="189" on="0"/>
        <pt x="688" y="60" on="0"/>
        <pt x="512" y="-16" on="0"/>
        <pt x="403" y="-16" on="1"/>
        <pt x="275" y="-16" on="0"/>
        <pt x="99" y="83" on="0"/>
        <pt x="39" y="169" on="1"/>
        <pt x="72" y="212" on="1"/>
        <pt x="86" y="226" on="0"/>
        <pt x="100" y="226" on="1"/>
        <pt x="109" y="226" on="0"/>
        <pt x="132" y="202" on="0"/>
        <pt x="165" y="167" on="0"/>
        <pt x="210" y="126" on="0"/>
        <pt x="274" y="91" on="0"/>
        <pt x="359" y="67" on="0"/>
        <pt x="415" y="67" on="1"/>
        <pt x="499" y="67" on="0"/>
        <pt x="635" y="124" on="0"/>
        <pt x="731" y="224" on="0"/>
        <pt x="782" y="359" on="0"/>
        <pt x="782" y="437" on="1"/>
        <pt x="782" y="499" on="0"/>
        <pt x="732" y="582" on="0"/>
        <pt x="651" y="640" on="0"/>
        <pt x="548" y="680" on="0"/>
        <pt x="440" y="720" on="0"/>
        <pt x="336" y="768" on="0"/>
        <pt x="255" y="839" on="0"/>
        <pt x="206" y="942" on="0"/>
        <pt x="206" y="1017" on="1"/>
        <pt x="206" y="1098" on="0"/>
        <pt x="264" y="1248" on="0"/>
        <pt x="373" y="1363" on="0"/>
        <pt x="531" y="1431" on="0"/>
        <pt x="632" y="1431" on="1"/>
        <pt x="734" y="1431" on="0"/>
        <pt x="888" y="1356" on="0"/>
        <pt x="944" y="1284" on="1"/>
      </contour>
    </TTGlyph>
    <TTGlyph name="Sacute" xMin="39" yMin="-16" xMax="966" yMax="1770">
      <component glyphName="S" x="0" y="0" flags="0x204"/>
      <component glyphName="acute.case" x="263" y="0" flags="0x4"/>
    </TTGlyph>
    <TTGlyph name="Scaron" xMin="39" yMin="-16" xMax="945" yMax="1741">
      <component glyphName="S" x="0" y="0" flags="0x204"/>
      <component glyphName="caron.case" x="266" y="0" flags="0x4"/>
    </TTGlyph>
    <TTGlyph name="T" xMin="135" yMin="0" xMax="1158" yMax="1415">
      <contour>
        <pt x="1158" y="1415" on="1"/>
        <pt x="1148" y="1331" on="1"/>
        <pt x="692" y="1331" on="1"/>
        <pt x="529" y="0" on="1"/>
        <pt x="430" y="0" on="1"/>
        <pt x="593" y="1331" on="1"/>
        <pt x="135" y="1331" on="1"/>
        <pt x="145" y="1415" on="1"/>
      </contour>
    </TTGlyph>
    <TTGlyph name="Thorn" xMin="218" yMin="0" xMax="1113" yMax="1415">
      <contour>
        <pt x="455" y="1129" on="1"/>
        <pt x="697" y="1129" on="1"/>
        <pt x="904" y="1129" on="0"/>
        <pt x="1113" y="943" on="0"/>
        <pt x="1113" y="774" on="1"/>
        <pt x="1113" y="666" on="0"/>
        <pt x="1039" y="487" on="0"/>
        <pt x="902" y="358" on="0"/>
        <pt x="710" y="286" on="0"/>
        <pt x="593" y="286" on="1"/>
        <pt x="352" y="286" on="1"/>
        <pt x="317" y="0" on="1"/>
        <pt x="218" y="0" on="1"/>
        <pt x="391" y="1415" on="1"/>
        <pt x="491" y="1415" on="1"/>
      </contour>
      <contour>
        <pt x="446" y="1050" on="1"/>
        <pt x="362" y="366" on="1"/>
        <pt x="603" y="366" on="1"/>
        <pt x="697" y="366" on="0"/>
        <pt x="848" y="426" on="0"/>
        <pt x="955" y="532" on="0"/>
        <pt x="1013" y="678" on="0"/>
        <pt x="1013" y="764" on="1"/>
        <pt x="1013" y="901" on="0"/>
        <pt x="851" y="1050" on="0"/>
        <pt x="686" y="1050" on="1"/>
      </contour>
    </TTGlyph>
    <TTGlyph name="U" xMin="179" yMin="-17" xMax="1284" yMax="1415">
      <contour>
        <pt x="623" y="70" on="1"/>
        <pt x="716" y="70" on="0"/>
        <pt x="872" y="142" on="0"/>
        <pt x="989" y="268" on="0"/>
        <pt x="1065" y="440" on="0"/>
        <pt x="1077" y="539" on="1"/>
        <pt x="1184" y="1415" on="1"/>
        <pt x="1284" y="1415" on="1"/>
        <pt x="1176" y="539" on="1"/>
        <pt x="1161" y="422" on="0"/>
        <pt x="1068" y="219" on="0"/>
        <pt x="921" y="69" on="0"/>
        <pt x="727" y="-17" on="0"/>
        <pt x="612" y="-17" on="1"/>
        <pt x="509" y="-17" on="0"/>
        <pt x="348" y="54" on="0"/>
        <pt x="237" y="178" on="0"/>
        <pt x="179" y="349" on="0"/>
        <pt x="179" y="450" on="1"/>
        <pt x="179" y="494" on="0"/>
        <pt x="185" y="539" on="1"/>
        <pt x="292" y="1415" on="1"/>
        <pt x="392" y="1415" on="1"/>
        <pt x="284" y="540" on="1"/>
        <pt x="282" y="520" on="0"/>
        <pt x="279" y="480" on="0"/>
        <pt x="279" y="460" on="1"/>
        <pt x="279" y="376" on="0"/>
        <pt x="324" y="233" on="0"/>
        <pt x="411" y="129" on="0"/>
        <pt x="539" y="70" on="0"/>
      </contour>
    </TTGlyph>
    <TTGlyph name="Uacute" xMin="179" yMin="-17" xMax="1284" yMax="1770">
      <component glyphName="U" x="0" y="0" flags="0x204"/>
      <component glyphName="acute.case" x="406" y="0" flags="0x4"/>
    </TTGlyph>
    <TTGlyph name="Ucircumflex" xMin="179" yMin="-17" xMax="1284" yMax="1741">
      <component glyphName="U" x="0" y="0" flags="0x204"/>
      <component glyphName="circumflex.case" x="406" y="0" flags="0x4"/>
    </TTGlyph>
    <TTGlyph name="Udieresis" xMin="179" yMin="-17" xMax="1284" yMax="1742">
      <component glyphName="U" x="0" y="0" flags="0x204"/>
      <component glyphName="dieresis.case" x="406" y="0" flags="0x4"/>
    </TTGlyph>
    <TTGlyph name="Ugrave" xMin="179" yMin="-17" xMax="1284" yMax="1770">
      <component glyphName="U" x="0" y="0" flags="0x204"/>
      <component glyphName="grave.case" x="406" y="0" flags="0x4"/>
    </TTGlyph>
    <TTGlyph name="V" xMin="127" yMin="0" xMax="1290" yMax="1415">
      <contour>
        <pt x="127" y="1415" on="1"/>
        <pt x="206" y="1415" on="1"/>
        <pt x="220" y="1415" on="0"/>
        <pt x="235" y="1400" on="0"/>
        <pt x="238" y="1389" on="1"/>
        <pt x="532" y="208" on="1"/>
        <pt x="537" y="187" on="0"/>
        <pt x="547" y="139" on="0"/>
        <pt x="550" y="113" on="1"/>
        <pt x="559" y="139" on="0"/>
        <pt x="578" y="187" on="0"/>
        <pt x="589" y="208" on="1"/>
        <pt x="1172" y="1389" on="1"/>
        <pt x="1177" y="1400" on="0"/>
        <pt x="1198" y="1415" on="0"/>
        <pt x="1212" y="1415" on="1"/>
        <pt x="1290" y="1415" on="1"/>
        <pt x="580" y="0" on="1"/>
        <pt x="491" y="0" on="1"/>
      </contour>
    </TTGlyph>
    <TTGlyph name="W" xMin="129" yMin="0" xMax="1918" yMax="1415">
      <contour>
        <pt x="129" y="1415" on="1"/>
        <pt x="207" y="1415" on="1"/>
        <pt x="236" y="1415" on="0"/>
        <pt x="239" y="1389" on="1"/>
        <pt x="426" y="213" on="1"/>
        <pt x="429" y="194" on="0"/>
        <pt x="431" y="153" on="0"/>
        <pt x="433" y="131" on="1"/>
        <pt x="440" y="153" on="0"/>
        <pt x="455" y="194" on="0"/>
        <pt x="463" y="213" on="1"/>
        <pt x="974" y="1389" on="1"/>
        <pt x="979" y="1400" on="0"/>
        <pt x="999" y="1415" on="0"/>
        <pt x="1013" y="1415" on="1"/>
        <pt x="1035" y="1415" on="1"/>
        <pt x="1062" y="1415" on="0"/>
        <pt x="1067" y="1389" on="1"/>
        <pt x="1289" y="213" on="1"/>
        <pt x="1292" y="195" on="0"/>
        <pt x="1296" y="154" on="0"/>
        <pt x="1298" y="133" on="1"/>
        <pt x="1305" y="154" on="0"/>
        <pt x="1318" y="195" on="0"/>
        <pt x="1325" y="213" on="1"/>
        <pt x="1800" y="1389" on="1"/>
        <pt x="1804" y="1400" on="0"/>
        <pt x="1827" y="1415" on="0"/>
        <pt x="1841" y="1415" on="1"/>
        <pt x="1918" y="1415" on="1"/>
        <pt x="1334" y="0" on="1"/>
        <pt x="1245" y="0" on="1"/>
        <pt x="1014" y="1233" on="1"/>
        <pt x="1012" y="1244" on="0"/>
        <pt x="1009" y="1270" on="0"/>
        <pt x="1007" y="1284" on="1"/>
        <pt x="1002" y="1270" on="0"/>
        <pt x="993" y="1244" on="0"/>
        <pt x="988" y="1233" on="1"/>
        <pt x="454" y="0" on="1"/>
        <pt x="365" y="0" on="1"/>
      </contour>
    </TTGlyph>
    <TTGlyph name="X" xMin="-66" yMin="0" xMax="1168" yMax="1415">
      <contour>
        <pt x="518" y="756" on="1"/>
        <pt x="168" y="1415" on="1"/>
        <pt x="257" y="1415" on="1"/>
        <pt x="271" y="1415" on="0"/>
        <pt x="284" y="1405" on="0"/>
        <pt x="289" y="1394" on="1"/>
        <pt x="590" y="807" on="1"/>
        <pt x="597" y="821" on="0"/>
        <pt x="605" y="833" on="1"/>
        <pt x="1037" y="1397" on="1"/>
        <pt x="1051" y="1415" on="0"/>
        <pt x="1069" y="1415" on="1"/>
        <pt x="1168" y="1415" on="1"/>
        <pt x="656" y="761" on="1"/>
        <pt x="1052" y="0" on="1"/>
        <pt x="963" y="0" on="1"/>
        <pt x="949" y="0" on="0"/>
        <pt x="936" y="16" on="0"/>
        <pt x="932" y="24" on="1"/>
        <pt x="586" y="703" on="1"/>
        <pt x="583" y="697" on="0"/>
        <pt x="577" y="685" on="0"/>
        <pt x="572" y="680" on="1"/>
        <pt x="72" y="24" on="1"/>
        <pt x="63" y="13" on="0"/>
        <pt x="44" y="0" on="0"/>
        <pt x="32" y="0" on="1"/>
        <pt x="-66" y="0" on="1"/>
      </contour>
    </TTGlyph>
    <TTGlyph name="Y" xMin="135" yMin="0" xMax="1198" yMax="1415">
      <contour>
        <pt x="615" y="583" on="1"/>
        <pt x="542" y="0" on="1"/>
        <pt x="443" y="0" on="1"/>
        <pt x="516" y="584" on="1"/>
        <pt x="135" y="1415" on="1"/>
        <pt x="223" y="1415" on="1"/>
        <pt x="237" y="1415" on="0"/>
        <pt x="252" y="1401" on="0"/>
        <pt x="257" y="1390" on="1"/>
        <pt x="556" y="722" on="1"/>
        <pt x="564" y="705" on="0"/>
        <pt x="572" y="672" on="0"/>
        <pt x="575" y="656" on="1"/>
        <pt x="583" y="673" on="0"/>
        <pt x="601" y="705" on="0"/>
        <pt x="612" y="722" on="1"/>
        <pt x="1076" y="1390" on="1"/>
        <pt x="1083" y="1401" on="0"/>
        <pt x="1101" y="1415" on="0"/>
        <pt x="1115" y="1415" on="1"/>
        <pt x="1198" y="1415" on="1"/>
      </contour>
    </TTGlyph>
    <TTGlyph name="Yacute" xMin="135" yMin="0" xMax="1198" yMax="1770">
      <component glyphName="Y" x="0" y="0" flags="0x204"/>
      <component glyphName="acute.case" x="294" y="0" flags="0x4"/>
    </TTGlyph>
    <TTGlyph name="Ydieresis" xMin="135" yMin="0" xMax="1198" yMax="1742">
      <component glyphName="Y" x="0" y="0" flags="0x204"/>
      <component glyphName="dieresis.case" x="294" y="0" flags="0x4"/>
    </TTGlyph>
    <TTGlyph name="Z" xMin="44" yMin="0" xMax="1185" yMax="1415">
      <contour>
        <pt x="1185" y="1415" on="1"/>
        <pt x="1180" y="1382" on="1"/>
        <pt x="1178" y="1373" on="0"/>
        <pt x="1171" y="1359" on="0"/>
        <pt x="1164" y="1351" on="1"/>
        <pt x="190" y="82" on="1"/>
        <pt x="1014" y="82" on="1"/>
        <pt x="1003" y="0" on="1"/>
        <pt x="44" y="0" on="1"/>
        <pt x="48" y="33" on="1"/>
        <pt x="49" y="41" on="0"/>
        <pt x="58" y="54" on="0"/>
        <pt x="63" y="62" on="1"/>
        <pt x="1039" y="1333" on="1"/>
        <pt x="232" y="1333" on="1"/>
        <pt x="243" y="1415" on="1"/>
      </contour>
    </TTGlyph>
    <TTGlyph name="Zacute" xMin="44" yMin="0" xMax="1185" yMax="1770">
      <component glyphName="Z" x="0" y="0" flags="0x204"/>
      <component glyphName="acute.case" x="326" y="0" flags="0x4"/>
    </TTGlyph>
    <TTGlyph name="Zcaron" xMin="44" yMin="0" xMax="1185" yMax="1741">
      <component glyphName="Z" x="0" y="0" flags="0x204"/>
      <component glyphName="caron.case" x="326" y="0" flags="0x4"/>
    </TTGlyph>
    <TTGlyph name="Zdotaccent" xMin="44" yMin="0" xMax="1185" yMax="1764">
      <component glyphName="Z" x="0" y="0" flags="0x204"/>
      <component glyphName="dotaccent.case" x="326" y="0" flags="0x4"/>
    </TTGlyph>
    <TTGlyph name="a" xMin="60" yMin="-13" xMax="883" yMax="1008">
      <contour>
        <pt x="766" y="0" on="1"/>
        <pt x="720" y="0" on="1"/>
        <pt x="701" y="0" on="0"/>
        <pt x="686" y="18" on="0"/>
        <pt x="686" y="31" on="1"/>
        <pt x="719" y="344" on="1"/>
        <pt x="681" y="264" on="0"/>
        <pt x="590" y="133" on="0"/>
        <pt x="487" y="39" on="0"/>
        <pt x="373" y="-13" on="0"/>
        <pt x="312" y="-13" on="1"/>
        <pt x="249" y="-13" on="0"/>
        <pt x="155" y="36" on="0"/>
        <pt x="92" y="126" on="0"/>
        <pt x="60" y="254" on="0"/>
        <pt x="60" y="334" on="1"/>
        <pt x="60" y="421" on="0"/>
        <pt x="104" y="588" on="0"/>
        <pt x="185" y="738" on="0"/>
        <pt x="297" y="864" on="0"/>
        <pt x="432" y="956" on="0"/>
        <pt x="586" y="1008" on="0"/>
        <pt x="668" y="1008" on="1"/>
        <pt x="728" y="1008" on="0"/>
        <pt x="832" y="987" on="0"/>
        <pt x="883" y="961" on="1"/>
      </contour>
      <contour>
        <pt x="343" y="66" on="1"/>
        <pt x="400" y="66" on="0"/>
        <pt x="511" y="130" on="0"/>
        <pt x="611" y="247" on="0"/>
        <pt x="700" y="412" on="0"/>
        <pt x="735" y="512" on="1"/>
        <pt x="785" y="917" on="1"/>
        <pt x="726" y="937" on="0"/>
        <pt x="657" y="937" on="1"/>
        <pt x="590" y="937" on="0"/>
        <pt x="464" y="892" on="0"/>
        <pt x="353" y="812" on="0"/>
        <pt x="260" y="702" on="0"/>
        <pt x="192" y="571" on="0"/>
        <pt x="155" y="425" on="0"/>
        <pt x="155" y="349" on="1"/>
        <pt x="155" y="215" on="0"/>
        <pt x="246" y="66" on="0"/>
      </contour>
    </TTGlyph>
    <TTGlyph name="aacute" xMin="60" yMin="-13" xMax="897" yMax="1431">
      <component glyphName="a" x="0" y="0" flags="0x204"/>
      <component glyphName="acute" x="301" y="0" flags="0x4"/>
    </TTGlyph>
    <TTGlyph name="acircumflex" xMin="60" yMin="-13" xMax="883" yMax="1415">
      <component glyphName="a" x="0" y="0" flags="0x204"/>
      <component glyphName="circumflex" x="286" y="0" flags="0x4"/>
    </TTGlyph>
    <TTGlyph name="acute" xMin="272" yMin="1161" xMax="596" yMax="1431">
      <contour>
        <pt x="596" y="1431" on="1"/>
        <pt x="364" y="1177" on="1"/>
        <pt x="349" y="1161" on="0"/>
        <pt x="327" y="1161" on="1"/>
        <pt x="272" y="1161" on="1"/>
        <pt x="445" y="1399" on="1"/>
        <pt x="458" y="1416" on="0"/>
        <pt x="482" y="1431" on="0"/>
        <pt x="505" y="1431" on="1"/>
      </contour>
    </TTGlyph>
    <TTGlyph name="acute.case" xMin="300" yMin="1542" xMax="703" yMax="1770">
      <contour>
        <pt x="703" y="1770" on="1"/>
        <pt x="412" y="1557" on="1"/>
        <pt x="401" y="1549" on="0"/>
        <pt x="385" y="1542" on="0"/>
        <pt x="373" y="1542" on="1"/>
        <pt x="300" y="1542" on="1"/>
        <pt x="534" y="1748" on="1"/>
        <pt x="548" y="1761" on="0"/>
        <pt x="571" y="1770" on="0"/>
        <pt x="594" y="1770" on="1"/>
      </contour>
    </TTGlyph>
    <TTGlyph name="adieresis" xMin="60" yMin="-13" xMax="911" yMax="1389">
      <component glyphName="a" x="0" y="0" flags="0x204"/>
      <component glyphName="dieresis" x="286" y="0" flags="0x4"/>
    </TTGlyph>
    <TTGlyph name="ae" xMin="50" yMin="-16" xMax="1386" yMax="1012">
      <contour>
        <pt x="1114" y="1011" on="1"/>
        <pt x="1169" y="1011" on="0"/>
        <pt x="1262" y="979" on="0"/>
        <pt x="1330" y="920" on="0"/>
        <pt x="1368" y="839" on="0"/>
        <pt x="1368" y="791" on="1"/>
        <pt x="1368" y="733" on="0"/>
        <pt x="1306" y="629" on="0"/>
        <pt x="1162" y="551" on="0"/>
        <pt x="924" y="503" on="0"/>
        <pt x="749" y="502" on="1"/>
        <pt x="746" y="461" on="0"/>
        <pt x="746" y="420" on="1"/>
        <pt x="746" y="248" on="0"/>
        <pt x="885" y="63" on="0"/>
        <pt x="1006" y="63" on="1"/>
        <pt x="1059" y="63" on="0"/>
        <pt x="1144" y="86" on="0"/>
        <pt x="1212" y="122" on="0"/>
        <pt x="1263" y="162" on="0"/>
        <pt x="1303" y="198" on="0"/>
        <pt x="1332" y="221" on="0"/>
        <pt x="1343" y="221" on="1"/>
        <pt x="1355" y="221" on="0"/>
        <pt x="1364" y="211" on="1"/>
        <pt x="1386" y="185" on="1"/>
        <pt x="1338" y="134" on="0"/>
        <pt x="1246" y="59" on="0"/>
        <pt x="1150" y="10" on="0"/>
        <pt x="1047" y="-13" on="0"/>
        <pt x="989" y="-13" on="1"/>
        <pt x="873" y="-13" on="0"/>
        <pt x="716" y="128" on="0"/>
        <pt x="687" y="261" on="1"/>
        <pt x="659" y="184" on="0"/>
        <pt x="568" y="78" on="0"/>
        <pt x="462" y="13" on="0"/>
        <pt x="351" y="-16" on="0"/>
        <pt x="303" y="-16" on="1"/>
        <pt x="247" y="-16" on="0"/>
        <pt x="154" y="11" on="0"/>
        <pt x="87" y="67" on="0"/>
        <pt x="50" y="154" on="0"/>
        <pt x="50" y="214" on="1"/>
        <pt x="50" y="289" on="0"/>
        <pt x="120" y="414" on="0"/>
        <pt x="270" y="505" on="0"/>
        <pt x="506" y="559" on="0"/>
        <pt x="672" y="563" on="1"/>
        <pt x="683" y="648" on="1"/>
        <pt x="685" y="668" on="0"/>
        <pt x="688" y="703" on="0"/>
        <pt x="688" y="720" on="1"/>
        <pt x="688" y="825" on="0"/>
        <pt x="596" y="935" on="0"/>
        <pt x="505" y="935" on="1"/>
        <pt x="439" y="935" on="0"/>
        <pt x="342" y="895" on="0"/>
        <pt x="272" y="848" on="0"/>
        <pt x="226" y="808" on="0"/>
        <pt x="212" y="808" on="1"/>
        <pt x="191" y="808" on="0"/>
        <pt x="184" y="826" on="1"/>
        <pt x="172" y="854" on="1"/>
        <pt x="253" y="932" on="0"/>
        <pt x="416" y="1012" on="0"/>
        <pt x="515" y="1012" on="1"/>
        <pt x="629" y="1012" on="0"/>
        <pt x="745" y="892" on="0"/>
        <pt x="756" y="785" on="1"/>
        <pt x="813" y="891" on="0"/>
        <pt x="994" y="1011" on="0"/>
      </contour>
      <contour>
        <pt x="664" y="501" on="1"/>
        <pt x="526" y="496" on="0"/>
        <pt x="328" y="457" on="0"/>
        <pt x="201" y="388" on="0"/>
        <pt x="140" y="290" on="0"/>
        <pt x="140" y="227" on="1"/>
        <pt x="140" y="181" on="0"/>
        <pt x="166" y="115" on="0"/>
        <pt x="214" y="72" on="0"/>
        <pt x="280" y="51" on="0"/>
        <pt x="319" y="51" on="1"/>
        <pt x="380" y="51" on="0"/>
        <pt x="491" y="96" on="0"/>
        <pt x="580" y="181" on="0"/>
        <pt x="640" y="305" on="0"/>
        <pt x="650" y="385" on="1"/>
      </contour>
      <contour>
        <pt x="1104" y="940" on="1"/>
        <pt x="1033" y="940" on="0"/>
        <pt x="917" y="886" on="0"/>
        <pt x="828" y="787" on="0"/>
        <pt x="769" y="646" on="0"/>
        <pt x="756" y="560" on="1"/>
        <pt x="907" y="565" on="0"/>
        <pt x="1109" y="604" on="0"/>
        <pt x="1232" y="664" on="0"/>
        <pt x="1284" y="742" on="0"/>
        <pt x="1284" y="787" on="1"/>
        <pt x="1284" y="859" on="0"/>
        <pt x="1186" y="940" on="0"/>
      </contour>
    </TTGlyph>
    <TTGlyph name="agrave" xMin="60" yMin="-13" xMax="883" yMax="1431">
      <component glyphName="a" x="0" y="0" flags="0x204"/>
      <component glyphName="grave" x="340" y="0" flags="0x4"/>
    </TTGlyph>
    <TTGlyph name="ampersand" xMin="77" yMin="-16" xMax="1197" yMax="1431">
      <contour>
        <pt x="718" y="1431" on="1"/>
        <pt x="780" y="1431" on="0"/>
        <pt x="884" y="1390" on="0"/>
        <pt x="958" y="1315" on="0"/>
        <pt x="999" y="1211" on="0"/>
        <pt x="999" y="1148" on="1"/>
        <pt x="947" y="1139" on="1"/>
        <pt x="945" y="1139" on="0"/>
        <pt x="941" y="1138" on="0"/>
        <pt x="939" y="1138" on="1"/>
        <pt x="920" y="1138" on="0"/>
        <pt x="917" y="1162" on="1"/>
        <pt x="913" y="1194" on="0"/>
        <pt x="888" y="1263" on="0"/>
        <pt x="840" y="1321" on="0"/>
        <pt x="765" y="1358" on="0"/>
        <pt x="711" y="1358" on="1"/>
        <pt x="650" y="1358" on="0"/>
        <pt x="549" y="1314" on="0"/>
        <pt x="476" y="1237" on="0"/>
        <pt x="436" y="1132" on="0"/>
        <pt x="436" y="1070" on="1"/>
        <pt x="436" y="1001" on="0"/>
        <pt x="498" y="859" on="0"/>
        <pt x="557" y="786" on="1"/>
        <pt x="910" y="352" on="1"/>
        <pt x="960" y="424" on="0"/>
        <pt x="1025" y="578" on="0"/>
        <pt x="1039" y="649" on="1"/>
        <pt x="1041" y="660" on="0"/>
        <pt x="1053" y="674" on="0"/>
        <pt x="1066" y="674" on="1"/>
        <pt x="1126" y="674" on="1"/>
        <pt x="1112" y="580" on="0"/>
        <pt x="1028" y="381" on="0"/>
        <pt x="960" y="290" on="1"/>
        <pt x="1197" y="0" on="1"/>
        <pt x="1120" y="0" on="1"/>
        <pt x="1095" y="0" on="0"/>
        <pt x="1068" y="11" on="0"/>
        <pt x="1054" y="29" on="1"/>
        <pt x="900" y="218" on="1"/>
        <pt x="853" y="167" on="0"/>
        <pt x="745" y="81" on="0"/>
        <pt x="623" y="19" on="0"/>
        <pt x="489" y="-16" on="0"/>
        <pt x="418" y="-16" on="1"/>
        <pt x="347" y="-16" on="0"/>
        <pt x="223" y="29" on="0"/>
        <pt x="131" y="114" on="0"/>
        <pt x="77" y="238" on="0"/>
        <pt x="77" y="316" on="1"/>
        <pt x="77" y="398" on="0"/>
        <pt x="135" y="543" on="0"/>
        <pt x="234" y="664" on="0"/>
        <pt x="368" y="756" on="0"/>
        <pt x="445" y="786" on="1"/>
        <pt x="396" y="856" on="0"/>
        <pt x="348" y="989" on="0"/>
        <pt x="348" y="1059" on="1"/>
        <pt x="348" y="1139" on="0"/>
        <pt x="402" y="1275" on="0"/>
        <pt x="500" y="1375" on="0"/>
        <pt x="636" y="1431" on="0"/>
      </contour>
      <contour>
        <pt x="172" y="328" on="1"/>
        <pt x="172" y="262" on="0"/>
        <pt x="218" y="161" on="0"/>
        <pt x="292" y="93" on="0"/>
        <pt x="387" y="59" on="0"/>
        <pt x="437" y="59" on="1"/>
        <pt x="499" y="59" on="0"/>
        <pt x="614" y="92" on="0"/>
        <pt x="719" y="150" on="0"/>
        <pt x="813" y="230" on="0"/>
        <pt x="853" y="277" on="1"/>
        <pt x="481" y="737" on="1"/>
        <pt x="410" y="707" on="0"/>
        <pt x="296" y="621" on="0"/>
        <pt x="216" y="516" on="0"/>
        <pt x="172" y="394" on="0"/>
      </contour>
    </TTGlyph>
    <TTGlyph name="aogonek" xMin="60" yMin="-338" xMax="883" yMax="1008">
      <contour>
        <pt x="812" y="-244" on="1"/>
        <pt x="821" y="-244" on="0"/>
        <pt x="824" y="-252" on="1"/>
        <pt x="834" y="-285" on="1"/>
        <pt x="806" y="-309" on="0"/>
        <pt x="725" y="-338" on="0"/>
        <pt x="682" y="-338" on="1"/>
        <pt x="616" y="-338" on="0"/>
        <pt x="541" y="-272" on="0"/>
        <pt x="541" y="-214" on="1"/>
        <pt x="541" y="-179" on="0"/>
        <pt x="568" y="-115" on="0"/>
        <pt x="613" y="-60" on="0"/>
        <pt x="669" y="-13" on="0"/>
        <pt x="699" y="5" on="1"/>
        <pt x="691" y="10" on="0"/>
        <pt x="686" y="26" on="0"/>
        <pt x="686" y="36" on="1"/>
        <pt x="719" y="344" on="1"/>
        <pt x="681" y="264" on="0"/>
        <pt x="590" y="133" on="0"/>
        <pt x="487" y="39" on="0"/>
        <pt x="373" y="-13" on="0"/>
        <pt x="312" y="-13" on="1"/>
        <pt x="249" y="-13" on="0"/>
        <pt x="155" y="36" on="0"/>
        <pt x="92" y="126" on="0"/>
        <pt x="60" y="254" on="0"/>
        <pt x="60" y="334" on="1"/>
        <pt x="60" y="421" on="0"/>
        <pt x="104" y="588" on="0"/>
        <pt x="185" y="738" on="0"/>
        <pt x="297" y="864" on="0"/>
        <pt x="432" y="956" on="0"/>
        <pt x="586" y="1008" on="0"/>
        <pt x="668" y="1008" on="1"/>
        <pt x="728" y="1008" on="0"/>
        <pt x="832" y="987" on="0"/>
        <pt x="883" y="961" on="1"/>
        <pt x="766" y="0" on="1"/>
        <pt x="758" y="0" on="1"/>
        <pt x="737" y="-12" on="0"/>
        <pt x="686" y="-48" on="0"/>
        <pt x="643" y="-96" on="0"/>
        <pt x="613" y="-156" on="0"/>
        <pt x="613" y="-190" on="1"/>
        <pt x="613" y="-231" on="0"/>
        <pt x="664" y="-279" on="0"/>
        <pt x="706" y="-279" on="1"/>
        <pt x="732" y="-279" on="0"/>
        <pt x="768" y="-268" on="0"/>
        <pt x="793" y="-255" on="0"/>
        <pt x="807" y="-244" on="0"/>
      </contour>
      <contour>
        <pt x="343" y="66" on="1"/>
        <pt x="400" y="66" on="0"/>
        <pt x="511" y="130" on="0"/>
        <pt x="611" y="247" on="0"/>
        <pt x="700" y="412" on="0"/>
        <pt x="735" y="512" on="1"/>
        <pt x="785" y="917" on="1"/>
        <pt x="726" y="937" on="0"/>
        <pt x="657" y="937" on="1"/>
        <pt x="590" y="937" on="0"/>
        <pt x="464" y="892" on="0"/>
        <pt x="353" y="812" on="0"/>
        <pt x="260" y="702" on="0"/>
        <pt x="192" y="571" on="0"/>
        <pt x="155" y="425" on="0"/>
        <pt x="155" y="349" on="1"/>
        <pt x="155" y="215" on="0"/>
        <pt x="246" y="66" on="0"/>
      </contour>
    </TTGlyph>
    <TTGlyph name="approxequal" xMin="202" yMin="421" xMax="1002" yMax="924">
      <contour>
        <pt x="820" y="808" on="1"/>
        <pt x="845" y="808" on="0"/>
        <pt x="896" y="820" on="0"/>
        <pt x="941" y="841" on="0"/>
        <pt x="978" y="867" on="0"/>
        <pt x="990" y="881" on="1"/>
        <pt x="1002" y="825" on="1"/>
        <pt x="967" y="782" on="0"/>
        <pt x="862" y="736" on="0"/>
        <pt x="806" y="736" on="1"/>
        <pt x="755" y="736" on="0"/>
        <pt x="658" y="772" on="0"/>
        <pt x="565" y="816" on="0"/>
        <pt x="473" y="852" on="0"/>
        <pt x="427" y="852" on="1"/>
        <pt x="400" y="852" on="0"/>
        <pt x="349" y="840" on="0"/>
        <pt x="305" y="819" on="0"/>
        <pt x="268" y="792" on="0"/>
        <pt x="256" y="778" on="1"/>
        <pt x="242" y="832" on="1"/>
        <pt x="277" y="877" on="0"/>
        <pt x="381" y="924" on="0"/>
        <pt x="441" y="924" on="1"/>
        <pt x="493" y="924" on="0"/>
        <pt x="590" y="888" on="0"/>
        <pt x="683" y="844" on="0"/>
        <pt x="774" y="808" on="0"/>
      </contour>
      <contour>
        <pt x="781" y="493" on="1"/>
        <pt x="807" y="493" on="0"/>
        <pt x="857" y="505" on="0"/>
        <pt x="902" y="526" on="0"/>
        <pt x="940" y="552" on="0"/>
        <pt x="952" y="566" on="1"/>
        <pt x="963" y="510" on="1"/>
        <pt x="928" y="468" on="0"/>
        <pt x="824" y="421" on="0"/>
        <pt x="768" y="421" on="1"/>
        <pt x="716" y="421" on="0"/>
        <pt x="619" y="457" on="0"/>
        <pt x="526" y="501" on="0"/>
        <pt x="434" y="537" on="0"/>
        <pt x="387" y="537" on="1"/>
        <pt x="360" y="537" on="0"/>
        <pt x="309" y="525" on="0"/>
        <pt x="265" y="504" on="0"/>
        <pt x="229" y="478" on="0"/>
        <pt x="217" y="463" on="1"/>
        <pt x="202" y="517" on="1"/>
        <pt x="238" y="562" on="0"/>
        <pt x="342" y="610" on="0"/>
        <pt x="402" y="610" on="1"/>
        <pt x="455" y="610" on="0"/>
        <pt x="552" y="573" on="0"/>
        <pt x="645" y="530" on="0"/>
        <pt x="735" y="493" on="0"/>
      </contour>
    </TTGlyph>
    <TTGlyph name="aring" xMin="60" yMin="-13" xMax="883" yMax="1466">
      <component glyphName="a" x="0" y="0" flags="0x204"/>
      <component glyphName="ring" x="306" y="0" flags="0x4"/>
    </TTGlyph>
    <TTGlyph name="asciicircum" xMin="263" yMin="800" xMax="1004" yMax="1415">
      <contour>
        <pt x="604" y="1415" on="1"/>
        <pt x="663" y="1415" on="1"/>
        <pt x="1004" y="800" on="1"/>
        <pt x="937" y="800" on="1"/>
        <pt x="926" y="800" on="0"/>
        <pt x="908" y="813" on="0"/>
        <pt x="903" y="823" on="1"/>
        <pt x="662" y="1259" on="1"/>
        <pt x="644" y="1290" on="0"/>
        <pt x="634" y="1321" on="1"/>
        <pt x="629" y="1305" on="0"/>
        <pt x="616" y="1275" on="0"/>
        <pt x="608" y="1259" on="1"/>
        <pt x="368" y="823" on="1"/>
        <pt x="363" y="815" on="0"/>
        <pt x="347" y="800" on="0"/>
        <pt x="333" y="800" on="1"/>
        <pt x="263" y="800" on="1"/>
      </contour>
    </TTGlyph>
    <TTGlyph name="asciitilde" xMin="80" yMin="434" xMax="960" yMax="747">
      <contour>
        <pt x="719" y="567" on="1"/>
        <pt x="756" y="567" on="0"/>
        <pt x="817" y="594" on="0"/>
        <pt x="859" y="642" on="0"/>
        <pt x="882" y="708" on="0"/>
        <pt x="882" y="747" on="1"/>
        <pt x="960" y="747" on="1"/>
        <pt x="960" y="692" on="0"/>
        <pt x="928" y="598" on="0"/>
        <pt x="868" y="528" on="0"/>
        <pt x="780" y="488" on="0"/>
        <pt x="724" y="488" on="1"/>
        <pt x="673" y="488" on="0"/>
        <pt x="566" y="527" on="0"/>
        <pt x="461" y="575" on="0"/>
        <pt x="363" y="614" on="0"/>
        <pt x="320" y="614" on="1"/>
        <pt x="282" y="614" on="0"/>
        <pt x="223" y="587" on="0"/>
        <pt x="181" y="539" on="0"/>
        <pt x="158" y="473" on="0"/>
        <pt x="157" y="434" on="1"/>
        <pt x="80" y="434" on="1"/>
        <pt x="80" y="489" on="0"/>
        <pt x="112" y="583" on="0"/>
        <pt x="172" y="653" on="0"/>
        <pt x="259" y="693" on="0"/>
        <pt x="315" y="693" on="1"/>
        <pt x="367" y="693" on="0"/>
        <pt x="474" y="654" on="0"/>
        <pt x="578" y="606" on="0"/>
        <pt x="676" y="567" on="0"/>
      </contour>
    </TTGlyph>
    <TTGlyph name="asterisk" xMin="168" yMin="898" xMax="707" yMax="1493">
      <contour>
        <pt x="376" y="898" on="1"/>
        <pt x="403" y="1112" on="1"/>
        <pt x="405" y="1129" on="0"/>
        <pt x="413" y="1155" on="0"/>
        <pt x="422" y="1171" on="1"/>
        <pt x="411" y="1157" on="0"/>
        <pt x="386" y="1140" on="0"/>
        <pt x="373" y="1132" on="1"/>
        <pt x="188" y="1022" on="1"/>
        <pt x="168" y="1065" on="1"/>
        <pt x="354" y="1175" on="1"/>
        <pt x="368" y="1184" on="0"/>
        <pt x="395" y="1192" on="0"/>
        <pt x="414" y="1195" on="1"/>
        <pt x="395" y="1198" on="0"/>
        <pt x="372" y="1206" on="0"/>
        <pt x="359" y="1215" on="1"/>
        <pt x="199" y="1325" on="1"/>
        <pt x="229" y="1369" on="1"/>
        <pt x="389" y="1259" on="1"/>
        <pt x="403" y="1250" on="0"/>
        <pt x="419" y="1230" on="0"/>
        <pt x="430" y="1212" on="1"/>
        <pt x="426" y="1226" on="0"/>
        <pt x="422" y="1248" on="0"/>
        <pt x="422" y="1260" on="1"/>
        <pt x="422" y="1265" on="0"/>
        <pt x="422" y="1273" on="0"/>
        <pt x="423" y="1278" on="1"/>
        <pt x="449" y="1493" on="1"/>
        <pt x="499" y="1493" on="1"/>
        <pt x="473" y="1279" on="1"/>
        <pt x="471" y="1261" on="0"/>
        <pt x="462" y="1233" on="0"/>
        <pt x="452" y="1215" on="1"/>
        <pt x="465" y="1232" on="0"/>
        <pt x="488" y="1250" on="0"/>
        <pt x="504" y="1259" on="1"/>
        <pt x="689" y="1369" on="1"/>
        <pt x="707" y="1325" on="1"/>
        <pt x="522" y="1215" on="1"/>
        <pt x="507" y="1206" on="0"/>
        <pt x="480" y="1196" on="0"/>
        <pt x="462" y="1194" on="1"/>
        <pt x="480" y="1192" on="0"/>
        <pt x="503" y="1184" on="0"/>
        <pt x="517" y="1175" on="1"/>
        <pt x="677" y="1065" on="1"/>
        <pt x="648" y="1022" on="1"/>
        <pt x="488" y="1132" on="1"/>
        <pt x="475" y="1141" on="0"/>
        <pt x="458" y="1155" on="0"/>
        <pt x="448" y="1171" on="1"/>
        <pt x="451" y="1158" on="0"/>
        <pt x="454" y="1139" on="0"/>
        <pt x="454" y="1128" on="1"/>
        <pt x="454" y="1124" on="0"/>
        <pt x="454" y="1117" on="0"/>
        <pt x="453" y="1112" on="1"/>
        <pt x="426" y="898" on="1"/>
      </contour>
    </TTGlyph>
    <TTGlyph name="at" xMin="97" yMin="-238" xMax="1440" yMax="1330">
      <contour>
        <pt x="1032" y="188" on="1"/>
        <pt x="959" y="188" on="0"/>
        <pt x="888" y="266" on="0"/>
        <pt x="888" y="338" on="1"/>
        <pt x="888" y="345" on="0"/>
        <pt x="888" y="359" on="0"/>
        <pt x="889" y="367" on="1"/>
        <pt x="826" y="275" on="0"/>
        <pt x="686" y="192" on="0"/>
        <pt x="610" y="192" on="1"/>
        <pt x="565" y="192" on="0"/>
        <pt x="499" y="224" on="0"/>
        <pt x="457" y="281" on="0"/>
        <pt x="436" y="357" on="0"/>
        <pt x="436" y="401" on="1"/>
        <pt x="436" y="460" on="0"/>
        <pt x="469" y="584" on="0"/>
        <pt x="531" y="700" on="0"/>
        <pt x="621" y="802" on="0"/>
        <pt x="734" y="878" on="0"/>
        <pt x="870" y="922" on="0"/>
        <pt x="948" y="922" on="1"/>
        <pt x="997" y="922" on="0"/>
        <pt x="1081" y="905" on="0"/>
        <pt x="1114" y="888" on="1"/>
        <pt x="987" y="541" on="1"/>
        <pt x="964" y="480" on="0"/>
        <pt x="945" y="390" on="0"/>
        <pt x="945" y="358" on="1"/>
        <pt x="945" y="325" on="0"/>
        <pt x="963" y="283" on="0"/>
        <pt x="992" y="259" on="0"/>
        <pt x="1031" y="250" on="0"/>
        <pt x="1052" y="250" on="1"/>
        <pt x="1111" y="250" on="0"/>
        <pt x="1226" y="323" on="0"/>
        <pt x="1316" y="458" on="0"/>
        <pt x="1371" y="649" on="0"/>
        <pt x="1371" y="767" on="1"/>
        <pt x="1371" y="891" on="0"/>
        <pt x="1295" y="1079" on="0"/>
        <pt x="1163" y="1203" on="0"/>
        <pt x="983" y="1266" on="0"/>
        <pt x="880" y="1266" on="1"/>
        <pt x="788" y="1266" on="0"/>
        <pt x="611" y="1211" on="0"/>
        <pt x="452" y="1109" on="0"/>
        <pt x="319" y="963" on="0"/>
        <pt x="222" y="779" on="0"/>
        <pt x="167" y="562" on="0"/>
        <pt x="167" y="440" on="1"/>
        <pt x="167" y="292" on="0"/>
        <pt x="253" y="64" on="0"/>
        <pt x="406" y="-92" on="0"/>
        <pt x="613" y="-172" on="0"/>
        <pt x="735" y="-172" on="1"/>
        <pt x="872" y="-172" on="0"/>
        <pt x="1105" y="-104" on="0"/>
        <pt x="1200" y="-42" on="1"/>
        <pt x="1211" y="-35" on="0"/>
        <pt x="1220" y="-35" on="1"/>
        <pt x="1238" y="-35" on="0"/>
        <pt x="1241" y="-53" on="1"/>
        <pt x="1248" y="-84" on="1"/>
        <pt x="1137" y="-158" on="0"/>
        <pt x="880" y="-238" on="0"/>
        <pt x="728" y="-238" on="1"/>
        <pt x="590" y="-238" on="0"/>
        <pt x="358" y="-147" on="0"/>
        <pt x="191" y="26" on="0"/>
        <pt x="97" y="275" on="0"/>
        <pt x="97" y="434" on="1"/>
        <pt x="97" y="563" on="0"/>
        <pt x="157" y="796" on="0"/>
        <pt x="263" y="995" on="0"/>
        <pt x="410" y="1156" on="0"/>
        <pt x="586" y="1269" on="0"/>
        <pt x="783" y="1330" on="0"/>
        <pt x="887" y="1330" on="1"/>
        <pt x="999" y="1330" on="0"/>
        <pt x="1200" y="1257" on="0"/>
        <pt x="1352" y="1114" on="0"/>
        <pt x="1440" y="904" on="0"/>
        <pt x="1440" y="767" on="1"/>
        <pt x="1440" y="638" on="0"/>
        <pt x="1372" y="425" on="0"/>
        <pt x="1259" y="272" on="0"/>
        <pt x="1112" y="188" on="0"/>
      </contour>
      <contour>
        <pt x="637" y="256" on="1"/>
        <pt x="670" y="256" on="0"/>
        <pt x="742" y="280" on="0"/>
        <pt x="814" y="343" on="0"/>
        <pt x="884" y="451" on="0"/>
        <pt x="914" y="535" on="1"/>
        <pt x="1026" y="846" on="1"/>
        <pt x="1004" y="853" on="0"/>
        <pt x="958" y="860" on="0"/>
        <pt x="928" y="860" on="1"/>
        <pt x="869" y="860" on="0"/>
        <pt x="761" y="823" on="0"/>
        <pt x="669" y="758" on="0"/>
        <pt x="594" y="670" on="0"/>
        <pt x="541" y="571" on="0"/>
        <pt x="512" y="464" on="0"/>
        <pt x="512" y="412" on="1"/>
        <pt x="512" y="379" on="0"/>
        <pt x="527" y="322" on="0"/>
        <pt x="558" y="280" on="0"/>
        <pt x="605" y="256" on="0"/>
      </contour>
    </TTGlyph>
    <TTGlyph name="atilde" xMin="60" yMin="-13" xMax="908" yMax="1384">
      <component glyphName="a" x="0" y="0" flags="0x204"/>
      <component glyphName="tilde" x="286" y="0" flags="0x4"/>
    </TTGlyph>
    <TTGlyph name="b" xMin="102" yMin="-13" xMax="955" yMax="1455">
      <contour>
        <pt x="102" y="0" on="1"/>
        <pt x="278" y="1455" on="1"/>
        <pt x="371" y="1455" on="1"/>
        <pt x="274" y="659" on="1"/>
        <pt x="313" y="738" on="0"/>
        <pt x="409" y="867" on="0"/>
        <pt x="515" y="959" on="0"/>
        <pt x="632" y="1010" on="0"/>
        <pt x="692" y="1010" on="1"/>
        <pt x="757" y="1010" on="0"/>
        <pt x="855" y="960" on="0"/>
        <pt x="921" y="869" on="0"/>
        <pt x="955" y="739" on="0"/>
        <pt x="955" y="659" on="1"/>
        <pt x="955" y="582" on="0"/>
        <pt x="923" y="423" on="0"/>
        <pt x="864" y="274" on="0"/>
        <pt x="779" y="142" on="0"/>
        <pt x="671" y="44" on="0"/>
        <pt x="542" y="-13" on="0"/>
        <pt x="470" y="-13" on="1"/>
        <pt x="385" y="-13" on="0"/>
        <pt x="245" y="64" on="0"/>
        <pt x="203" y="140" on="1"/>
        <pt x="184" y="32" on="1"/>
        <pt x="181" y="15" on="0"/>
        <pt x="167" y="0" on="0"/>
        <pt x="149" y="0" on="1"/>
      </contour>
      <contour>
        <pt x="661" y="933" on="1"/>
        <pt x="604" y="933" on="0"/>
        <pt x="489" y="869" on="0"/>
        <pt x="382" y="753" on="0"/>
        <pt x="289" y="589" on="0"/>
        <pt x="253" y="489" on="1"/>
        <pt x="218" y="205" on="1"/>
        <pt x="239" y="166" on="0"/>
        <pt x="294" y="111" on="0"/>
        <pt x="357" y="77" on="0"/>
        <pt x="424" y="62" on="0"/>
        <pt x="459" y="62" on="1"/>
        <pt x="522" y="62" on="0"/>
        <pt x="631" y="113" on="0"/>
        <pt x="720" y="201" on="0"/>
        <pt x="789" y="318" on="0"/>
        <pt x="836" y="448" on="0"/>
        <pt x="861" y="585" on="0"/>
        <pt x="861" y="650" on="1"/>
        <pt x="861" y="784" on="0"/>
        <pt x="759" y="933" on="0"/>
      </contour>
    </TTGlyph>
    <TTGlyph name="backslash" xMin="113" yMin="-84" xMax="584" yMax="1445">
      <contour>
        <pt x="113" y="1445" on="1"/>
        <pt x="152" y="1445" on="1"/>
        <pt x="191" y="1445" on="0"/>
        <pt x="200" y="1409" on="1"/>
        <pt x="584" y="-84" on="1"/>
        <pt x="547" y="-84" on="1"/>
        <pt x="530" y="-84" on="0"/>
        <pt x="501" y="-66" on="0"/>
        <pt x="496" y="-47" on="1"/>
      </contour>
    </TTGlyph>
    <TTGlyph name="bar" xMin="202" yMin="-352" xMax="277" yMax="1517">
      <contour>
        <pt x="202" y="1517" on="1"/>
        <pt x="277" y="1517" on="1"/>
        <pt x="277" y="-352" on="1"/>
        <pt x="202" y="-352" on="1"/>
      </contour>
    </TTGlyph>
    <TTGlyph name="braceleft" xMin="71" yMin="-263" xMax="582" yMax="1516">
      <contour>
        <pt x="196" y="467" on="1"/>
        <pt x="196" y="524" on="0"/>
        <pt x="128" y="597" on="0"/>
        <pt x="71" y="597" on="1"/>
        <pt x="78" y="656" on="1"/>
        <pt x="152" y="656" on="0"/>
        <pt x="244" y="772" on="0"/>
        <pt x="244" y="891" on="1"/>
        <pt x="244" y="951" on="0"/>
        <pt x="230" y="1090" on="0"/>
        <pt x="230" y="1150" on="1"/>
        <pt x="230" y="1235" on="0"/>
        <pt x="273" y="1370" on="0"/>
        <pt x="351" y="1465" on="0"/>
        <pt x="462" y="1516" on="0"/>
        <pt x="531" y="1516" on="1"/>
        <pt x="582" y="1516" on="1"/>
        <pt x="578" y="1476" on="1"/>
        <pt x="576" y="1465" on="0"/>
        <pt x="558" y="1454" on="0"/>
        <pt x="550" y="1454" on="1"/>
        <pt x="521" y="1454" on="1"/>
        <pt x="463" y="1454" on="0"/>
        <pt x="383" y="1403" on="0"/>
        <pt x="334" y="1317" on="0"/>
        <pt x="313" y="1207" on="0"/>
        <pt x="313" y="1149" on="1"/>
        <pt x="313" y="1083" on="0"/>
        <pt x="322" y="951" on="0"/>
        <pt x="322" y="889" on="1"/>
        <pt x="322" y="844" on="0"/>
        <pt x="306" y="760" on="0"/>
        <pt x="267" y="690" on="0"/>
        <pt x="204" y="639" on="0"/>
        <pt x="158" y="626" on="1"/>
        <pt x="182" y="620" on="0"/>
        <pt x="224" y="593" on="0"/>
        <pt x="255" y="552" on="0"/>
        <pt x="274" y="499" on="0"/>
        <pt x="274" y="467" on="1"/>
        <pt x="274" y="406" on="0"/>
        <pt x="240" y="288" on="0"/>
        <pt x="199" y="169" on="0"/>
        <pt x="165" y="46" on="0"/>
        <pt x="165" y="-19" on="1"/>
        <pt x="165" y="-60" on="0"/>
        <pt x="187" y="-126" on="0"/>
        <pt x="226" y="-174" on="0"/>
        <pt x="282" y="-200" on="0"/>
        <pt x="317" y="-200" on="1"/>
        <pt x="348" y="-200" on="1"/>
        <pt x="355" y="-200" on="0"/>
        <pt x="369" y="-210" on="0"/>
        <pt x="369" y="-220" on="1"/>
        <pt x="369" y="-220" on="0"/>
        <pt x="369" y="-222" on="0"/>
        <pt x="368" y="-231" on="0"/>
        <pt x="366" y="-248" on="0"/>
        <pt x="364" y="-263" on="1"/>
        <pt x="313" y="-263" on="1"/>
        <pt x="257" y="-263" on="0"/>
        <pt x="172" y="-226" on="0"/>
        <pt x="114" y="-160" on="0"/>
        <pt x="84" y="-71" on="0"/>
        <pt x="84" y="-19" on="1"/>
        <pt x="84" y="49" on="0"/>
        <pt x="119" y="172" on="0"/>
        <pt x="161" y="289" on="0"/>
        <pt x="196" y="405" on="0"/>
      </contour>
    </TTGlyph>
    <TTGlyph name="braceright" xMin="3" yMin="-263" xMax="514" yMax="1516">
      <contour>
        <pt x="389" y="786" on="1"/>
        <pt x="389" y="729" on="0"/>
        <pt x="457" y="656" on="0"/>
        <pt x="514" y="656" on="1"/>
        <pt x="507" y="597" on="1"/>
        <pt x="433" y="597" on="0"/>
        <pt x="341" y="481" on="0"/>
        <pt x="341" y="362" on="1"/>
        <pt x="341" y="302" on="0"/>
        <pt x="355" y="163" on="0"/>
        <pt x="355" y="103" on="1"/>
        <pt x="355" y="18" on="0"/>
        <pt x="312" y="-117" on="0"/>
        <pt x="234" y="-212" on="0"/>
        <pt x="123" y="-263" on="0"/>
        <pt x="54" y="-263" on="1"/>
        <pt x="3" y="-263" on="1"/>
        <pt x="7" y="-223" on="1"/>
        <pt x="9" y="-212" on="0"/>
        <pt x="27" y="-201" on="0"/>
        <pt x="35" y="-201" on="1"/>
        <pt x="64" y="-201" on="1"/>
        <pt x="122" y="-201" on="0"/>
        <pt x="202" y="-150" on="0"/>
        <pt x="251" y="-64" on="0"/>
        <pt x="272" y="45" on="0"/>
        <pt x="272" y="104" on="1"/>
        <pt x="272" y="170" on="0"/>
        <pt x="263" y="302" on="0"/>
        <pt x="263" y="364" on="1"/>
        <pt x="263" y="409" on="0"/>
        <pt x="279" y="493" on="0"/>
        <pt x="318" y="563" on="0"/>
        <pt x="380" y="614" on="0"/>
        <pt x="427" y="627" on="1"/>
        <pt x="403" y="633" on="0"/>
        <pt x="361" y="660" on="0"/>
        <pt x="330" y="700" on="0"/>
        <pt x="311" y="754" on="0"/>
        <pt x="311" y="786" on="1"/>
        <pt x="311" y="847" on="0"/>
        <pt x="345" y="965" on="0"/>
        <pt x="386" y="1084" on="0"/>
        <pt x="420" y="1207" on="0"/>
        <pt x="420" y="1272" on="1"/>
        <pt x="420" y="1312" on="0"/>
        <pt x="398" y="1379" on="0"/>
        <pt x="359" y="1427" on="0"/>
        <pt x="302" y="1453" on="0"/>
        <pt x="268" y="1453" on="1"/>
        <pt x="237" y="1453" on="1"/>
        <pt x="230" y="1453" on="0"/>
        <pt x="216" y="1463" on="0"/>
        <pt x="216" y="1473" on="1"/>
        <pt x="216" y="1473" on="0"/>
        <pt x="216" y="1475" on="0"/>
        <pt x="217" y="1484" on="0"/>
        <pt x="219" y="1501" on="0"/>
        <pt x="221" y="1516" on="1"/>
        <pt x="272" y="1516" on="1"/>
        <pt x="327" y="1516" on="0"/>
        <pt x="413" y="1479" on="0"/>
        <pt x="471" y="1413" on="0"/>
        <pt x="501" y="1324" on="0"/>
        <pt x="501" y="1272" on="1"/>
        <pt x="501" y="1204" on="0"/>
        <pt x="466" y="1081" on="0"/>
        <pt x="424" y="964" on="0"/>
        <pt x="389" y="848" on="0"/>
      </contour>
    </TTGlyph>
    <TTGlyph name="bracketleft" xMin="68" yMin="-263" xMax="580" yMax="1516">
      <contour>
        <pt x="68" y="-263" on="1"/>
        <pt x="286" y="1516" on="1"/>
        <pt x="580" y="1516" on="1"/>
        <pt x="576" y="1481" on="1"/>
        <pt x="574" y="1469" on="0"/>
        <pt x="557" y="1454" on="0"/>
        <pt x="544" y="1454" on="1"/>
        <pt x="357" y="1454" on="1"/>
        <pt x="153" y="-200" on="1"/>
        <pt x="341" y="-200" on="1"/>
        <pt x="353" y="-200" on="0"/>
        <pt x="367" y="-213" on="0"/>
        <pt x="367" y="-224" on="1"/>
        <pt x="367" y="-225" on="0"/>
        <pt x="366" y="-236" on="0"/>
        <pt x="362" y="-263" on="1"/>
      </contour>
    </TTGlyph>
    <TTGlyph name="bracketright" xMin="5" yMin="-263" xMax="519" yMax="1516">
      <contour>
        <pt x="223" y="1516" on="1"/>
        <pt x="519" y="1516" on="1"/>
        <pt x="300" y="-263" on="1"/>
        <pt x="5" y="-263" on="1"/>
        <pt x="9" y="-228" on="1"/>
        <pt x="11" y="-216" on="0"/>
        <pt x="28" y="-200" on="0"/>
        <pt x="42" y="-200" on="1"/>
        <pt x="229" y="-200" on="1"/>
        <pt x="432" y="1454" on="1"/>
        <pt x="245" y="1454" on="1"/>
        <pt x="219" y="1454" on="0"/>
        <pt x="219" y="1477" on="1"/>
      </contour>
    </TTGlyph>
    <TTGlyph name="breve" xMin="162" yMin="1168" xMax="609" yMax="1415">
      <contour>
        <pt x="357" y="1168" on="1"/>
        <pt x="304" y="1168" on="0"/>
        <pt x="229" y="1198" on="0"/>
        <pt x="183" y="1251" on="0"/>
        <pt x="162" y="1323" on="0"/>
        <pt x="162" y="1365" on="1"/>
        <pt x="162" y="1389" on="0"/>
        <pt x="165" y="1415" on="1"/>
        <pt x="232" y="1415" on="1"/>
        <pt x="229" y="1392" on="0"/>
        <pt x="229" y="1372" on="1"/>
        <pt x="229" y="1342" on="0"/>
        <pt x="243" y="1290" on="0"/>
        <pt x="275" y="1253" on="0"/>
        <pt x="326" y="1231" on="0"/>
        <pt x="364" y="1231" on="1"/>
        <pt x="408" y="1231" on="0"/>
        <pt x="471" y="1260" on="0"/>
        <pt x="514" y="1311" on="0"/>
        <pt x="537" y="1377" on="0"/>
        <pt x="542" y="1415" on="1"/>
        <pt x="609" y="1415" on="1"/>
        <pt x="603" y="1365" on="0"/>
        <pt x="568" y="1275" on="0"/>
        <pt x="507" y="1207" on="0"/>
        <pt x="418" y="1168" on="0"/>
      </contour>
    </TTGlyph>
    <TTGlyph name="breve.case" xMin="194" yMin="1528" xMax="647" yMax="1741">
      <contour>
        <pt x="396" y="1528" on="1"/>
        <pt x="293" y="1528" on="0"/>
        <pt x="194" y="1616" on="0"/>
        <pt x="194" y="1700" on="1"/>
        <pt x="194" y="1720" on="0"/>
        <pt x="197" y="1741" on="1"/>
        <pt x="259" y="1741" on="1"/>
        <pt x="258" y="1733" on="0"/>
        <pt x="257" y="1718" on="0"/>
        <pt x="257" y="1710" on="1"/>
        <pt x="257" y="1653" on="0"/>
        <pt x="325" y="1588" on="0"/>
        <pt x="403" y="1588" on="1"/>
        <pt x="491" y="1588" on="0"/>
        <pt x="576" y="1669" on="0"/>
        <pt x="584" y="1741" on="1"/>
        <pt x="647" y="1741" on="1"/>
        <pt x="634" y="1642" on="0"/>
        <pt x="511" y="1528" on="0"/>
      </contour>
    </TTGlyph>
    <TTGlyph name="brokenbar" xMin="202" yMin="-352" xMax="277" yMax="1517">
      <contour>
        <pt x="202" y="1517" on="1"/>
        <pt x="277" y="1517" on="1"/>
        <pt x="277" y="739" on="1"/>
        <pt x="202" y="739" on="1"/>
      </contour>
      <contour>
        <pt x="202" y="425" on="1"/>
        <pt x="277" y="425" on="1"/>
        <pt x="277" y="-352" on="1"/>
        <pt x="202" y="-352" on="1"/>
      </contour>
    </TTGlyph>
    <TTGlyph name="bullet" xMin="313" yMin="305" xMax="899" yMax="892">
      <contour>
        <pt x="313" y="596" on="1"/>
        <pt x="313" y="657" on="0"/>
        <pt x="359" y="765" on="0"/>
        <pt x="439" y="846" on="0"/>
        <pt x="544" y="892" on="0"/>
        <pt x="604" y="892" on="1"/>
        <pt x="665" y="892" on="0"/>
        <pt x="773" y="846" on="0"/>
        <pt x="853" y="765" on="0"/>
        <pt x="899" y="657" on="0"/>
        <pt x="899" y="596" on="1"/>
        <pt x="899" y="536" on="0"/>
        <pt x="853" y="431" on="0"/>
        <pt x="773" y="351" on="0"/>
        <pt x="665" y="305" on="0"/>
        <pt x="604" y="305" on="1"/>
        <pt x="544" y="305" on="0"/>
        <pt x="439" y="351" on="0"/>
        <pt x="359" y="431" on="0"/>
        <pt x="313" y="536" on="0"/>
      </contour>
    </TTGlyph>
    <TTGlyph name="c" xMin="72" yMin="-13" xMax="838" yMax="1011">
      <contour>
        <pt x="797" y="182" on="1"/>
        <pt x="744" y="123" on="0"/>
        <pt x="649" y="47" on="0"/>
        <pt x="558" y="3" on="0"/>
        <pt x="464" y="-13" on="0"/>
        <pt x="411" y="-13" on="1"/>
        <pt x="325" y="-13" on="0"/>
        <pt x="198" y="46" on="0"/>
        <pt x="114" y="152" on="0"/>
        <pt x="72" y="298" on="0"/>
        <pt x="72" y="384" on="1"/>
        <pt x="72" y="463" on="0"/>
        <pt x="105" y="618" on="0"/>
        <pt x="167" y="758" on="0"/>
        <pt x="255" y="876" on="0"/>
        <pt x="365" y="962" on="0"/>
        <pt x="494" y="1011" on="0"/>
        <pt x="567" y="1011" on="1"/>
        <pt x="616" y="1011" on="0"/>
        <pt x="695" y="992" on="0"/>
        <pt x="761" y="957" on="0"/>
        <pt x="815" y="907" on="0"/>
        <pt x="838" y="876" on="1"/>
        <pt x="810" y="843" on="1"/>
        <pt x="801" y="832" on="0"/>
        <pt x="789" y="832" on="1"/>
        <pt x="779" y="832" on="0"/>
        <pt x="750" y="864" on="0"/>
        <pt x="701" y="901" on="0"/>
        <pt x="623" y="933" on="0"/>
        <pt x="564" y="933" on="1"/>
        <pt x="480" y="933" on="0"/>
        <pt x="335" y="843" on="0"/>
        <pt x="228" y="691" on="0"/>
        <pt x="167" y="492" on="0"/>
        <pt x="167" y="384" on="1"/>
        <pt x="167" y="315" on="0"/>
        <pt x="198" y="197" on="0"/>
        <pt x="263" y="111" on="0"/>
        <pt x="361" y="63" on="0"/>
        <pt x="428" y="63" on="1"/>
        <pt x="481" y="63" on="0"/>
        <pt x="565" y="86" on="0"/>
        <pt x="630" y="120" on="0"/>
        <pt x="679" y="161" on="0"/>
        <pt x="717" y="195" on="0"/>
        <pt x="744" y="218" on="0"/>
        <pt x="755" y="218" on="1"/>
        <pt x="766" y="218" on="0"/>
        <pt x="776" y="208" on="1"/>
        <pt x="797" y="182" on="1"/>
      </contour>
    </TTGlyph>
    <TTGlyph name="cacute" xMin="72" yMin="-13" xMax="838" yMax="1433">
      <component glyphName="c" x="0" y="0" flags="0x204"/>
      <component glyphName="acute" x="218" y="2" flags="0x4"/>
    </TTGlyph>
    <TTGlyph name="caron" xMin="141" yMin="1169" xMax="626" yMax="1415">
      <contour>
        <pt x="141" y="1415" on="1"/>
        <pt x="206" y="1415" on="1"/>
        <pt x="214" y="1415" on="0"/>
        <pt x="226" y="1408" on="0"/>
        <pt x="230" y="1404" on="1"/>
        <pt x="353" y="1239" on="1"/>
        <pt x="361" y="1227" on="1"/>
        <pt x="373" y="1239" on="1"/>
        <pt x="536" y="1404" on="1"/>
        <pt x="547" y="1415" on="0"/>
        <pt x="563" y="1415" on="1"/>
        <pt x="626" y="1415" on="1"/>
        <pt x="395" y="1169" on="1"/>
        <pt x="312" y="1169" on="1"/>
      </contour>
    </TTGlyph>
    <TTGlyph name="caron.case" xMin="159" yMin="1542" xMax="679" yMax="1741">
      <contour>
        <pt x="159" y="1741" on="1"/>
        <pt x="230" y="1741" on="1"/>
        <pt x="237" y="1741" on="0"/>
        <pt x="254" y="1736" on="0"/>
        <pt x="259" y="1731" on="1"/>
        <pt x="393" y="1600" on="1"/>
        <pt x="395" y="1598" on="0"/>
        <pt x="399" y="1594" on="0"/>
        <pt x="400" y="1592" on="1"/>
        <pt x="403" y="1597" on="0"/>
        <pt x="408" y="1600" on="1"/>
        <pt x="575" y="1731" on="1"/>
        <pt x="582" y="1736" on="0"/>
        <pt x="600" y="1741" on="0"/>
        <pt x="608" y="1741" on="1"/>
        <pt x="679" y="1741" on="1"/>
        <pt x="438" y="1542" on="1"/>
        <pt x="351" y="1542" on="1"/>
      </contour>
    </TTGlyph>
    <TTGlyph name="caron.salt" xMin="277" yMin="1156" xMax="440" yMax="1457">
      <contour>
        <pt x="420" y="1457" on="1"/>
        <pt x="440" y="1457" on="0"/>
        <pt x="440" y="1436" on="1"/>
        <pt x="440" y="1426" on="0"/>
        <pt x="431" y="1393" on="0"/>
        <pt x="410" y="1334" on="0"/>
        <pt x="374" y="1246" on="0"/>
        <pt x="347" y="1180" on="1"/>
        <pt x="340" y="1166" on="0"/>
        <pt x="323" y="1156" on="0"/>
        <pt x="308" y="1156" on="1"/>
        <pt x="277" y="1156" on="1"/>
        <pt x="362" y="1457" on="1"/>
      </contour>
    </TTGlyph>
    <TTGlyph name="ccedilla" xMin="72" yMin="-355" xMax="838" yMax="1011">
      <contour>
        <pt x="272" y="-274" on="1"/>
        <pt x="277" y="-274" on="0"/>
        <pt x="292" y="-285" on="0"/>
        <pt x="315" y="-298" on="0"/>
        <pt x="350" y="-309" on="0"/>
        <pt x="376" y="-309" on="1"/>
        <pt x="427" y="-309" on="0"/>
        <pt x="485" y="-259" on="0"/>
        <pt x="485" y="-217" on="1"/>
        <pt x="485" y="-195" on="0"/>
        <pt x="463" y="-165" on="0"/>
        <pt x="423" y="-145" on="0"/>
        <pt x="367" y="-134" on="0"/>
        <pt x="333" y="-129" on="1"/>
        <pt x="382" y="-12" on="1"/>
        <pt x="303" y="-7" on="0"/>
        <pt x="187" y="56" on="0"/>
        <pt x="110" y="161" on="0"/>
        <pt x="72" y="301" on="0"/>
        <pt x="72" y="384" on="1"/>
        <pt x="72" y="463" on="0"/>
        <pt x="105" y="618" on="0"/>
        <pt x="167" y="758" on="0"/>
        <pt x="255" y="876" on="0"/>
        <pt x="365" y="962" on="0"/>
        <pt x="494" y="1011" on="0"/>
        <pt x="567" y="1011" on="1"/>
        <pt x="616" y="1011" on="0"/>
        <pt x="695" y="992" on="0"/>
        <pt x="761" y="957" on="0"/>
        <pt x="815" y="907" on="0"/>
        <pt x="838" y="876" on="1"/>
        <pt x="810" y="843" on="1"/>
        <pt x="801" y="832" on="0"/>
        <pt x="789" y="832" on="1"/>
        <pt x="779" y="832" on="0"/>
        <pt x="750" y="864" on="0"/>
        <pt x="701" y="901" on="0"/>
        <pt x="623" y="933" on="0"/>
        <pt x="564" y="933" on="1"/>
        <pt x="480" y="933" on="0"/>
        <pt x="335" y="843" on="0"/>
        <pt x="228" y="691" on="0"/>
        <pt x="167" y="492" on="0"/>
        <pt x="167" y="384" on="1"/>
        <pt x="167" y="315" on="0"/>
        <pt x="198" y="197" on="0"/>
        <pt x="263" y="111" on="0"/>
        <pt x="361" y="63" on="0"/>
        <pt x="428" y="63" on="1"/>
        <pt x="481" y="63" on="0"/>
        <pt x="565" y="86" on="0"/>
        <pt x="630" y="120" on="0"/>
        <pt x="679" y="161" on="0"/>
        <pt x="717" y="195" on="0"/>
        <pt x="744" y="218" on="0"/>
        <pt x="755" y="218" on="1"/>
        <pt x="768" y="218" on="0"/>
        <pt x="776" y="208" on="1"/>
        <pt x="797" y="182" on="1"/>
        <pt x="747" y="127" on="0"/>
        <pt x="659" y="54" on="0"/>
        <pt x="573" y="10" on="0"/>
        <pt x="487" y="-10" on="0"/>
        <pt x="440" y="-12" on="1"/>
        <pt x="408" y="-92" on="1"/>
        <pt x="482" y="-106" on="0"/>
        <pt x="560" y="-161" on="0"/>
        <pt x="560" y="-212" on="1"/>
        <pt x="560" y="-245" on="0"/>
        <pt x="531" y="-298" on="0"/>
        <pt x="481" y="-335" on="0"/>
        <pt x="412" y="-355" on="0"/>
        <pt x="372" y="-355" on="1"/>
        <pt x="334" y="-355" on="0"/>
        <pt x="266" y="-332" on="0"/>
        <pt x="243" y="-312" on="1"/>
        <pt x="256" y="-285" on="1"/>
        <pt x="264" y="-274" on="0"/>
      </contour>
    </TTGlyph>
    <TTGlyph name="cedilla" xMin="23" yMin="-355" xMax="340" yMax="5">
      <contour>
        <pt x="52" y="-274" on="1"/>
        <pt x="57" y="-274" on="0"/>
        <pt x="72" y="-285" on="0"/>
        <pt x="95" y="-298" on="0"/>
        <pt x="130" y="-309" on="0"/>
        <pt x="156" y="-309" on="1"/>
        <pt x="207" y="-309" on="0"/>
        <pt x="265" y="-259" on="0"/>
        <pt x="265" y="-217" on="1"/>
        <pt x="265" y="-195" on="0"/>
        <pt x="243" y="-165" on="0"/>
        <pt x="203" y="-145" on="0"/>
        <pt x="147" y="-134" on="0"/>
        <pt x="113" y="-129" on="1"/>
        <pt x="169" y="5" on="1"/>
        <pt x="227" y="5" on="1"/>
        <pt x="188" y="-92" on="1"/>
        <pt x="262" y="-106" on="0"/>
        <pt x="340" y="-161" on="0"/>
        <pt x="340" y="-212" on="1"/>
        <pt x="340" y="-245" on="0"/>
        <pt x="311" y="-298" on="0"/>
        <pt x="261" y="-335" on="0"/>
        <pt x="192" y="-355" on="0"/>
        <pt x="152" y="-355" on="1"/>
        <pt x="114" y="-355" on="0"/>
        <pt x="46" y="-332" on="0"/>
        <pt x="23" y="-312" on="1"/>
        <pt x="36" y="-285" on="1"/>
        <pt x="44" y="-274" on="0"/>
      </contour>
    </TTGlyph>
    <TTGlyph name="cent" xMin="155" yMin="-253" xMax="1028" yMax="1248">
      <contour>
        <pt x="529" y="-12" on="1"/>
        <pt x="443" y="-6" on="0"/>
        <pt x="305" y="58" on="0"/>
        <pt x="207" y="169" on="0"/>
        <pt x="155" y="324" on="0"/>
        <pt x="155" y="420" on="1"/>
        <pt x="155" y="549" on="0"/>
        <pt x="231" y="764" on="0"/>
        <pt x="373" y="920" on="0"/>
        <pt x="576" y="1008" on="0"/>
        <pt x="704" y="1010" on="1"/>
        <pt x="739" y="1217" on="1"/>
        <pt x="741" y="1229" on="0"/>
        <pt x="759" y="1248" on="0"/>
        <pt x="772" y="1248" on="1"/>
        <pt x="807" y="1248" on="1"/>
        <pt x="766" y="1008" on="1"/>
        <pt x="852" y="1000" on="0"/>
        <pt x="982" y="941" on="0"/>
        <pt x="1028" y="896" on="1"/>
        <pt x="1001" y="864" on="1"/>
        <pt x="996" y="859" on="0"/>
        <pt x="986" y="853" on="0"/>
        <pt x="978" y="853" on="1"/>
        <pt x="969" y="853" on="0"/>
        <pt x="939" y="875" on="0"/>
        <pt x="887" y="904" on="0"/>
        <pt x="809" y="931" on="0"/>
        <pt x="753" y="936" on="1"/>
        <pt x="603" y="59" on="1"/>
        <pt x="678" y="61" on="0"/>
        <pt x="786" y="95" on="0"/>
        <pt x="859" y="134" on="0"/>
        <pt x="901" y="166" on="0"/>
        <pt x="912" y="166" on="1"/>
        <pt x="923" y="166" on="0"/>
        <pt x="929" y="157" on="1"/>
        <pt x="950" y="127" on="1"/>
        <pt x="924" y="99" on="0"/>
        <pt x="850" y="50" on="0"/>
        <pt x="757" y="13" on="0"/>
        <pt x="649" y="-10" on="0"/>
        <pt x="591" y="-12" on="1"/>
        <pt x="555" y="-223" on="1"/>
        <pt x="553" y="-236" on="0"/>
        <pt x="536" y="-253" on="0"/>
        <pt x="523" y="-253" on="1"/>
        <pt x="488" y="-253" on="1"/>
      </contour>
      <contour>
        <pt x="246" y="425" on="1"/>
        <pt x="246" y="344" on="0"/>
        <pt x="287" y="215" on="0"/>
        <pt x="363" y="122" on="0"/>
        <pt x="472" y="67" on="0"/>
        <pt x="541" y="61" on="1"/>
        <pt x="691" y="937" on="1"/>
        <pt x="586" y="934" on="0"/>
        <pt x="421" y="860" on="0"/>
        <pt x="307" y="727" on="0"/>
        <pt x="246" y="540" on="0"/>
      </contour>
    </TTGlyph>
    <TTGlyph name="circumflex" xMin="111" yMin="1169" xMax="594" yMax="1415">
      <contour>
        <pt x="594" y="1169" on="1"/>
        <pt x="533" y="1169" on="1"/>
        <pt x="518" y="1169" on="0"/>
        <pt x="509" y="1181" on="1"/>
        <pt x="386" y="1345" on="1"/>
        <pt x="378" y="1357" on="1"/>
        <pt x="367" y="1345" on="1"/>
        <pt x="203" y="1181" on="1"/>
        <pt x="198" y="1176" on="0"/>
        <pt x="184" y="1169" on="0"/>
        <pt x="176" y="1169" on="1"/>
        <pt x="111" y="1169" on="1"/>
        <pt x="342" y="1415" on="1"/>
        <pt x="425" y="1415" on="1"/>
      </contour>
    </TTGlyph>
    <TTGlyph name="circumflex.case" xMin="130" yMin="1542" xMax="650" yMax="1741">
      <contour>
        <pt x="650" y="1542" on="1"/>
        <pt x="579" y="1542" on="1"/>
        <pt x="572" y="1542" on="0"/>
        <pt x="555" y="1547" on="0"/>
        <pt x="550" y="1552" on="1"/>
        <pt x="416" y="1683" on="1"/>
        <pt x="414" y="1685" on="0"/>
        <pt x="410" y="1689" on="0"/>
        <pt x="409" y="1691" on="1"/>
        <pt x="406" y="1686" on="0"/>
        <pt x="401" y="1683" on="1"/>
        <pt x="234" y="1552" on="1"/>
        <pt x="227" y="1547" on="0"/>
        <pt x="209" y="1542" on="0"/>
        <pt x="201" y="1542" on="1"/>
        <pt x="130" y="1542" on="1"/>
        <pt x="371" y="1741" on="1"/>
        <pt x="458" y="1741" on="1"/>
      </contour>
    </TTGlyph>
    <TTGlyph name="colon" xMin="58" yMin="-15" xMax="346" yMax="967">
      <contour>
        <pt x="58" y="77" on="1"/>
        <pt x="58" y="96" on="0"/>
        <pt x="72" y="130" on="0"/>
        <pt x="97" y="155" on="0"/>
        <pt x="130" y="170" on="0"/>
        <pt x="150" y="170" on="1"/>
        <pt x="169" y="170" on="0"/>
        <pt x="204" y="155" on="0"/>
        <pt x="229" y="130" on="0"/>
        <pt x="244" y="96" on="0"/>
        <pt x="244" y="77" on="1"/>
        <pt x="244" y="38" on="0"/>
        <pt x="189" y="-15" on="0"/>
        <pt x="150" y="-15" on="1"/>
        <pt x="111" y="-15" on="0"/>
        <pt x="58" y="38" on="0"/>
      </contour>
      <contour>
        <pt x="160" y="874" on="1"/>
        <pt x="160" y="893" on="0"/>
        <pt x="174" y="927" on="0"/>
        <pt x="199" y="952" on="0"/>
        <pt x="232" y="967" on="0"/>
        <pt x="252" y="967" on="1"/>
        <pt x="271" y="967" on="0"/>
        <pt x="306" y="952" on="0"/>
        <pt x="331" y="927" on="0"/>
        <pt x="346" y="893" on="0"/>
        <pt x="346" y="874" on="1"/>
        <pt x="346" y="835" on="0"/>
        <pt x="291" y="782" on="0"/>
        <pt x="252" y="782" on="1"/>
        <pt x="213" y="782" on="0"/>
        <pt x="160" y="835" on="0"/>
      </contour>
    </TTGlyph>
    <TTGlyph name="comma" xMin="63" yMin="-253" xMax="240" yMax="170">
      <contour>
        <pt x="63" y="85" on="1"/>
        <pt x="63" y="120" on="0"/>
        <pt x="111" y="170" on="0"/>
        <pt x="150" y="170" on="1"/>
        <pt x="193" y="170" on="0"/>
        <pt x="240" y="111" on="0"/>
        <pt x="240" y="63" on="1"/>
        <pt x="240" y="22" on="0"/>
        <pt x="219" y="-63" on="0"/>
        <pt x="179" y="-145" on="0"/>
        <pt x="123" y="-221" on="0"/>
        <pt x="89" y="-253" on="1"/>
        <pt x="73" y="-238" on="1"/>
        <pt x="68" y="-234" on="0"/>
        <pt x="66" y="-225" on="0"/>
        <pt x="66" y="-220" on="1"/>
        <pt x="66" y="-212" on="0"/>
        <pt x="97" y="-175" on="0"/>
        <pt x="136" y="-118" on="0"/>
        <pt x="172" y="-44" on="0"/>
        <pt x="177" y="0" on="1"/>
        <pt x="171" y="-2" on="0"/>
        <pt x="156" y="-4" on="0"/>
        <pt x="147" y="-4" on="1"/>
        <pt x="110" y="-4" on="0"/>
        <pt x="63" y="46" on="0"/>
      </contour>
    </TTGlyph>
    <TTGlyph name="copyright" xMin="107" yMin="-14" xMax="1551" yMax="1430">
      <contour>
        <pt x="1113" y="421" on="1"/>
        <pt x="1115" y="423" on="0"/>
        <pt x="1122" y="427" on="0"/>
        <pt x="1125" y="427" on="1"/>
        <pt x="1130" y="427" on="0"/>
        <pt x="1136" y="423" on="0"/>
        <pt x="1137" y="422" on="1"/>
        <pt x="1171" y="387" on="1"/>
        <pt x="1112" y="328" on="0"/>
        <pt x="952" y="258" on="0"/>
        <pt x="836" y="258" on="1"/>
        <pt x="740" y="258" on="0"/>
        <pt x="580" y="323" on="0"/>
        <pt x="465" y="441" on="0"/>
        <pt x="401" y="607" on="0"/>
        <pt x="401" y="709" on="1"/>
        <pt x="401" y="809" on="0"/>
        <pt x="468" y="975" on="0"/>
        <pt x="587" y="1094" on="0"/>
        <pt x="753" y="1160" on="0"/>
        <pt x="852" y="1160" on="1"/>
        <pt x="904" y="1160" on="0"/>
        <pt x="991" y="1145" on="0"/>
        <pt x="1065" y="1116" on="0"/>
        <pt x="1130" y="1075" on="0"/>
        <pt x="1160" y="1048" on="1"/>
        <pt x="1137" y="1015" on="1"/>
        <pt x="1130" y="1004" on="0"/>
        <pt x="1116" y="1004" on="1"/>
        <pt x="1107" y="1004" on="0"/>
        <pt x="1074" y="1030" on="0"/>
        <pt x="1015" y="1061" on="0"/>
        <pt x="924" y="1087" on="0"/>
        <pt x="856" y="1087" on="1"/>
        <pt x="773" y="1087" on="0"/>
        <pt x="637" y="1034" on="0"/>
        <pt x="540" y="936" on="0"/>
        <pt x="487" y="796" on="0"/>
        <pt x="487" y="709" on="1"/>
        <pt x="487" y="619" on="0"/>
        <pt x="540" y="479" on="0"/>
        <pt x="635" y="382" on="0"/>
        <pt x="764" y="331" on="0"/>
        <pt x="840" y="331" on="1"/>
        <pt x="900" y="331" on="0"/>
        <pt x="986" y="350" on="0"/>
        <pt x="1049" y="377" on="0"/>
        <pt x="1094" y="408" on="0"/>
      </contour>
      <contour>
        <pt x="107" y="708" on="1"/>
        <pt x="107" y="807" on="0"/>
        <pt x="159" y="992" on="0"/>
        <pt x="253" y="1152" on="0"/>
        <pt x="385" y="1284" on="0"/>
        <pt x="545" y="1378" on="0"/>
        <pt x="729" y="1430" on="0"/>
        <pt x="829" y="1430" on="1"/>
        <pt x="928" y="1430" on="0"/>
        <pt x="1113" y="1378" on="0"/>
        <pt x="1273" y="1284" on="0"/>
        <pt x="1405" y="1152" on="0"/>
        <pt x="1499" y="992" on="0"/>
        <pt x="1551" y="807" on="0"/>
        <pt x="1551" y="708" on="1"/>
        <pt x="1551" y="608" on="0"/>
        <pt x="1499" y="424" on="0"/>
        <pt x="1405" y="264" on="0"/>
        <pt x="1273" y="132" on="0"/>
        <pt x="1113" y="38" on="0"/>
        <pt x="928" y="-14" on="0"/>
        <pt x="829" y="-14" on="1"/>
        <pt x="730" y="-14" on="0"/>
        <pt x="545" y="38" on="0"/>
        <pt x="385" y="132" on="0"/>
        <pt x="253" y="264" on="0"/>
        <pt x="159" y="424" on="0"/>
        <pt x="107" y="608" on="0"/>
      </contour>
      <contour>
        <pt x="167" y="708" on="1"/>
        <pt x="167" y="569" on="0"/>
        <pt x="270" y="326" on="0"/>
        <pt x="450" y="145" on="0"/>
        <pt x="691" y="41" on="0"/>
        <pt x="829" y="41" on="1"/>
        <pt x="921" y="41" on="0"/>
        <pt x="1091" y="88" on="0"/>
        <pt x="1239" y="175" on="0"/>
        <pt x="1360" y="296" on="0"/>
        <pt x="1447" y="444" on="0"/>
        <pt x="1494" y="615" on="0"/>
        <pt x="1494" y="708" on="1"/>
        <pt x="1494" y="847" on="0"/>
        <pt x="1390" y="1090" on="0"/>
        <pt x="1209" y="1272" on="0"/>
        <pt x="967" y="1377" on="0"/>
        <pt x="829" y="1377" on="1"/>
        <pt x="691" y="1377" on="0"/>
        <pt x="450" y="1272" on="0"/>
        <pt x="270" y="1090" on="0"/>
        <pt x="167" y="847" on="0"/>
      </contour>
    </TTGlyph>
    <TTGlyph name="currency" xMin="198" yMin="250" xMax="1040" yMax="1092">
      <contour>
        <pt x="277" y="671" on="1"/>
        <pt x="277" y="733" on="0"/>
        <pt x="317" y="842" on="0"/>
        <pt x="352" y="887" on="1"/>
        <pt x="198" y="1041" on="1"/>
        <pt x="248" y="1091" on="1"/>
        <pt x="401" y="936" on="1"/>
        <pt x="446" y="973" on="0"/>
        <pt x="556" y="1015" on="0"/>
        <pt x="619" y="1015" on="1"/>
        <pt x="681" y="1015" on="0"/>
        <pt x="791" y="974" on="0"/>
        <pt x="836" y="938" on="1"/>
        <pt x="990" y="1092" on="1"/>
        <pt x="1039" y="1042" on="1"/>
        <pt x="885" y="889" on="1"/>
        <pt x="922" y="844" on="0"/>
        <pt x="963" y="734" on="0"/>
        <pt x="963" y="671" on="1"/>
        <pt x="963" y="609" on="0"/>
        <pt x="922" y="500" on="0"/>
        <pt x="887" y="455" on="1"/>
        <pt x="1040" y="301" on="1"/>
        <pt x="991" y="251" on="1"/>
        <pt x="837" y="405" on="1"/>
        <pt x="792" y="369" on="0"/>
        <pt x="682" y="328" on="0"/>
        <pt x="619" y="328" on="1"/>
        <pt x="557" y="328" on="0"/>
        <pt x="448" y="368" on="0"/>
        <pt x="404" y="404" on="1"/>
        <pt x="249" y="250" on="1"/>
        <pt x="200" y="300" on="1"/>
        <pt x="354" y="454" on="1"/>
        <pt x="318" y="499" on="0"/>
        <pt x="277" y="608" on="0"/>
      </contour>
      <contour>
        <pt x="349" y="671" on="1"/>
        <pt x="349" y="615" on="0"/>
        <pt x="392" y="517" on="0"/>
        <pt x="465" y="444" on="0"/>
        <pt x="563" y="401" on="0"/>
        <pt x="619" y="401" on="1"/>
        <pt x="676" y="401" on="0"/>
        <pt x="775" y="444" on="0"/>
        <pt x="849" y="517" on="0"/>
        <pt x="892" y="615" on="0"/>
        <pt x="892" y="671" on="1"/>
        <pt x="892" y="727" on="0"/>
        <pt x="849" y="826" on="0"/>
        <pt x="775" y="900" on="0"/>
        <pt x="676" y="943" on="0"/>
        <pt x="619" y="943" on="1"/>
        <pt x="563" y="943" on="0"/>
        <pt x="465" y="900" on="0"/>
        <pt x="392" y="826" on="0"/>
        <pt x="349" y="727" on="0"/>
      </contour>
    </TTGlyph>
    <TTGlyph name="d" xMin="64" yMin="-13" xMax="975" yMax="1455">
      <contour>
        <pt x="751" y="0" on="1"/>
        <pt x="732" y="0" on="0"/>
        <pt x="717" y="18" on="0"/>
        <pt x="717" y="31" on="1"/>
        <pt x="750" y="348" on="1"/>
        <pt x="711" y="267" on="0"/>
        <pt x="614" y="134" on="0"/>
        <pt x="506" y="39" on="0"/>
        <pt x="388" y="-13" on="0"/>
        <pt x="327" y="-13" on="1"/>
        <pt x="262" y="-13" on="0"/>
        <pt x="164" y="37" on="0"/>
        <pt x="98" y="129" on="0"/>
        <pt x="64" y="259" on="0"/>
        <pt x="64" y="340" on="1"/>
        <pt x="64" y="416" on="0"/>
        <pt x="96" y="575" on="0"/>
        <pt x="155" y="724" on="0"/>
        <pt x="240" y="855" on="0"/>
        <pt x="348" y="953" on="0"/>
        <pt x="476" y="1010" on="0"/>
        <pt x="549" y="1010" on="1"/>
        <pt x="630" y="1010" on="0"/>
        <pt x="766" y="939" on="0"/>
        <pt x="810" y="868" on="1"/>
        <pt x="883" y="1455" on="1"/>
        <pt x="975" y="1455" on="1"/>
        <pt x="797" y="0" on="1"/>
      </contour>
      <contour>
        <pt x="358" y="64" on="1"/>
        <pt x="415" y="64" on="0"/>
        <pt x="529" y="127" on="0"/>
        <pt x="636" y="243" on="0"/>
        <pt x="729" y="406" on="0"/>
        <pt x="765" y="505" on="1"/>
        <pt x="800" y="793" on="1"/>
        <pt x="757" y="871" on="0"/>
        <pt x="629" y="935" on="0"/>
        <pt x="560" y="935" on="1"/>
        <pt x="497" y="935" on="0"/>
        <pt x="388" y="884" on="0"/>
        <pt x="299" y="796" on="0"/>
        <pt x="230" y="680" on="0"/>
        <pt x="183" y="550" on="0"/>
        <pt x="158" y="412" on="0"/>
        <pt x="158" y="348" on="1"/>
        <pt x="158" y="214" on="0"/>
        <pt x="260" y="64" on="0"/>
      </contour>
    </TTGlyph>
    <TTGlyph name="dagger" xMin="195" yMin="-362" xMax="973" yMax="1444">
      <contour>
        <pt x="200" y="935" on="1"/>
        <pt x="202" y="951" on="0"/>
        <pt x="227" y="977" on="0"/>
        <pt x="250" y="977" on="1"/>
        <pt x="320" y="976" on="0"/>
        <pt x="477" y="961" on="0"/>
        <pt x="552" y="958" on="1"/>
        <pt x="599" y="1432" on="1"/>
        <pt x="610" y="1437" on="0"/>
        <pt x="635" y="1444" on="0"/>
        <pt x="649" y="1444" on="1"/>
        <pt x="663" y="1444" on="0"/>
        <pt x="687" y="1437" on="0"/>
        <pt x="696" y="1432" on="1"/>
        <pt x="625" y="958" on="1"/>
        <pt x="701" y="961" on="0"/>
        <pt x="863" y="976" on="0"/>
        <pt x="933" y="977" on="1"/>
        <pt x="953" y="977" on="0"/>
        <pt x="973" y="955" on="0"/>
        <pt x="973" y="941" on="1"/>
        <pt x="973" y="939" on="0"/>
        <pt x="972" y="929" on="0"/>
        <pt x="970" y="903" on="1"/>
        <pt x="618" y="903" on="1"/>
        <pt x="557" y="395" on="1"/>
        <pt x="478" y="-350" on="1"/>
        <pt x="467" y="-356" on="0"/>
        <pt x="441" y="-362" on="0"/>
        <pt x="428" y="-362" on="1"/>
        <pt x="399" y="-362" on="0"/>
        <pt x="380" y="-350" on="1"/>
        <pt x="484" y="395" on="1"/>
        <pt x="545" y="903" on="1"/>
        <pt x="195" y="903" on="1"/>
      </contour>
    </TTGlyph>
    <TTGlyph name="daggerdbl" xMin="102" yMin="-362" xMax="973" yMax="1444">
      <contour>
        <pt x="458" y="178" on="1"/>
        <pt x="546" y="903" on="1"/>
        <pt x="195" y="903" on="1"/>
        <pt x="200" y="935" on="1"/>
        <pt x="202" y="951" on="0"/>
        <pt x="227" y="977" on="0"/>
        <pt x="250" y="977" on="1"/>
        <pt x="320" y="976" on="0"/>
        <pt x="477" y="961" on="0"/>
        <pt x="552" y="958" on="1"/>
        <pt x="599" y="1432" on="1"/>
        <pt x="610" y="1437" on="0"/>
        <pt x="635" y="1444" on="0"/>
        <pt x="649" y="1444" on="1"/>
        <pt x="663" y="1444" on="0"/>
        <pt x="687" y="1437" on="0"/>
        <pt x="696" y="1432" on="1"/>
        <pt x="625" y="958" on="1"/>
        <pt x="701" y="961" on="0"/>
        <pt x="863" y="976" on="0"/>
        <pt x="933" y="977" on="1"/>
        <pt x="953" y="977" on="0"/>
        <pt x="973" y="955" on="0"/>
        <pt x="973" y="941" on="1"/>
        <pt x="973" y="939" on="0"/>
        <pt x="972" y="929" on="0"/>
        <pt x="970" y="903" on="1"/>
        <pt x="619" y="903" on="1"/>
        <pt x="529" y="178" on="1"/>
        <pt x="880" y="178" on="1"/>
        <pt x="877" y="147" on="1"/>
        <pt x="875" y="131" on="0"/>
        <pt x="849" y="104" on="0"/>
        <pt x="826" y="104" on="1"/>
        <pt x="756" y="105" on="0"/>
        <pt x="597" y="121" on="0"/>
        <pt x="522" y="123" on="1"/>
        <pt x="478" y="-350" on="1"/>
        <pt x="467" y="-356" on="0"/>
        <pt x="441" y="-362" on="0"/>
        <pt x="428" y="-362" on="1"/>
        <pt x="399" y="-362" on="0"/>
        <pt x="380" y="-350" on="1"/>
        <pt x="451" y="123" on="1"/>
        <pt x="413" y="122" on="0"/>
        <pt x="334" y="116" on="0"/>
        <pt x="255" y="110" on="0"/>
        <pt x="178" y="105" on="0"/>
        <pt x="142" y="104" on="1"/>
        <pt x="121" y="104" on="0"/>
        <pt x="102" y="128" on="0"/>
        <pt x="102" y="143" on="1"/>
        <pt x="102" y="144" on="0"/>
        <pt x="103" y="154" on="0"/>
        <pt x="107" y="178" on="1"/>
      </contour>
    </TTGlyph>
    <TTGlyph name="degree" xMin="161" yMin="836" xMax="762" yMax="1432">
      <contour>
        <pt x="161" y="1134" on="1"/>
        <pt x="161" y="1196" on="0"/>
        <pt x="209" y="1305" on="0"/>
        <pt x="290" y="1386" on="0"/>
        <pt x="399" y="1432" on="0"/>
        <pt x="461" y="1432" on="1"/>
        <pt x="524" y="1432" on="0"/>
        <pt x="634" y="1386" on="0"/>
        <pt x="715" y="1305" on="0"/>
        <pt x="762" y="1196" on="0"/>
        <pt x="762" y="1134" on="1"/>
        <pt x="762" y="1072" on="0"/>
        <pt x="715" y="964" on="0"/>
        <pt x="634" y="883" on="0"/>
        <pt x="524" y="836" on="0"/>
        <pt x="461" y="836" on="1"/>
        <pt x="399" y="836" on="0"/>
        <pt x="290" y="883" on="0"/>
        <pt x="209" y="964" on="0"/>
        <pt x="161" y="1072" on="0"/>
      </contour>
      <contour>
        <pt x="230" y="1134" on="1"/>
        <pt x="230" y="1086" on="0"/>
        <pt x="266" y="1002" on="0"/>
        <pt x="328" y="940" on="0"/>
        <pt x="413" y="904" on="0"/>
        <pt x="461" y="904" on="1"/>
        <pt x="509" y="904" on="0"/>
        <pt x="593" y="940" on="0"/>
        <pt x="654" y="1002" on="0"/>
        <pt x="690" y="1086" on="0"/>
        <pt x="690" y="1134" on="1"/>
        <pt x="690" y="1182" on="0"/>
        <pt x="654" y="1266" on="0"/>
        <pt x="593" y="1329" on="0"/>
        <pt x="509" y="1365" on="0"/>
        <pt x="461" y="1365" on="1"/>
        <pt x="413" y="1365" on="0"/>
        <pt x="328" y="1329" on="0"/>
        <pt x="266" y="1266" on="0"/>
        <pt x="230" y="1182" on="0"/>
      </contour>
    </TTGlyph>
    <TTGlyph name="dieresis" xMin="118" yMin="1226" xMax="625" yMax="1389">
      <contour>
        <pt x="283" y="1306" on="1"/>
        <pt x="283" y="1290" on="0"/>
        <pt x="269" y="1261" on="0"/>
        <pt x="246" y="1239" on="0"/>
        <pt x="216" y="1226" on="0"/>
        <pt x="200" y="1226" on="1"/>
        <pt x="183" y="1226" on="0"/>
        <pt x="154" y="1239" on="0"/>
        <pt x="131" y="1261" on="0"/>
        <pt x="118" y="1290" on="0"/>
        <pt x="118" y="1306" on="1"/>
        <pt x="118" y="1323" on="0"/>
        <pt x="131" y="1353" on="0"/>
        <pt x="154" y="1376" on="0"/>
        <pt x="183" y="1389" on="0"/>
        <pt x="200" y="1389" on="1"/>
        <pt x="216" y="1389" on="0"/>
        <pt x="246" y="1376" on="0"/>
        <pt x="269" y="1353" on="0"/>
        <pt x="283" y="1323" on="0"/>
      </contour>
      <contour>
        <pt x="625" y="1306" on="1"/>
        <pt x="625" y="1290" on="0"/>
        <pt x="611" y="1261" on="0"/>
        <pt x="589" y="1239" on="0"/>
        <pt x="559" y="1226" on="0"/>
        <pt x="543" y="1226" on="1"/>
        <pt x="526" y="1226" on="0"/>
        <pt x="496" y="1239" on="0"/>
        <pt x="474" y="1261" on="0"/>
        <pt x="461" y="1290" on="0"/>
        <pt x="461" y="1306" on="1"/>
        <pt x="461" y="1340" on="0"/>
        <pt x="509" y="1389" on="0"/>
        <pt x="543" y="1389" on="1"/>
        <pt x="559" y="1389" on="0"/>
        <pt x="589" y="1376" on="0"/>
        <pt x="611" y="1353" on="0"/>
        <pt x="625" y="1323" on="0"/>
      </contour>
    </TTGlyph>
    <TTGlyph name="dieresis.case" xMin="154" yMin="1590" xMax="643" yMax="1742">
      <contour>
        <pt x="308" y="1665" on="1"/>
        <pt x="308" y="1634" on="0"/>
        <pt x="261" y="1590" on="0"/>
        <pt x="230" y="1590" on="1"/>
        <pt x="200" y="1590" on="0"/>
        <pt x="154" y="1634" on="0"/>
        <pt x="154" y="1665" on="1"/>
        <pt x="154" y="1697" on="0"/>
        <pt x="200" y="1742" on="0"/>
        <pt x="230" y="1742" on="1"/>
        <pt x="261" y="1742" on="0"/>
        <pt x="308" y="1697" on="0"/>
      </contour>
      <contour>
        <pt x="643" y="1665" on="1"/>
        <pt x="643" y="1634" on="0"/>
        <pt x="597" y="1590" on="0"/>
        <pt x="566" y="1590" on="1"/>
        <pt x="535" y="1590" on="0"/>
        <pt x="490" y="1634" on="0"/>
        <pt x="490" y="1665" on="1"/>
        <pt x="490" y="1697" on="0"/>
        <pt x="535" y="1742" on="0"/>
        <pt x="566" y="1742" on="1"/>
        <pt x="597" y="1742" on="0"/>
        <pt x="643" y="1697" on="0"/>
      </contour>
    </TTGlyph>
    <TTGlyph name="divide" xMin="128" yMin="222" xMax="1075" yMax="1118">
      <contour>
        <pt x="137" y="706" on="1"/>
        <pt x="1075" y="706" on="1"/>
        <pt x="1067" y="635" on="1"/>
        <pt x="128" y="635" on="1"/>
      </contour>
      <contour>
        <pt x="553" y="1014" on="1"/>
        <pt x="553" y="1035" on="0"/>
        <pt x="569" y="1073" on="0"/>
        <pt x="597" y="1102" on="0"/>
        <pt x="634" y="1118" on="0"/>
        <pt x="655" y="1118" on="1"/>
        <pt x="691" y="1118" on="0"/>
        <pt x="737" y="1069" on="0"/>
        <pt x="737" y="1034" on="1"/>
        <pt x="737" y="1013" on="0"/>
        <pt x="720" y="976" on="0"/>
        <pt x="691" y="949" on="0"/>
        <pt x="653" y="934" on="0"/>
        <pt x="633" y="934" on="1"/>
        <pt x="597" y="934" on="0"/>
        <pt x="553" y="981" on="0"/>
      </contour>
      <contour>
        <pt x="465" y="302" on="1"/>
        <pt x="465" y="323" on="0"/>
        <pt x="481" y="361" on="0"/>
        <pt x="509" y="390" on="0"/>
        <pt x="546" y="406" on="0"/>
        <pt x="567" y="406" on="1"/>
        <pt x="603" y="406" on="0"/>
        <pt x="649" y="357" on="0"/>
        <pt x="649" y="322" on="1"/>
        <pt x="649" y="301" on="0"/>
        <pt x="632" y="264" on="0"/>
        <pt x="603" y="237" on="0"/>
        <pt x="566" y="222" on="0"/>
        <pt x="545" y="222" on="1"/>
        <pt x="510" y="222" on="0"/>
        <pt x="465" y="269" on="0"/>
      </contour>
    </TTGlyph>
    <TTGlyph name="dollar" xMin="114" yMin="-258" xMax="1090" yMax="1627">
      <contour>
        <pt x="481" y="-15" on="1"/>
        <pt x="353" y="-9" on="0"/>
        <pt x="176" y="89" on="0"/>
        <pt x="114" y="169" on="1"/>
        <pt x="145" y="207" on="1"/>
        <pt x="156" y="221" on="0"/>
        <pt x="175" y="221" on="1"/>
        <pt x="184" y="221" on="0"/>
        <pt x="207" y="199" on="0"/>
        <pt x="241" y="166" on="0"/>
        <pt x="288" y="126" on="0"/>
        <pt x="353" y="91" on="0"/>
        <pt x="438" y="66" on="0"/>
        <pt x="494" y="63" on="1"/>
        <pt x="605" y="704" on="1"/>
        <pt x="545" y="724" on="0"/>
        <pt x="431" y="771" on="0"/>
        <pt x="342" y="843" on="0"/>
        <pt x="288" y="947" on="0"/>
        <pt x="288" y="1023" on="1"/>
        <pt x="288" y="1101" on="0"/>
        <pt x="349" y="1245" on="0"/>
        <pt x="463" y="1357" on="0"/>
        <pt x="627" y="1426" on="0"/>
        <pt x="730" y="1429" on="1"/>
        <pt x="759" y="1596" on="1"/>
        <pt x="761" y="1610" on="0"/>
        <pt x="779" y="1627" on="0"/>
        <pt x="792" y="1627" on="1"/>
        <pt x="827" y="1627" on="1"/>
        <pt x="793" y="1428" on="1"/>
        <pt x="893" y="1421" on="0"/>
        <pt x="1035" y="1347" on="0"/>
        <pt x="1090" y="1283" on="1"/>
        <pt x="1065" y="1250" on="1"/>
        <pt x="1053" y="1234" on="0"/>
        <pt x="1038" y="1234" on="1"/>
        <pt x="1026" y="1234" on="0"/>
        <pt x="991" y="1267" on="0"/>
        <pt x="932" y="1308" on="0"/>
        <pt x="844" y="1345" on="0"/>
        <pt x="779" y="1350" on="1"/>
        <pt x="680" y="774" on="1"/>
        <pt x="744" y="753" on="0"/>
        <pt x="868" y="705" on="0"/>
        <pt x="967" y="634" on="0"/>
        <pt x="1028" y="530" on="0"/>
        <pt x="1028" y="452" on="1"/>
        <pt x="1028" y="360" on="0"/>
        <pt x="960" y="195" on="0"/>
        <pt x="834" y="68" on="0"/>
        <pt x="655" y="-10" on="0"/>
        <pt x="543" y="-15" on="1"/>
        <pt x="507" y="-228" on="1"/>
        <pt x="505" y="-240" on="0"/>
        <pt x="487" y="-258" on="0"/>
        <pt x="474" y="-258" on="1"/>
        <pt x="439" y="-258" on="1"/>
      </contour>
      <contour>
        <pt x="937" y="430" on="1"/>
        <pt x="937" y="488" on="0"/>
        <pt x="892" y="568" on="0"/>
        <pt x="816" y="625" on="0"/>
        <pt x="718" y="666" on="0"/>
        <pt x="664" y="684" on="1"/>
        <pt x="557" y="63" on="1"/>
        <pt x="646" y="68" on="0"/>
        <pt x="787" y="130" on="0"/>
        <pt x="885" y="229" on="0"/>
        <pt x="937" y="358" on="0"/>
      </contour>
      <contour>
        <pt x="376" y="1043" on="1"/>
        <pt x="376" y="989" on="0"/>
        <pt x="415" y="912" on="0"/>
        <pt x="483" y="855" on="0"/>
        <pt x="571" y="813" on="0"/>
        <pt x="621" y="795" on="1"/>
        <pt x="717" y="1351" on="1"/>
        <pt x="633" y="1347" on="0"/>
        <pt x="506" y="1293" on="0"/>
        <pt x="420" y="1209" on="0"/>
        <pt x="376" y="1101" on="0"/>
      </contour>
    </TTGlyph>
    <TTGlyph name="dotaccent" xMin="306" yMin="1263" xMax="484" yMax="1439">
      <contour>
        <pt x="484" y="1350" on="1"/>
        <pt x="484" y="1332" on="0"/>
        <pt x="469" y="1301" on="0"/>
        <pt x="444" y="1277" on="0"/>
        <pt x="412" y="1263" on="0"/>
        <pt x="394" y="1263" on="1"/>
        <pt x="376" y="1263" on="0"/>
        <pt x="344" y="1277" on="0"/>
        <pt x="320" y="1301" on="0"/>
        <pt x="306" y="1332" on="0"/>
        <pt x="306" y="1350" on="1"/>
        <pt x="306" y="1368" on="0"/>
        <pt x="320" y="1401" on="0"/>
        <pt x="344" y="1425" on="0"/>
        <pt x="376" y="1439" on="0"/>
        <pt x="394" y="1439" on="1"/>
        <pt x="412" y="1439" on="0"/>
        <pt x="444" y="1425" on="0"/>
        <pt x="469" y="1401" on="0"/>
        <pt x="484" y="1368" on="0"/>
      </contour>
    </TTGlyph>
    <TTGlyph name="dotaccent.case" xMin="320" yMin="1592" xMax="493" yMax="1764">
      <contour>
        <pt x="493" y="1677" on="1"/>
        <pt x="493" y="1660" on="0"/>
        <pt x="479" y="1629" on="0"/>
        <pt x="455" y="1606" on="0"/>
        <pt x="423" y="1592" on="0"/>
        <pt x="406" y="1592" on="1"/>
        <pt x="389" y="1592" on="0"/>
        <pt x="358" y="1606" on="0"/>
        <pt x="334" y="1629" on="0"/>
        <pt x="320" y="1660" on="0"/>
        <pt x="320" y="1677" on="1"/>
        <pt x="320" y="1695" on="0"/>
        <pt x="334" y="1726" on="0"/>
        <pt x="358" y="1750" on="0"/>
        <pt x="389" y="1764" on="0"/>
        <pt x="406" y="1764" on="1"/>
        <pt x="423" y="1764" on="0"/>
        <pt x="455" y="1750" on="0"/>
        <pt x="479" y="1726" on="0"/>
        <pt x="493" y="1695" on="0"/>
      </contour>
    </TTGlyph>
    <TTGlyph name="dotlessi" xMin="120" yMin="0" xMax="334" yMax="995">
      <contour>
        <pt x="334" y="995" on="1"/>
        <pt x="213" y="0" on="1"/>
        <pt x="120" y="0" on="1"/>
        <pt x="241" y="995" on="1"/>
      </contour>
    </TTGlyph>
    <TTGlyph name="e" xMin="70" yMin="-13" xMax="838" yMax="1009">
      <contour>
        <pt x="838" y="805" on="1"/>
        <pt x="838" y="764" on="0"/>
        <pt x="816" y="690" on="0"/>
        <pt x="760" y="624" on="0"/>
        <pt x="664" y="565" on="0"/>
        <pt x="514" y="516" on="0"/>
        <pt x="306" y="477" on="0"/>
        <pt x="166" y="462" on="1"/>
        <pt x="164" y="441" on="0"/>
        <pt x="162" y="400" on="0"/>
        <pt x="162" y="380" on="1"/>
        <pt x="162" y="231" on="0"/>
        <pt x="297" y="63" on="0"/>
        <pt x="433" y="63" on="1"/>
        <pt x="486" y="63" on="0"/>
        <pt x="571" y="86" on="0"/>
        <pt x="638" y="122" on="0"/>
        <pt x="689" y="162" on="0"/>
        <pt x="729" y="198" on="0"/>
        <pt x="758" y="221" on="0"/>
        <pt x="770" y="221" on="1"/>
        <pt x="782" y="221" on="0"/>
        <pt x="791" y="211" on="1"/>
        <pt x="813" y="185" on="1"/>
        <pt x="764" y="133" on="0"/>
        <pt x="671" y="58" on="0"/>
        <pt x="576" y="10" on="0"/>
        <pt x="474" y="-13" on="0"/>
        <pt x="416" y="-13" on="1"/>
        <pt x="333" y="-13" on="0"/>
        <pt x="204" y="42" on="0"/>
        <pt x="116" y="143" on="0"/>
        <pt x="70" y="288" on="0"/>
        <pt x="70" y="378" on="1"/>
        <pt x="70" y="453" on="0"/>
        <pt x="100" y="605" on="0"/>
        <pt x="159" y="745" on="0"/>
        <pt x="246" y="867" on="0"/>
        <pt x="358" y="957" on="0"/>
        <pt x="494" y="1009" on="0"/>
        <pt x="573" y="1009" on="1"/>
        <pt x="646" y="1009" on="0"/>
        <pt x="747" y="968" on="0"/>
        <pt x="810" y="907" on="0"/>
        <pt x="838" y="836" on="0"/>
      </contour>
      <contour>
        <pt x="568" y="939" on="1"/>
        <pt x="488" y="939" on="0"/>
        <pt x="359" y="871" on="0"/>
        <pt x="260" y="758" on="0"/>
        <pt x="193" y="609" on="0"/>
        <pt x="177" y="528" on="1"/>
        <pt x="304" y="542" on="0"/>
        <pt x="488" y="579" on="0"/>
        <pt x="616" y="620" on="0"/>
        <pt x="695" y="668" on="0"/>
        <pt x="739" y="719" on="0"/>
        <pt x="754" y="773" on="0"/>
        <pt x="754" y="802" on="1"/>
        <pt x="754" y="823" on="0"/>
        <pt x="735" y="872" on="0"/>
        <pt x="691" y="912" on="0"/>
        <pt x="620" y="939" on="0"/>
      </contour>
    </TTGlyph>
    <TTGlyph name="eacute" xMin="70" yMin="-13" xMax="838" yMax="1431">
      <component glyphName="e" x="0" y="0" flags="0x204"/>
      <component glyphName="acute" x="224" y="0" flags="0x4"/>
    </TTGlyph>
    <TTGlyph name="ecircumflex" xMin="70" yMin="-13" xMax="838" yMax="1415">
      <component glyphName="e" x="0" y="0" flags="0x204"/>
      <component glyphName="circumflex" x="224" y="0" flags="0x4"/>
    </TTGlyph>
    <TTGlyph name="edieresis" xMin="70" yMin="-13" xMax="849" yMax="1389">
      <component glyphName="e" x="0" y="0" flags="0x204"/>
      <component glyphName="dieresis" x="224" y="0" flags="0x4"/>
    </TTGlyph>
    <TTGlyph name="egrave" xMin="70" yMin="-13" xMax="838" yMax="1431">
      <component glyphName="e" x="0" y="0" flags="0x204"/>
      <component glyphName="grave" x="238" y="0" flags="0x4"/>
    </TTGlyph>
    <TTGlyph name="eight" xMin="102" yMin="-16" xMax="1062" yMax="1431">
      <contour>
        <pt x="518" y="-16" on="1"/>
        <pt x="424" y="-16" on="0"/>
        <pt x="271" y="33" on="0"/>
        <pt x="162" y="123" on="0"/>
        <pt x="102" y="250" on="0"/>
        <pt x="102" y="328" on="1"/>
        <pt x="102" y="417" on="0"/>
        <pt x="156" y="556" on="0"/>
        <pt x="252" y="658" on="0"/>
        <pt x="384" y="723" on="0"/>
        <pt x="461" y="739" on="1"/>
        <pt x="352" y="772" on="0"/>
        <pt x="240" y="925" on="0"/>
        <pt x="240" y="1029" on="1"/>
        <pt x="240" y="1113" on="0"/>
        <pt x="306" y="1260" on="0"/>
        <pt x="426" y="1368" on="0"/>
        <pt x="593" y="1431" on="0"/>
        <pt x="695" y="1431" on="1"/>
        <pt x="782" y="1431" on="0"/>
        <pt x="918" y="1380" on="0"/>
        <pt x="1013" y="1293" on="0"/>
        <pt x="1062" y="1176" on="0"/>
        <pt x="1062" y="1109" on="1"/>
        <pt x="1062" y="1041" on="0"/>
        <pt x="1021" y="922" on="0"/>
        <pt x="944" y="826" on="0"/>
        <pt x="832" y="756" on="0"/>
        <pt x="760" y="737" on="1"/>
        <pt x="820" y="723" on="0"/>
        <pt x="919" y="670" on="0"/>
        <pt x="990" y="592" on="0"/>
        <pt x="1029" y="487" on="0"/>
        <pt x="1029" y="421" on="1"/>
        <pt x="1029" y="319" on="0"/>
        <pt x="951" y="157" on="0"/>
        <pt x="814" y="44" on="0"/>
        <pt x="627" y="-16" on="0"/>
      </contour>
      <contour>
        <pt x="526" y="58" on="1"/>
        <pt x="615" y="58" on="0"/>
        <pt x="765" y="109" on="0"/>
        <pt x="873" y="204" on="0"/>
        <pt x="934" y="337" on="0"/>
        <pt x="934" y="420" on="1"/>
        <pt x="934" y="499" on="0"/>
        <pt x="873" y="606" on="0"/>
        <pt x="777" y="671" on="0"/>
        <pt x="660" y="698" on="0"/>
        <pt x="605" y="698" on="1"/>
        <pt x="561" y="698" on="0"/>
        <pt x="468" y="683" on="0"/>
        <pt x="378" y="649" on="0"/>
        <pt x="297" y="593" on="0"/>
        <pt x="236" y="513" on="0"/>
        <pt x="200" y="406" on="0"/>
        <pt x="200" y="337" on="1"/>
        <pt x="200" y="274" on="0"/>
        <pt x="246" y="172" on="0"/>
        <pt x="330" y="98" on="0"/>
        <pt x="451" y="58" on="0"/>
      </contour>
      <contour>
        <pt x="614" y="773" on="1"/>
        <pt x="705" y="773" on="0"/>
        <pt x="839" y="830" on="0"/>
        <pt x="928" y="923" on="0"/>
        <pt x="971" y="1041" on="0"/>
        <pt x="971" y="1103" on="1"/>
        <pt x="971" y="1157" on="0"/>
        <pt x="934" y="1250" on="0"/>
        <pt x="862" y="1319" on="0"/>
        <pt x="756" y="1358" on="0"/>
        <pt x="687" y="1358" on="1"/>
        <pt x="604" y="1358" on="0"/>
        <pt x="472" y="1308" on="0"/>
        <pt x="380" y="1220" on="0"/>
        <pt x="330" y="1101" on="0"/>
        <pt x="330" y="1032" on="1"/>
        <pt x="330" y="982" on="0"/>
        <pt x="363" y="888" on="0"/>
        <pt x="433" y="816" on="0"/>
        <pt x="540" y="773" on="0"/>
      </contour>
    </TTGlyph>
    <TTGlyph name="ellipsis" xMin="58" yMin="-15" xMax="1225" yMax="170">
      <contour>
        <pt x="58" y="77" on="1"/>
        <pt x="58" y="96" on="0"/>
        <pt x="72" y="130" on="0"/>
        <pt x="97" y="155" on="0"/>
        <pt x="130" y="170" on="0"/>
        <pt x="150" y="170" on="1"/>
        <pt x="169" y="170" on="0"/>
        <pt x="204" y="155" on="0"/>
        <pt x="229" y="130" on="0"/>
        <pt x="244" y="96" on="0"/>
        <pt x="244" y="77" on="1"/>
        <pt x="244" y="38" on="0"/>
        <pt x="189" y="-15" on="0"/>
        <pt x="150" y="-15" on="1"/>
        <pt x="111" y="-15" on="0"/>
        <pt x="58" y="38" on="0"/>
      </contour>
      <contour>
        <pt x="549" y="77" on="1"/>
        <pt x="549" y="96" on="0"/>
        <pt x="563" y="130" on="0"/>
        <pt x="588" y="155" on="0"/>
        <pt x="621" y="170" on="0"/>
        <pt x="641" y="170" on="1"/>
        <pt x="660" y="170" on="0"/>
        <pt x="694" y="155" on="0"/>
        <pt x="719" y="130" on="0"/>
        <pt x="734" y="96" on="0"/>
        <pt x="734" y="77" on="1"/>
        <pt x="734" y="57" on="0"/>
        <pt x="719" y="24" on="0"/>
        <pt x="694" y="-1" on="0"/>
        <pt x="660" y="-15" on="0"/>
        <pt x="641" y="-15" on="1"/>
        <pt x="602" y="-15" on="0"/>
        <pt x="549" y="38" on="0"/>
      </contour>
      <contour>
        <pt x="1039" y="77" on="1"/>
        <pt x="1039" y="96" on="0"/>
        <pt x="1053" y="130" on="0"/>
        <pt x="1078" y="155" on="0"/>
        <pt x="1111" y="170" on="0"/>
        <pt x="1131" y="170" on="1"/>
        <pt x="1150" y="170" on="0"/>
        <pt x="1185" y="155" on="0"/>
        <pt x="1210" y="130" on="0"/>
        <pt x="1225" y="96" on="0"/>
        <pt x="1225" y="77" on="1"/>
        <pt x="1225" y="38" on="0"/>
        <pt x="1170" y="-15" on="0"/>
        <pt x="1131" y="-15" on="1"/>
        <pt x="1092" y="-15" on="0"/>
        <pt x="1039" y="38" on="0"/>
      </contour>
    </TTGlyph>
    <TTGlyph name="emdash" xMin="143" yMin="543" xMax="1346" yMax="612">
      <contour>
        <pt x="151" y="612" on="1"/>
        <pt x="1346" y="612" on="1"/>
        <pt x="1337" y="543" on="1"/>
        <pt x="143" y="543" on="1"/>
      </contour>
    </TTGlyph>
    <TTGlyph name="endash" xMin="143" yMin="543" xMax="876" yMax="612">
      <contour>
        <pt x="151" y="612" on="1"/>
        <pt x="876" y="612" on="1"/>
        <pt x="868" y="543" on="1"/>
        <pt x="143" y="543" on="1"/>
      </contour>
    </TTGlyph>
    <TTGlyph name="eogonek" xMin="70" yMin="-338" xMax="838" yMax="1009">
      <contour>
        <pt x="579" y="-244" on="1"/>
        <pt x="588" y="-244" on="0"/>
        <pt x="591" y="-252" on="1"/>
        <pt x="601" y="-285" on="1"/>
        <pt x="573" y="-309" on="0"/>
        <pt x="492" y="-338" on="0"/>
        <pt x="449" y="-338" on="1"/>
        <pt x="383" y="-338" on="0"/>
        <pt x="308" y="-272" on="0"/>
        <pt x="308" y="-214" on="1"/>
        <pt x="308" y="-183" on="0"/>
        <pt x="330" y="-126" on="0"/>
        <pt x="366" y="-75" on="0"/>
        <pt x="413" y="-30" on="0"/>
        <pt x="439" y="-12" on="1"/>
        <pt x="434" y="-13" on="0"/>
        <pt x="422" y="-13" on="0"/>
        <pt x="416" y="-13" on="1"/>
        <pt x="333" y="-13" on="0"/>
        <pt x="204" y="42" on="0"/>
        <pt x="116" y="143" on="0"/>
        <pt x="70" y="288" on="0"/>
        <pt x="70" y="378" on="1"/>
        <pt x="70" y="453" on="0"/>
        <pt x="100" y="605" on="0"/>
        <pt x="159" y="745" on="0"/>
        <pt x="246" y="867" on="0"/>
        <pt x="358" y="957" on="0"/>
        <pt x="494" y="1009" on="0"/>
        <pt x="573" y="1009" on="1"/>
        <pt x="646" y="1009" on="0"/>
        <pt x="747" y="968" on="0"/>
        <pt x="810" y="907" on="0"/>
        <pt x="838" y="836" on="0"/>
        <pt x="838" y="805" on="1"/>
        <pt x="838" y="764" on="0"/>
        <pt x="816" y="690" on="0"/>
        <pt x="760" y="624" on="0"/>
        <pt x="664" y="565" on="0"/>
        <pt x="514" y="516" on="0"/>
        <pt x="306" y="477" on="0"/>
        <pt x="166" y="462" on="1"/>
        <pt x="164" y="441" on="0"/>
        <pt x="162" y="400" on="0"/>
        <pt x="162" y="380" on="1"/>
        <pt x="162" y="231" on="0"/>
        <pt x="297" y="63" on="0"/>
        <pt x="433" y="63" on="1"/>
        <pt x="486" y="63" on="0"/>
        <pt x="571" y="86" on="0"/>
        <pt x="638" y="122" on="0"/>
        <pt x="689" y="162" on="0"/>
        <pt x="729" y="198" on="0"/>
        <pt x="758" y="221" on="0"/>
        <pt x="770" y="221" on="1"/>
        <pt x="782" y="221" on="0"/>
        <pt x="791" y="211" on="1"/>
        <pt x="813" y="185" on="1"/>
        <pt x="766" y="136" on="0"/>
        <pt x="678" y="64" on="0"/>
        <pt x="588" y="16" on="0"/>
        <pt x="493" y="-10" on="0"/>
        <pt x="439" y="-12" on="1"/>
        <pt x="480" y="13" on="1"/>
        <pt x="525" y="0" on="1"/>
        <pt x="504" y="-12" on="0"/>
        <pt x="453" y="-48" on="0"/>
        <pt x="410" y="-96" on="0"/>
        <pt x="380" y="-156" on="0"/>
        <pt x="380" y="-190" on="1"/>
        <pt x="380" y="-231" on="0"/>
        <pt x="431" y="-279" on="0"/>
        <pt x="473" y="-279" on="1"/>
        <pt x="499" y="-279" on="0"/>
        <pt x="535" y="-268" on="0"/>
        <pt x="560" y="-255" on="0"/>
        <pt x="574" y="-244" on="0"/>
      </contour>
      <contour>
        <pt x="568" y="939" on="1"/>
        <pt x="488" y="939" on="0"/>
        <pt x="359" y="871" on="0"/>
        <pt x="260" y="758" on="0"/>
        <pt x="193" y="609" on="0"/>
        <pt x="177" y="528" on="1"/>
        <pt x="304" y="542" on="0"/>
        <pt x="488" y="579" on="0"/>
        <pt x="616" y="620" on="0"/>
        <pt x="695" y="668" on="0"/>
        <pt x="739" y="719" on="0"/>
        <pt x="754" y="773" on="0"/>
        <pt x="754" y="802" on="1"/>
        <pt x="754" y="823" on="0"/>
        <pt x="735" y="872" on="0"/>
        <pt x="691" y="912" on="0"/>
        <pt x="620" y="939" on="0"/>
      </contour>
    </TTGlyph>
    <TTGlyph name="equal" xMin="160" yMin="484" xMax="1033" yMax="867">
      <contour>
        <pt x="168" y="555" on="1"/>
        <pt x="995" y="555" on="1"/>
        <pt x="986" y="484" on="1"/>
        <pt x="160" y="484" on="1"/>
      </contour>
      <contour>
        <pt x="207" y="867" on="1"/>
        <pt x="1033" y="867" on="1"/>
        <pt x="1025" y="796" on="1"/>
        <pt x="198" y="796" on="1"/>
      </contour>
    </TTGlyph>
    <TTGlyph name="eth" xMin="73" yMin="-12" xMax="932" yMax="1401">
      <contour>
        <pt x="491" y="1070" on="1"/>
        <pt x="487" y="1078" on="0"/>
        <pt x="487" y="1083" on="1"/>
        <pt x="487" y="1092" on="0"/>
        <pt x="495" y="1100" on="1"/>
        <pt x="635" y="1221" on="1"/>
        <pt x="584" y="1256" on="0"/>
        <pt x="466" y="1304" on="0"/>
        <pt x="398" y="1321" on="1"/>
        <pt x="375" y="1327" on="0"/>
        <pt x="375" y="1344" on="1"/>
        <pt x="375" y="1353" on="0"/>
        <pt x="379" y="1361" on="1"/>
        <pt x="392" y="1391" on="1"/>
        <pt x="473" y="1377" on="0"/>
        <pt x="628" y="1316" on="0"/>
        <pt x="695" y="1265" on="1"/>
        <pt x="856" y="1401" on="1"/>
        <pt x="872" y="1372" on="1"/>
        <pt x="875" y="1366" on="0"/>
        <pt x="875" y="1359" on="1"/>
        <pt x="875" y="1349" on="0"/>
        <pt x="865" y="1340" on="1"/>
        <pt x="737" y="1229" on="1"/>
        <pt x="780" y="1189" on="0"/>
        <pt x="852" y="1087" on="0"/>
        <pt x="904" y="961" on="0"/>
        <pt x="932" y="811" on="0"/>
        <pt x="932" y="722" on="1"/>
        <pt x="932" y="563" on="0"/>
        <pt x="868" y="294" on="0"/>
        <pt x="740" y="98" on="0"/>
        <pt x="551" y="-12" on="0"/>
        <pt x="425" y="-12" on="1"/>
        <pt x="349" y="-12" on="0"/>
        <pt x="220" y="45" on="0"/>
        <pt x="126" y="149" on="0"/>
        <pt x="73" y="297" on="0"/>
        <pt x="73" y="388" on="1"/>
        <pt x="73" y="497" on="0"/>
        <pt x="138" y="690" on="0"/>
        <pt x="259" y="836" on="0"/>
        <pt x="430" y="921" on="0"/>
        <pt x="535" y="921" on="1"/>
        <pt x="584" y="921" on="0"/>
        <pt x="680" y="894" on="0"/>
        <pt x="764" y="837" on="0"/>
        <pt x="833" y="749" on="0"/>
        <pt x="855" y="688" on="1"/>
        <pt x="855" y="696" on="0"/>
        <pt x="856" y="713" on="0"/>
        <pt x="856" y="721" on="1"/>
        <pt x="856" y="882" on="0"/>
        <pt x="764" y="1112" on="0"/>
        <pt x="679" y="1187" on="1"/>
        <pt x="508" y="1041" on="1"/>
      </contour>
      <contour>
        <pt x="435" y="61" on="1"/>
        <pt x="597" y="61" on="0"/>
        <pt x="801" y="314" on="0"/>
        <pt x="834" y="569" on="1"/>
        <pt x="825" y="620" on="0"/>
        <pt x="782" y="720" on="0"/>
        <pt x="711" y="799" on="0"/>
        <pt x="610" y="848" on="0"/>
        <pt x="542" y="848" on="1"/>
        <pt x="452" y="848" on="0"/>
        <pt x="311" y="776" on="0"/>
        <pt x="215" y="652" on="0"/>
        <pt x="165" y="487" on="0"/>
        <pt x="165" y="393" on="1"/>
        <pt x="165" y="316" on="0"/>
        <pt x="207" y="193" on="0"/>
        <pt x="279" y="107" on="0"/>
        <pt x="378" y="61" on="0"/>
      </contour>
    </TTGlyph>
    <TTGlyph name="exclam" xMin="163" yMin="-15" xMax="460" yMax="1415">
      <contour>
        <pt x="460" y="1415" on="1"/>
        <pt x="390" y="843" on="1"/>
        <pt x="384" y="798" on="0"/>
        <pt x="372" y="718" on="0"/>
        <pt x="358" y="635" on="0"/>
        <pt x="341" y="543" on="0"/>
        <pt x="331" y="487" on="1"/>
        <pt x="269" y="487" on="1"/>
        <pt x="273" y="543" on="0"/>
        <pt x="279" y="635" on="0"/>
        <pt x="286" y="718" on="0"/>
        <pt x="294" y="798" on="0"/>
        <pt x="299" y="843" on="1"/>
        <pt x="369" y="1415" on="1"/>
      </contour>
      <contour>
        <pt x="163" y="77" on="1"/>
        <pt x="163" y="96" on="0"/>
        <pt x="177" y="130" on="0"/>
        <pt x="202" y="155" on="0"/>
        <pt x="235" y="170" on="0"/>
        <pt x="255" y="170" on="1"/>
        <pt x="274" y="170" on="0"/>
        <pt x="308" y="155" on="0"/>
        <pt x="333" y="130" on="0"/>
        <pt x="348" y="96" on="0"/>
        <pt x="348" y="77" on="1"/>
        <pt x="348" y="57" on="0"/>
        <pt x="333" y="24" on="0"/>
        <pt x="308" y="-1" on="0"/>
        <pt x="274" y="-15" on="0"/>
        <pt x="255" y="-15" on="1"/>
        <pt x="216" y="-15" on="0"/>
        <pt x="163" y="38" on="0"/>
      </contour>
    </TTGlyph>
    <TTGlyph name="exclamdown" xMin="171" yMin="-352" xMax="442" yMax="1011">
      <contour>
        <pt x="171" y="-352" on="1"/>
        <pt x="239" y="198" on="1"/>
        <pt x="245" y="243" on="0"/>
        <pt x="255" y="323" on="0"/>
        <pt x="267" y="406" on="0"/>
        <pt x="280" y="498" on="0"/>
        <pt x="288" y="554" on="1"/>
        <pt x="329" y="554" on="1"/>
        <pt x="323" y="498" on="0"/>
        <pt x="314" y="406" on="0"/>
        <pt x="305" y="323" on="0"/>
        <pt x="296" y="243" on="0"/>
        <pt x="291" y="198" on="1"/>
        <pt x="224" y="-352" on="1"/>
      </contour>
      <contour>
        <pt x="256" y="917" on="1"/>
        <pt x="256" y="956" on="0"/>
        <pt x="309" y="1011" on="0"/>
        <pt x="348" y="1011" on="1"/>
        <pt x="367" y="1011" on="0"/>
        <pt x="402" y="996" on="0"/>
        <pt x="427" y="971" on="0"/>
        <pt x="442" y="936" on="0"/>
        <pt x="442" y="917" on="1"/>
        <pt x="442" y="878" on="0"/>
        <pt x="387" y="825" on="0"/>
        <pt x="348" y="825" on="1"/>
        <pt x="309" y="825" on="0"/>
        <pt x="256" y="878" on="0"/>
      </contour>
    </TTGlyph>
    <TTGlyph name="f" xMin="66" yMin="-250" xMax="672" yMax="1433">
      <contour>
        <pt x="306" y="894" on="1"/>
        <pt x="200" y="21" on="1"/>
        <pt x="158" y="-209" on="1"/>
        <pt x="154" y="-231" on="0"/>
        <pt x="128" y="-250" on="0"/>
        <pt x="109" y="-250" on="1"/>
        <pt x="74" y="-250" on="1"/>
        <pt x="214" y="893" on="1"/>
        <pt x="88" y="901" on="1"/>
        <pt x="66" y="903" on="0"/>
        <pt x="66" y="923" on="1"/>
        <pt x="66" y="924" on="0"/>
        <pt x="67" y="935" on="0"/>
        <pt x="70" y="964" on="1"/>
        <pt x="222" y="964" on="1"/>
        <pt x="238" y="1090" on="1"/>
        <pt x="248" y="1175" on="0"/>
        <pt x="306" y="1304" on="0"/>
        <pt x="393" y="1390" on="0"/>
        <pt x="503" y="1433" on="0"/>
        <pt x="566" y="1433" on="1"/>
        <pt x="594" y="1433" on="0"/>
        <pt x="650" y="1422" on="0"/>
        <pt x="672" y="1412" on="1"/>
        <pt x="662" y="1364" on="1"/>
        <pt x="661" y="1353" on="0"/>
        <pt x="647" y="1353" on="1"/>
        <pt x="636" y="1353" on="0"/>
        <pt x="596" y="1361" on="0"/>
        <pt x="570" y="1361" on="1"/>
        <pt x="525" y="1361" on="0"/>
        <pt x="444" y="1331" on="0"/>
        <pt x="381" y="1266" on="0"/>
        <pt x="336" y="1162" on="0"/>
        <pt x="327" y="1087" on="1"/>
        <pt x="311" y="964" on="1"/>
        <pt x="593" y="964" on="1"/>
        <pt x="583" y="894" on="1"/>
      </contour>
    </TTGlyph>
    <TTGlyph name="fi" xMin="64" yMin="-251" xMax="852" yMax="1442">
      <contour>
        <pt x="312" y="964" on="1"/>
        <pt x="852" y="964" on="1"/>
        <pt x="733" y="0" on="1"/>
        <pt x="639" y="0" on="1"/>
        <pt x="749" y="893" on="1"/>
        <pt x="307" y="893" on="1"/>
        <pt x="199" y="20" on="1"/>
        <pt x="157" y="-210" on="1"/>
        <pt x="153" y="-231" on="0"/>
        <pt x="128" y="-251" on="0"/>
        <pt x="108" y="-251" on="1"/>
        <pt x="74" y="-251" on="1"/>
        <pt x="214" y="891" on="1"/>
        <pt x="88" y="900" on="1"/>
        <pt x="64" y="901" on="0"/>
        <pt x="64" y="922" on="1"/>
        <pt x="68" y="964" on="1"/>
        <pt x="223" y="964" on="1"/>
        <pt x="234" y="1049" on="1"/>
        <pt x="245" y="1141" on="0"/>
        <pt x="313" y="1287" on="0"/>
        <pt x="421" y="1388" on="0"/>
        <pt x="566" y="1442" on="0"/>
        <pt x="654" y="1442" on="1"/>
        <pt x="669" y="1442" on="0"/>
        <pt x="706" y="1439" on="0"/>
        <pt x="742" y="1434" on="0"/>
        <pt x="774" y="1426" on="0"/>
        <pt x="785" y="1421" on="1"/>
        <pt x="776" y="1375" on="1"/>
        <pt x="773" y="1364" on="0"/>
        <pt x="759" y="1364" on="1"/>
        <pt x="746" y="1364" on="0"/>
        <pt x="702" y="1372" on="0"/>
        <pt x="668" y="1372" on="1"/>
        <pt x="522" y="1372" on="0"/>
        <pt x="344" y="1213" on="0"/>
        <pt x="324" y="1047" on="1"/>
      </contour>
    </TTGlyph>
    <TTGlyph name="five" xMin="103" yMin="-16" xMax="1080" yMax="1415">
      <contour>
        <pt x="1074" y="1375" on="1"/>
        <pt x="1071" y="1355" on="0"/>
        <pt x="1044" y="1330" on="0"/>
        <pt x="1015" y="1330" on="1"/>
        <pt x="501" y="1330" on="1"/>
        <pt x="356" y="854" on="1"/>
        <pt x="486" y="885" on="0"/>
        <pt x="593" y="885" on="1"/>
        <pt x="696" y="885" on="0"/>
        <pt x="851" y="831" on="0"/>
        <pt x="954" y="734" on="0"/>
        <pt x="1005" y="600" on="0"/>
        <pt x="1005" y="520" on="1"/>
        <pt x="1005" y="395" on="0"/>
        <pt x="914" y="196" on="0"/>
        <pt x="761" y="58" on="0"/>
        <pt x="562" y="-16" on="0"/>
        <pt x="453" y="-16" on="1"/>
        <pt x="395" y="-16" on="0"/>
        <pt x="291" y="4" on="0"/>
        <pt x="203" y="39" on="0"/>
        <pt x="130" y="84" on="0"/>
        <pt x="103" y="109" on="1"/>
        <pt x="135" y="148" on="1"/>
        <pt x="147" y="162" on="0"/>
        <pt x="164" y="162" on="1"/>
        <pt x="177" y="162" on="0"/>
        <pt x="222" y="132" on="0"/>
        <pt x="294" y="95" on="0"/>
        <pt x="397" y="65" on="0"/>
        <pt x="467" y="65" on="1"/>
        <pt x="558" y="65" on="0"/>
        <pt x="719" y="126" on="0"/>
        <pt x="840" y="240" on="0"/>
        <pt x="910" y="405" on="0"/>
        <pt x="910" y="510" on="1"/>
        <pt x="910" y="576" on="0"/>
        <pt x="870" y="685" on="0"/>
        <pt x="786" y="763" on="0"/>
        <pt x="657" y="807" on="0"/>
        <pt x="569" y="807" on="1"/>
        <pt x="459" y="807" on="0"/>
        <pt x="314" y="770" on="1"/>
        <pt x="258" y="789" on="1"/>
        <pt x="445" y="1415" on="1"/>
        <pt x="1080" y="1415" on="1"/>
      </contour>
    </TTGlyph>
    <TTGlyph name="fl" xMin="64" yMin="-251" xMax="954" yMax="1439">
      <contour>
        <pt x="307" y="894" on="1"/>
        <pt x="199" y="20" on="1"/>
        <pt x="157" y="-210" on="1"/>
        <pt x="153" y="-231" on="0"/>
        <pt x="128" y="-251" on="0"/>
        <pt x="108" y="-251" on="1"/>
        <pt x="74" y="-251" on="1"/>
        <pt x="214" y="891" on="1"/>
        <pt x="88" y="900" on="1"/>
        <pt x="64" y="901" on="0"/>
        <pt x="64" y="922" on="1"/>
        <pt x="68" y="964" on="1"/>
        <pt x="223" y="964" on="1"/>
        <pt x="231" y="1030" on="1"/>
        <pt x="242" y="1118" on="0"/>
        <pt x="308" y="1268" on="0"/>
        <pt x="414" y="1377" on="0"/>
        <pt x="559" y="1439" on="0"/>
        <pt x="648" y="1439" on="1"/>
        <pt x="717" y="1439" on="0"/>
        <pt x="845" y="1426" on="0"/>
        <pt x="902" y="1426" on="1"/>
        <pt x="954" y="1426" on="1"/>
        <pt x="779" y="0" on="1"/>
        <pt x="686" y="0" on="1"/>
        <pt x="851" y="1356" on="1"/>
        <pt x="804" y="1358" on="0"/>
        <pt x="700" y="1369" on="0"/>
        <pt x="652" y="1369" on="1"/>
        <pt x="583" y="1369" on="0"/>
        <pt x="470" y="1322" on="0"/>
        <pt x="385" y="1234" on="0"/>
        <pt x="330" y="1108" on="0"/>
        <pt x="321" y="1030" on="1"/>
        <pt x="313" y="964" on="1"/>
        <pt x="576" y="964" on="1"/>
        <pt x="568" y="894" on="1"/>
      </contour>
    </TTGlyph>
    <TTGlyph name="florin" xMin="14" yMin="-361" xMax="1109" yMax="1432">
      <contour>
        <pt x="671" y="798" on="1"/>
        <pt x="480" y="12" on="1"/>
        <pt x="456" y="-86" on="0"/>
        <pt x="370" y="-226" on="0"/>
        <pt x="251" y="-318" on="0"/>
        <pt x="101" y="-361" on="0"/>
        <pt x="14" y="-361" on="1"/>
        <pt x="20" y="-314" on="1"/>
        <pt x="23" y="-283" on="0"/>
        <pt x="60" y="-283" on="1"/>
        <pt x="111" y="-282" on="0"/>
        <pt x="212" y="-251" on="0"/>
        <pt x="299" y="-181" on="0"/>
        <pt x="368" y="-68" on="0"/>
        <pt x="388" y="15" on="1"/>
        <pt x="579" y="795" on="1"/>
        <pt x="387" y="805" on="1"/>
        <pt x="364" y="807" on="0"/>
        <pt x="364" y="825" on="1"/>
        <pt x="364" y="826" on="0"/>
        <pt x="365" y="838" on="0"/>
        <pt x="369" y="867" on="1"/>
        <pt x="597" y="867" on="1"/>
        <pt x="644" y="1059" on="1"/>
        <pt x="691" y="1251" on="0"/>
        <pt x="927" y="1432" on="0"/>
        <pt x="1109" y="1432" on="1"/>
        <pt x="1102" y="1383" on="1"/>
        <pt x="1098" y="1354" on="0"/>
        <pt x="1064" y="1354" on="1"/>
        <pt x="1011" y="1354" on="0"/>
        <pt x="911" y="1322" on="0"/>
        <pt x="824" y="1252" on="0"/>
        <pt x="755" y="1139" on="0"/>
        <pt x="734" y="1057" on="1"/>
        <pt x="685" y="867" on="1"/>
        <pt x="1043" y="867" on="1"/>
        <pt x="1034" y="798" on="1"/>
      </contour>
    </TTGlyph>
    <TTGlyph name="four" xMin="62" yMin="0" xMax="1118" yMax="1417">
      <contour>
        <pt x="858" y="481" on="1"/>
        <pt x="1118" y="481" on="1"/>
        <pt x="1111" y="431" on="1"/>
        <pt x="1110" y="420" on="0"/>
        <pt x="1096" y="407" on="0"/>
        <pt x="1082" y="407" on="1"/>
        <pt x="849" y="407" on="1"/>
        <pt x="800" y="0" on="1"/>
        <pt x="716" y="0" on="1"/>
        <pt x="766" y="407" on="1"/>
        <pt x="101" y="407" on="1"/>
        <pt x="86" y="407" on="0"/>
        <pt x="67" y="420" on="0"/>
        <pt x="65" y="431" on="1"/>
        <pt x="62" y="476" on="1"/>
        <pt x="889" y="1417" on="1"/>
        <pt x="973" y="1417" on="1"/>
      </contour>
      <contour>
        <pt x="866" y="1227" on="1"/>
        <pt x="869" y="1259" on="0"/>
        <pt x="880" y="1298" on="1"/>
        <pt x="165" y="481" on="1"/>
        <pt x="775" y="481" on="1"/>
      </contour>
    </TTGlyph>
    <TTGlyph name="fraction" xMin="-244" yMin="0" xMax="761" yMax="1415">
      <contour>
        <pt x="-149" y="31" on="1"/>
        <pt x="-161" y="12" on="0"/>
        <pt x="-189" y="0" on="0"/>
        <pt x="-206" y="0" on="1"/>
        <pt x="-244" y="0" on="1"/>
        <pt x="663" y="1380" on="1"/>
        <pt x="685" y="1415" on="0"/>
        <pt x="721" y="1415" on="1"/>
        <pt x="761" y="1415" on="1"/>
      </contour>
    </TTGlyph>
    <TTGlyph name="g" xMin="-59" yMin="-370" xMax="918" yMax="1010">
      <contour>
        <pt x="762" y="736" on="1"/>
        <pt x="761" y="681" on="0"/>
        <pt x="734" y="591" on="0"/>
        <pt x="694" y="516" on="0"/>
        <pt x="647" y="451" on="0"/>
        <pt x="607" y="389" on="0"/>
        <pt x="581" y="325" on="0"/>
        <pt x="581" y="289" on="1"/>
        <pt x="581" y="259" on="0"/>
        <pt x="605" y="208" on="0"/>
        <pt x="640" y="160" on="0"/>
        <pt x="682" y="111" on="0"/>
        <pt x="717" y="57" on="0"/>
        <pt x="741" y="-7" on="0"/>
        <pt x="741" y="-46" on="1"/>
        <pt x="741" y="-109" on="0"/>
        <pt x="677" y="-226" on="0"/>
        <pt x="561" y="-316" on="0"/>
        <pt x="398" y="-370" on="0"/>
        <pt x="298" y="-370" on="1"/>
        <pt x="219" y="-370" on="0"/>
        <pt x="88" y="-338" on="0"/>
        <pt x="-7" y="-277" on="0"/>
        <pt x="-59" y="-189" on="0"/>
        <pt x="-59" y="-133" on="1"/>
        <pt x="-59" y="-61" on="0"/>
        <pt x="16" y="50" on="0"/>
        <pt x="145" y="126" on="0"/>
        <pt x="316" y="166" on="0"/>
        <pt x="414" y="166" on="1"/>
        <pt x="448" y="166" on="0"/>
        <pt x="516" y="161" on="0"/>
        <pt x="551" y="156" on="1"/>
        <pt x="534" y="179" on="0"/>
        <pt x="511" y="231" on="0"/>
        <pt x="511" y="263" on="1"/>
        <pt x="511" y="298" on="0"/>
        <pt x="535" y="370" on="0"/>
        <pt x="569" y="421" on="1"/>
        <pt x="528" y="393" on="0"/>
        <pt x="437" y="363" on="0"/>
        <pt x="383" y="363" on="1"/>
        <pt x="326" y="363" on="0"/>
        <pt x="228" y="399" on="0"/>
        <pt x="157" y="470" on="0"/>
        <pt x="117" y="573" on="0"/>
        <pt x="117" y="641" on="1"/>
        <pt x="117" y="710" on="0"/>
        <pt x="166" y="843" on="0"/>
        <pt x="259" y="947" on="0"/>
        <pt x="395" y="1010" on="0"/>
        <pt x="482" y="1010" on="1"/>
        <pt x="533" y="1010" on="0"/>
        <pt x="623" y="985" on="0"/>
        <pt x="658" y="960" on="1"/>
        <pt x="918" y="960" on="1"/>
        <pt x="914" y="928" on="1"/>
        <pt x="913" y="918" on="0"/>
        <pt x="900" y="903" on="0"/>
        <pt x="886" y="901" on="1"/>
        <pt x="724" y="888" on="1"/>
        <pt x="742" y="857" on="0"/>
        <pt x="762" y="781" on="0"/>
      </contour>
      <contour>
        <pt x="654" y="-52" on="1"/>
        <pt x="654" y="-3" on="0"/>
        <pt x="622" y="67" on="0"/>
        <pt x="599" y="96" on="1"/>
        <pt x="600" y="93" on="1"/>
        <pt x="551" y="101" on="0"/>
        <pt x="463" y="107" on="0"/>
        <pt x="422" y="107" on="1"/>
        <pt x="323" y="107" on="0"/>
        <pt x="177" y="70" on="0"/>
        <pt x="80" y="7" on="0"/>
        <pt x="31" y="-77" on="0"/>
        <pt x="31" y="-123" on="1"/>
        <pt x="31" y="-166" on="0"/>
        <pt x="70" y="-233" on="0"/>
        <pt x="142" y="-278" on="0"/>
        <pt x="244" y="-302" on="0"/>
        <pt x="306" y="-302" on="1"/>
        <pt x="384" y="-302" on="0"/>
        <pt x="512" y="-260" on="0"/>
        <pt x="603" y="-190" on="0"/>
        <pt x="653" y="-100" on="0"/>
      </contour>
      <contour>
        <pt x="405" y="425" on="1"/>
        <pt x="469" y="425" on="0"/>
        <pt x="570" y="479" on="0"/>
        <pt x="640" y="566" on="0"/>
        <pt x="676" y="677" on="0"/>
        <pt x="676" y="733" on="1"/>
        <pt x="676" y="837" on="0"/>
        <pt x="566" y="942" on="0"/>
        <pt x="473" y="942" on="1"/>
        <pt x="409" y="942" on="0"/>
        <pt x="309" y="891" on="0"/>
        <pt x="240" y="807" on="0"/>
        <pt x="204" y="698" on="0"/>
        <pt x="204" y="641" on="1"/>
        <pt x="204" y="535" on="0"/>
        <pt x="312" y="425" on="0"/>
      </contour>
    </TTGlyph>
    <TTGlyph name="germandbls" xMin="59" yMin="-250" xMax="987" yMax="1432">
      <contour>
        <pt x="693" y="1432" on="1"/>
        <pt x="766" y="1432" on="0"/>
        <pt x="876" y="1387" on="0"/>
        <pt x="950" y="1314" on="0"/>
        <pt x="987" y="1222" on="0"/>
        <pt x="987" y="1176" on="1"/>
        <pt x="987" y="1106" on="0"/>
        <pt x="935" y="1006" on="0"/>
        <pt x="858" y="930" on="0"/>
        <pt x="768" y="870" on="0"/>
        <pt x="691" y="812" on="0"/>
        <pt x="639" y="747" on="0"/>
        <pt x="639" y="704" on="1"/>
        <pt x="639" y="663" on="0"/>
        <pt x="685" y="612" on="0"/>
        <pt x="754" y="573" on="0"/>
        <pt x="835" y="535" on="0"/>
        <pt x="904" y="480" on="0"/>
        <pt x="950" y="396" on="0"/>
        <pt x="950" y="330" on="1"/>
        <pt x="950" y="254" on="0"/>
        <pt x="896" y="127" on="0"/>
        <pt x="801" y="35" on="0"/>
        <pt x="670" y="-16" on="0"/>
        <pt x="593" y="-16" on="1"/>
        <pt x="500" y="-16" on="0"/>
        <pt x="374" y="51" on="0"/>
        <pt x="326" y="105" on="1"/>
        <pt x="351" y="138" on="1"/>
        <pt x="363" y="153" on="0"/>
        <pt x="380" y="153" on="1"/>
        <pt x="392" y="153" on="0"/>
        <pt x="423" y="121" on="0"/>
        <pt x="474" y="84" on="0"/>
        <pt x="550" y="52" on="0"/>
        <pt x="608" y="52" on="1"/>
        <pt x="666" y="52" on="0"/>
        <pt x="760" y="92" on="0"/>
        <pt x="826" y="161" on="0"/>
        <pt x="862" y="254" on="0"/>
        <pt x="862" y="307" on="1"/>
        <pt x="862" y="363" on="0"/>
        <pt x="815" y="433" on="0"/>
        <pt x="743" y="481" on="0"/>
        <pt x="661" y="516" on="0"/>
        <pt x="589" y="561" on="0"/>
        <pt x="542" y="627" on="0"/>
        <pt x="542" y="680" on="1"/>
        <pt x="542" y="736" on="0"/>
        <pt x="595" y="818" on="0"/>
        <pt x="674" y="885" on="0"/>
        <pt x="767" y="946" on="0"/>
        <pt x="846" y="1017" on="0"/>
        <pt x="899" y="1107" on="0"/>
        <pt x="899" y="1170" on="1"/>
        <pt x="899" y="1199" on="0"/>
        <pt x="877" y="1267" on="0"/>
        <pt x="825" y="1324" on="0"/>
        <pt x="741" y="1362" on="0"/>
        <pt x="680" y="1362" on="1"/>
        <pt x="615" y="1362" on="0"/>
        <pt x="492" y="1296" on="0"/>
        <pt x="393" y="1178" on="0"/>
        <pt x="324" y="1017" on="0"/>
        <pt x="312" y="923" on="1"/>
        <pt x="200" y="21" on="1"/>
        <pt x="158" y="-209" on="1"/>
        <pt x="154" y="-231" on="0"/>
        <pt x="128" y="-250" on="0"/>
        <pt x="109" y="-250" on="1"/>
        <pt x="74" y="-250" on="1"/>
        <pt x="214" y="892" on="1"/>
        <pt x="83" y="901" on="1"/>
        <pt x="59" y="902" on="0"/>
        <pt x="59" y="923" on="1"/>
        <pt x="63" y="963" on="1"/>
        <pt x="224" y="963" on="1"/>
        <pt x="242" y="1058" on="0"/>
        <pt x="329" y="1229" on="0"/>
        <pt x="453" y="1357" on="0"/>
        <pt x="607" y="1432" on="0"/>
      </contour>
    </TTGlyph>
    <TTGlyph name="grave" xMin="127" yMin="1161" xMax="382" yMax="1431">
      <contour>
        <pt x="216" y="1431" on="1"/>
        <pt x="239" y="1431" on="0"/>
        <pt x="259" y="1416" on="0"/>
        <pt x="267" y="1399" on="1"/>
        <pt x="382" y="1161" on="1"/>
        <pt x="329" y="1161" on="1"/>
        <pt x="308" y="1161" on="0"/>
        <pt x="296" y="1177" on="1"/>
        <pt x="127" y="1431" on="1"/>
      </contour>
    </TTGlyph>
    <TTGlyph name="grave.case" xMin="123" yMin="1542" xMax="469" yMax="1770">
      <contour>
        <pt x="231" y="1770" on="1"/>
        <pt x="254" y="1770" on="0"/>
        <pt x="275" y="1761" on="0"/>
        <pt x="286" y="1748" on="1"/>
        <pt x="469" y="1542" on="1"/>
        <pt x="396" y="1542" on="1"/>
        <pt x="384" y="1542" on="0"/>
        <pt x="370" y="1549" on="0"/>
        <pt x="361" y="1557" on="1"/>
        <pt x="123" y="1770" on="1"/>
      </contour>
    </TTGlyph>
    <TTGlyph name="greater" xMin="140" yMin="265" xMax="942" yMax="1077">
      <contour>
        <pt x="937" y="650" on="1"/>
        <pt x="140" y="265" on="1"/>
        <pt x="148" y="330" on="1"/>
        <pt x="151" y="351" on="0"/>
        <pt x="179" y="365" on="1"/>
        <pt x="767" y="645" on="1"/>
        <pt x="784" y="653" on="0"/>
        <pt x="821" y="666" on="0"/>
        <pt x="841" y="671" on="1"/>
        <pt x="801" y="681" on="0"/>
        <pt x="773" y="696" on="1"/>
        <pt x="254" y="977" on="1"/>
        <pt x="232" y="988" on="0"/>
        <pt x="232" y="1007" on="1"/>
        <pt x="232" y="1008" on="0"/>
        <pt x="232" y="1011" on="0"/>
        <pt x="234" y="1024" on="0"/>
        <pt x="237" y="1052" on="0"/>
        <pt x="240" y="1077" on="1"/>
        <pt x="942" y="691" on="1"/>
      </contour>
    </TTGlyph>
    <TTGlyph name="greaterequal" xMin="117" yMin="80" xMax="947" yMax="1105">
      <contour>
        <pt x="867" y="80" on="1"/>
        <pt x="117" y="80" on="1"/>
        <pt x="126" y="153" on="1"/>
        <pt x="876" y="153" on="1"/>
      </contour>
      <contour>
        <pt x="941" y="689" on="1"/>
        <pt x="146" y="315" on="1"/>
        <pt x="153" y="377" on="1"/>
        <pt x="155" y="388" on="0"/>
        <pt x="169" y="406" on="0"/>
        <pt x="188" y="414" on="1"/>
        <pt x="771" y="685" on="1"/>
        <pt x="809" y="700" on="0"/>
        <pt x="850" y="709" on="1"/>
        <pt x="830" y="714" on="0"/>
        <pt x="794" y="726" on="0"/>
        <pt x="777" y="734" on="1"/>
        <pt x="261" y="1006" on="1"/>
        <pt x="235" y="1020" on="0"/>
        <pt x="235" y="1037" on="1"/>
        <pt x="235" y="1038" on="0"/>
        <pt x="235" y="1041" on="0"/>
        <pt x="237" y="1054" on="0"/>
        <pt x="240" y="1081" on="0"/>
        <pt x="243" y="1105" on="1"/>
        <pt x="947" y="729" on="1"/>
      </contour>
    </TTGlyph>
    <TTGlyph name="guillemotleft" xMin="146" yMin="134" xMax="695" yMax="903">
      <contour>
        <pt x="146" y="513" on="1"/>
        <pt x="148" y="525" on="1"/>
        <pt x="417" y="903" on="1"/>
        <pt x="445" y="889" on="1"/>
        <pt x="458" y="881" on="0"/>
        <pt x="458" y="868" on="1"/>
        <pt x="458" y="856" on="0"/>
        <pt x="447" y="842" on="1"/>
        <pt x="245" y="547" on="1"/>
        <pt x="228" y="526" on="0"/>
        <pt x="219" y="519" on="1"/>
        <pt x="228" y="511" on="0"/>
        <pt x="237" y="491" on="1"/>
        <pt x="368" y="196" on="1"/>
        <pt x="373" y="184" on="0"/>
        <pt x="373" y="177" on="1"/>
        <pt x="373" y="158" on="0"/>
        <pt x="354" y="149" on="1"/>
        <pt x="322" y="134" on="1"/>
      </contour>
      <contour>
        <pt x="383" y="513" on="1"/>
        <pt x="385" y="525" on="1"/>
        <pt x="654" y="903" on="1"/>
        <pt x="682" y="889" on="1"/>
        <pt x="695" y="881" on="0"/>
        <pt x="695" y="868" on="1"/>
        <pt x="695" y="856" on="0"/>
        <pt x="684" y="842" on="1"/>
        <pt x="482" y="547" on="1"/>
        <pt x="465" y="526" on="0"/>
        <pt x="456" y="519" on="1"/>
        <pt x="465" y="511" on="0"/>
        <pt x="474" y="491" on="1"/>
        <pt x="605" y="196" on="1"/>
        <pt x="610" y="184" on="0"/>
        <pt x="610" y="177" on="1"/>
        <pt x="610" y="158" on="0"/>
        <pt x="591" y="149" on="1"/>
        <pt x="559" y="134" on="1"/>
      </contour>
    </TTGlyph>
    <TTGlyph name="guillemotright" xMin="127" yMin="134" xMax="674" yMax="903">
      <contour>
        <pt x="168" y="134" on="1"/>
        <pt x="141" y="149" on="1"/>
        <pt x="127" y="157" on="0"/>
        <pt x="127" y="170" on="1"/>
        <pt x="127" y="182" on="0"/>
        <pt x="136" y="196" on="1"/>
        <pt x="341" y="491" on="1"/>
        <pt x="353" y="510" on="0"/>
        <pt x="364" y="519" on="1"/>
        <pt x="356" y="525" on="0"/>
        <pt x="347" y="547" on="1"/>
        <pt x="215" y="842" on="1"/>
        <pt x="211" y="850" on="0"/>
        <pt x="211" y="858" on="1"/>
        <pt x="211" y="879" on="0"/>
        <pt x="231" y="889" on="1"/>
        <pt x="262" y="903" on="1"/>
        <pt x="437" y="525" on="1"/>
        <pt x="436" y="513" on="1"/>
      </contour>
      <contour>
        <pt x="405" y="134" on="1"/>
        <pt x="378" y="149" on="1"/>
        <pt x="364" y="157" on="0"/>
        <pt x="364" y="170" on="1"/>
        <pt x="364" y="182" on="0"/>
        <pt x="373" y="196" on="1"/>
        <pt x="578" y="491" on="1"/>
        <pt x="590" y="510" on="0"/>
        <pt x="601" y="519" on="1"/>
        <pt x="593" y="525" on="0"/>
        <pt x="584" y="547" on="1"/>
        <pt x="452" y="842" on="1"/>
        <pt x="448" y="850" on="0"/>
        <pt x="448" y="858" on="1"/>
        <pt x="448" y="879" on="0"/>
        <pt x="468" y="889" on="1"/>
        <pt x="499" y="903" on="1"/>
        <pt x="674" y="525" on="1"/>
        <pt x="673" y="513" on="1"/>
      </contour>
    </TTGlyph>
    <TTGlyph name="guilsinglleft" xMin="146" yMin="134" xMax="458" yMax="903">
      <contour>
        <pt x="146" y="513" on="1"/>
        <pt x="148" y="525" on="1"/>
        <pt x="417" y="903" on="1"/>
        <pt x="445" y="889" on="1"/>
        <pt x="458" y="881" on="0"/>
        <pt x="458" y="868" on="1"/>
        <pt x="458" y="856" on="0"/>
        <pt x="447" y="842" on="1"/>
        <pt x="245" y="547" on="1"/>
        <pt x="228" y="526" on="0"/>
        <pt x="219" y="519" on="1"/>
        <pt x="228" y="511" on="0"/>
        <pt x="237" y="491" on="1"/>
        <pt x="368" y="196" on="1"/>
        <pt x="373" y="184" on="0"/>
        <pt x="373" y="177" on="1"/>
        <pt x="373" y="158" on="0"/>
        <pt x="354" y="149" on="1"/>
        <pt x="322" y="134" on="1"/>
      </contour>
    </TTGlyph>
    <TTGlyph name="guilsinglright" xMin="127" yMin="134" xMax="437" yMax="903">
      <contour>
        <pt x="168" y="134" on="1"/>
        <pt x="141" y="149" on="1"/>
        <pt x="127" y="157" on="0"/>
        <pt x="127" y="170" on="1"/>
        <pt x="127" y="182" on="0"/>
        <pt x="136" y="196" on="1"/>
        <pt x="341" y="491" on="1"/>
        <pt x="353" y="510" on="0"/>
        <pt x="364" y="519" on="1"/>
        <pt x="356" y="525" on="0"/>
        <pt x="347" y="547" on="1"/>
        <pt x="215" y="842" on="1"/>
        <pt x="211" y="850" on="0"/>
        <pt x="211" y="858" on="1"/>
        <pt x="211" y="879" on="0"/>
        <pt x="231" y="889" on="1"/>
        <pt x="262" y="903" on="1"/>
        <pt x="437" y="525" on="1"/>
        <pt x="436" y="513" on="1"/>
      </contour>
    </TTGlyph>
    <TTGlyph name="h" xMin="102" yMin="0" xMax="916" yMax="1455">
      <contour>
        <pt x="102" y="0" on="1"/>
        <pt x="278" y="1455" on="1"/>
        <pt x="372" y="1455" on="1"/>
        <pt x="280" y="695" on="1"/>
        <pt x="320" y="770" on="0"/>
        <pt x="417" y="887" on="0"/>
        <pt x="524" y="968" on="0"/>
        <pt x="636" y="1010" on="0"/>
        <pt x="693" y="1010" on="1"/>
        <pt x="805" y="1010" on="0"/>
        <pt x="916" y="866" on="0"/>
        <pt x="916" y="731" on="1"/>
        <pt x="916" y="723" on="0"/>
        <pt x="915" y="702" on="0"/>
        <pt x="910" y="652" on="0"/>
        <pt x="900" y="559" on="0"/>
        <pt x="882" y="402" on="0"/>
        <pt x="855" y="167" on="0"/>
        <pt x="835" y="0" on="1"/>
        <pt x="741" y="0" on="1"/>
        <pt x="816" y="636" on="1"/>
        <pt x="822" y="682" on="0"/>
        <pt x="822" y="723" on="1"/>
        <pt x="822" y="825" on="0"/>
        <pt x="745" y="931" on="0"/>
        <pt x="662" y="931" on="1"/>
        <pt x="608" y="931" on="0"/>
        <pt x="496" y="876" on="0"/>
        <pt x="391" y="773" on="0"/>
        <pt x="297" y="627" on="0"/>
        <pt x="261" y="537" on="1"/>
        <pt x="196" y="0" on="1"/>
      </contour>
    </TTGlyph>
    <TTGlyph name="hungarumlaut" xMin="195" yMin="1161" xMax="739" yMax="1431">
      <contour>
        <pt x="487" y="1431" on="1"/>
        <pt x="274" y="1177" on="1"/>
        <pt x="266" y="1166" on="0"/>
        <pt x="247" y="1161" on="0"/>
        <pt x="236" y="1161" on="1"/>
        <pt x="195" y="1161" on="1"/>
        <pt x="364" y="1399" on="1"/>
        <pt x="376" y="1416" on="0"/>
        <pt x="399" y="1431" on="0"/>
        <pt x="422" y="1431" on="1"/>
      </contour>
      <contour>
        <pt x="739" y="1431" on="1"/>
        <pt x="495" y="1177" on="1"/>
        <pt x="479" y="1161" on="0"/>
        <pt x="457" y="1161" on="1"/>
        <pt x="412" y="1161" on="1"/>
        <pt x="609" y="1399" on="1"/>
        <pt x="622" y="1415" on="0"/>
        <pt x="645" y="1431" on="0"/>
        <pt x="668" y="1431" on="1"/>
      </contour>
    </TTGlyph>
    <TTGlyph name="hungarumlaut.case" xMin="226" yMin="1542" xMax="798" yMax="1765">
      <contour>
        <pt x="515" y="1765" on="1"/>
        <pt x="308" y="1558" on="1"/>
        <pt x="300" y="1550" on="0"/>
        <pt x="283" y="1542" on="0"/>
        <pt x="271" y="1542" on="1"/>
        <pt x="226" y="1542" on="1"/>
        <pt x="389" y="1733" on="1"/>
        <pt x="403" y="1749" on="0"/>
        <pt x="429" y="1765" on="0"/>
        <pt x="452" y="1765" on="1"/>
      </contour>
      <contour>
        <pt x="798" y="1765" on="1"/>
        <pt x="559" y="1558" on="1"/>
        <pt x="542" y="1542" on="0"/>
        <pt x="520" y="1542" on="1"/>
        <pt x="469" y="1542" on="1"/>
        <pt x="659" y="1733" on="1"/>
        <pt x="675" y="1749" on="0"/>
        <pt x="702" y="1765" on="0"/>
        <pt x="725" y="1765" on="1"/>
      </contour>
    </TTGlyph>
    <TTGlyph name="hyphen" xMin="99" yMin="554" xMax="538" yMax="632">
      <contour>
        <pt x="110" y="632" on="1"/>
        <pt x="538" y="632" on="1"/>
        <pt x="529" y="554" on="1"/>
        <pt x="99" y="554" on="1"/>
      </contour>
    </TTGlyph>
    <TTGlyph name="i" xMin="120" yMin="0" xMax="407" yMax="1427">
      <contour>
        <pt x="334" y="995" on="1"/>
        <pt x="213" y="0" on="1"/>
        <pt x="120" y="0" on="1"/>
        <pt x="241" y="995" on="1"/>
      </contour>
      <contour>
        <pt x="407" y="1338" on="1"/>
        <pt x="407" y="1320" on="0"/>
        <pt x="393" y="1289" on="0"/>
        <pt x="369" y="1265" on="0"/>
        <pt x="338" y="1251" on="0"/>
        <pt x="322" y="1251" on="1"/>
        <pt x="305" y="1251" on="0"/>
        <pt x="275" y="1265" on="0"/>
        <pt x="252" y="1289" on="0"/>
        <pt x="238" y="1320" on="0"/>
        <pt x="238" y="1338" on="1"/>
        <pt x="238" y="1356" on="0"/>
        <pt x="252" y="1388" on="0"/>
        <pt x="275" y="1413" on="0"/>
        <pt x="305" y="1427" on="0"/>
        <pt x="322" y="1427" on="1"/>
        <pt x="338" y="1427" on="0"/>
        <pt x="369" y="1413" on="0"/>
        <pt x="393" y="1389" on="0"/>
        <pt x="407" y="1356" on="0"/>
      </contour>
    </TTGlyph>
    <TTGlyph name="iacute" xMin="120" yMin="0" xMax="551" yMax="1431">
      <component glyphName="dotlessi" x="0" y="0" flags="0x204"/>
      <component glyphName="acute" x="-45" y="0" flags="0x4"/>
    </TTGlyph>
    <TTGlyph name="icircumflex" xMin="66" yMin="0" xMax="549" yMax="1415">
      <component glyphName="dotlessi" x="0" y="0" flags="0x204"/>
      <component glyphName="circumflex" x="-45" y="0" flags="0x4"/>
    </TTGlyph>
    <TTGlyph name="idieresis" xMin="73" yMin="0" xMax="580" yMax="1389">
      <component glyphName="dotlessi" x="0" y="0" flags="0x204"/>
      <component glyphName="dieresis" x="-45" y="0" flags="0x4"/>
    </TTGlyph>
    <TTGlyph name="igrave" xMin="97" yMin="0" xMax="352" yMax="1431">
      <component glyphName="dotlessi" x="0" y="0" flags="0x204"/>
      <component glyphName="grave" x="-30" y="0" flags="0x4"/>
    </TTGlyph>
    <TTGlyph name="infinity" xMin="76" yMin="282" xMax="1206" yMax="899">
      <contour>
        <pt x="897" y="282" on="1"/>
        <pt x="846" y="282" on="0"/>
        <pt x="767" y="321" on="0"/>
        <pt x="704" y="387" on="0"/>
        <pt x="653" y="473" on="0"/>
        <pt x="631" y="519" on="1"/>
        <pt x="597" y="473" on="0"/>
        <pt x="525" y="387" on="0"/>
        <pt x="445" y="321" on="0"/>
        <pt x="357" y="282" on="0"/>
        <pt x="306" y="282" on="1"/>
        <pt x="258" y="282" on="0"/>
        <pt x="174" y="318" on="0"/>
        <pt x="112" y="385" on="0"/>
        <pt x="76" y="481" on="0"/>
        <pt x="76" y="541" on="1"/>
        <pt x="76" y="619" on="0"/>
        <pt x="127" y="751" on="0"/>
        <pt x="212" y="846" on="0"/>
        <pt x="322" y="899" on="0"/>
        <pt x="382" y="899" on="1"/>
        <pt x="433" y="899" on="0"/>
        <pt x="512" y="860" on="0"/>
        <pt x="575" y="794" on="0"/>
        <pt x="626" y="708" on="0"/>
        <pt x="649" y="662" on="1"/>
        <pt x="683" y="708" on="0"/>
        <pt x="754" y="794" on="0"/>
        <pt x="834" y="860" on="0"/>
        <pt x="922" y="899" on="0"/>
        <pt x="973" y="899" on="1"/>
        <pt x="1022" y="899" on="0"/>
        <pt x="1107" y="863" on="0"/>
        <pt x="1170" y="796" on="0"/>
        <pt x="1206" y="700" on="0"/>
        <pt x="1206" y="640" on="1"/>
        <pt x="1206" y="564" on="0"/>
        <pt x="1156" y="433" on="0"/>
        <pt x="1071" y="337" on="0"/>
        <pt x="959" y="282" on="0"/>
      </contour>
      <contour>
        <pt x="319" y="360" on="1"/>
        <pt x="359" y="360" on="0"/>
        <pt x="432" y="398" on="0"/>
        <pt x="500" y="461" on="0"/>
        <pt x="565" y="545" on="0"/>
        <pt x="597" y="590" on="1"/>
        <pt x="576" y="635" on="0"/>
        <pt x="531" y="719" on="0"/>
        <pt x="479" y="783" on="0"/>
        <pt x="415" y="821" on="0"/>
        <pt x="375" y="821" on="1"/>
        <pt x="330" y="821" on="0"/>
        <pt x="250" y="782" on="0"/>
        <pt x="189" y="711" on="0"/>
        <pt x="153" y="610" on="0"/>
        <pt x="153" y="549" on="1"/>
        <pt x="153" y="503" on="0"/>
        <pt x="178" y="433" on="0"/>
        <pt x="223" y="385" on="0"/>
        <pt x="283" y="360" on="0"/>
      </contour>
      <contour>
        <pt x="904" y="360" on="1"/>
        <pt x="952" y="360" on="0"/>
        <pt x="1033" y="402" on="0"/>
        <pt x="1092" y="475" on="0"/>
        <pt x="1126" y="575" on="0"/>
        <pt x="1126" y="633" on="1"/>
        <pt x="1126" y="678" on="0"/>
        <pt x="1101" y="748" on="0"/>
        <pt x="1056" y="796" on="0"/>
        <pt x="996" y="821" on="0"/>
        <pt x="960" y="821" on="1"/>
        <pt x="920" y="821" on="0"/>
        <pt x="847" y="783" on="0"/>
        <pt x="780" y="719" on="0"/>
        <pt x="715" y="636" on="0"/>
        <pt x="682" y="591" on="1"/>
        <pt x="704" y="546" on="0"/>
        <pt x="748" y="462" on="0"/>
        <pt x="801" y="398" on="0"/>
        <pt x="864" y="360" on="0"/>
      </contour>
    </TTGlyph>
    <TTGlyph name="integral" xMin="-155" yMin="-359" xMax="949" yMax="1431">
      <contour>
        <pt x="491" y="1086" on="1"/>
        <pt x="512" y="1173" on="0"/>
        <pt x="581" y="1303" on="0"/>
        <pt x="671" y="1388" on="0"/>
        <pt x="779" y="1431" on="0"/>
        <pt x="838" y="1431" on="1"/>
        <pt x="874" y="1431" on="0"/>
        <pt x="926" y="1420" on="0"/>
        <pt x="949" y="1407" on="1"/>
        <pt x="939" y="1363" on="1"/>
        <pt x="935" y="1353" on="0"/>
        <pt x="923" y="1348" on="0"/>
        <pt x="910" y="1348" on="1"/>
        <pt x="901" y="1348" on="0"/>
        <pt x="874" y="1349" on="0"/>
        <pt x="854" y="1349" on="1"/>
        <pt x="758" y="1349" on="0"/>
        <pt x="616" y="1218" on="0"/>
        <pt x="582" y="1075" on="1"/>
        <pt x="330" y="13" on="1"/>
        <pt x="306" y="-87" on="0"/>
        <pt x="231" y="-228" on="0"/>
        <pt x="134" y="-318" on="0"/>
        <pt x="19" y="-359" on="0"/>
        <pt x="-45" y="-359" on="1"/>
        <pt x="-76" y="-359" on="0"/>
        <pt x="-135" y="-350" on="0"/>
        <pt x="-155" y="-336" on="1"/>
        <pt x="-143" y="-297" on="1"/>
        <pt x="-139" y="-289" on="0"/>
        <pt x="-131" y="-283" on="0"/>
        <pt x="-123" y="-283" on="1"/>
        <pt x="-113" y="-283" on="0"/>
        <pt x="-81" y="-287" on="0"/>
        <pt x="-55" y="-287" on="1"/>
        <pt x="-1" y="-287" on="0"/>
        <pt x="90" y="-255" on="0"/>
        <pt x="164" y="-184" on="0"/>
        <pt x="219" y="-70" on="0"/>
        <pt x="239" y="11" on="1"/>
      </contour>
    </TTGlyph>
    <TTGlyph name="j" xMin="-147" yMin="-369" xMax="405" yMax="1427">
      <contour>
        <pt x="330" y="995" on="1"/>
        <pt x="192" y="-127" on="1"/>
        <pt x="186" y="-179" on="0"/>
        <pt x="146" y="-267" on="0"/>
        <pt x="83" y="-332" on="0"/>
        <pt x="-4" y="-369" on="0"/>
        <pt x="-57" y="-369" on="1"/>
        <pt x="-86" y="-369" on="0"/>
        <pt x="-127" y="-359" on="0"/>
        <pt x="-147" y="-348" on="1"/>
        <pt x="-142" y="-326" on="1"/>
        <pt x="-137" y="-304" on="0"/>
        <pt x="-130" y="-288" on="0"/>
        <pt x="-122" y="-288" on="1"/>
        <pt x="-114" y="-288" on="0"/>
        <pt x="-88" y="-296" on="0"/>
        <pt x="-66" y="-296" on="1"/>
        <pt x="8" y="-296" on="0"/>
        <pt x="90" y="-208" on="0"/>
        <pt x="100" y="-127" on="1"/>
        <pt x="238" y="995" on="1"/>
      </contour>
      <contour>
        <pt x="405" y="1338" on="1"/>
        <pt x="405" y="1320" on="0"/>
        <pt x="390" y="1289" on="0"/>
        <pt x="366" y="1265" on="0"/>
        <pt x="335" y="1251" on="0"/>
        <pt x="319" y="1251" on="1"/>
        <pt x="302" y="1251" on="0"/>
        <pt x="272" y="1265" on="0"/>
        <pt x="250" y="1289" on="0"/>
        <pt x="236" y="1320" on="0"/>
        <pt x="236" y="1338" on="1"/>
        <pt x="236" y="1356" on="0"/>
        <pt x="250" y="1388" on="0"/>
        <pt x="273" y="1413" on="0"/>
        <pt x="303" y="1427" on="0"/>
        <pt x="320" y="1427" on="1"/>
        <pt x="336" y="1427" on="0"/>
        <pt x="367" y="1413" on="0"/>
        <pt x="391" y="1389" on="0"/>
        <pt x="405" y="1356" on="0"/>
      </contour>
    </TTGlyph>
    <TTGlyph name="k" xMin="99" yMin="0" xMax="898" yMax="1455">
      <contour>
        <pt x="370" y="1455" on="1"/>
        <pt x="261" y="568" on="1"/>
        <pt x="298" y="568" on="1"/>
        <pt x="316" y="568" on="0"/>
        <pt x="338" y="577" on="0"/>
        <pt x="353" y="591" on="1"/>
        <pt x="765" y="970" on="1"/>
        <pt x="777" y="981" on="0"/>
        <pt x="799" y="995" on="0"/>
        <pt x="816" y="995" on="1"/>
        <pt x="898" y="995" on="1"/>
        <pt x="443" y="578" on="1"/>
        <pt x="432" y="568" on="0"/>
        <pt x="413" y="551" on="0"/>
        <pt x="402" y="545" on="1"/>
        <pt x="416" y="537" on="0"/>
        <pt x="434" y="515" on="0"/>
        <pt x="443" y="502" on="1"/>
        <pt x="807" y="0" on="1"/>
        <pt x="727" y="0" on="1"/>
        <pt x="713" y="0" on="0"/>
        <pt x="695" y="10" on="0"/>
        <pt x="686" y="23" on="1"/>
        <pt x="356" y="471" on="1"/>
        <pt x="342" y="489" on="0"/>
        <pt x="316" y="502" on="0"/>
        <pt x="289" y="502" on="1"/>
        <pt x="253" y="502" on="1"/>
        <pt x="192" y="0" on="1"/>
        <pt x="99" y="0" on="1"/>
        <pt x="277" y="1455" on="1"/>
      </contour>
    </TTGlyph>
    <TTGlyph name="l" xMin="117" yMin="0" xMax="386" yMax="1455">
      <contour>
        <pt x="117" y="0" on="1"/>
        <pt x="293" y="1455" on="1"/>
        <pt x="386" y="1455" on="1"/>
        <pt x="209" y="0" on="1"/>
      </contour>
    </TTGlyph>
    <TTGlyph name="less" xMin="173" yMin="265" xMax="975" yMax="1077">
      <contour>
        <pt x="178" y="692" on="1"/>
        <pt x="975" y="1077" on="1"/>
        <pt x="967" y="1012" on="1"/>
        <pt x="964" y="991" on="0"/>
        <pt x="936" y="977" on="1"/>
        <pt x="348" y="697" on="1"/>
        <pt x="331" y="689" on="0"/>
        <pt x="294" y="676" on="0"/>
        <pt x="274" y="671" on="1"/>
        <pt x="314" y="661" on="0"/>
        <pt x="342" y="646" on="1"/>
        <pt x="861" y="365" on="1"/>
        <pt x="883" y="354" on="0"/>
        <pt x="883" y="335" on="1"/>
        <pt x="883" y="334" on="0"/>
        <pt x="883" y="331" on="0"/>
        <pt x="881" y="318" on="0"/>
        <pt x="878" y="290" on="0"/>
        <pt x="875" y="265" on="1"/>
        <pt x="173" y="651" on="1"/>
      </contour>
    </TTGlyph>
    <TTGlyph name="lessequal" xMin="103" yMin="80" xMax="979" yMax="1103">
      <contour>
        <pt x="184" y="729" on="1"/>
        <pt x="979" y="1103" on="1"/>
        <pt x="972" y="1041" on="1"/>
        <pt x="970" y="1030" on="0"/>
        <pt x="956" y="1012" on="0"/>
        <pt x="937" y="1004" on="1"/>
        <pt x="354" y="733" on="1"/>
        <pt x="316" y="718" on="0"/>
        <pt x="275" y="709" on="1"/>
        <pt x="295" y="704" on="0"/>
        <pt x="331" y="692" on="0"/>
        <pt x="348" y="684" on="1"/>
        <pt x="864" y="412" on="1"/>
        <pt x="890" y="398" on="0"/>
        <pt x="890" y="381" on="1"/>
        <pt x="890" y="380" on="0"/>
        <pt x="890" y="377" on="0"/>
        <pt x="888" y="364" on="0"/>
        <pt x="885" y="337" on="0"/>
        <pt x="882" y="313" on="1"/>
        <pt x="178" y="689" on="1"/>
      </contour>
      <contour>
        <pt x="113" y="153" on="1"/>
        <pt x="863" y="153" on="1"/>
        <pt x="853" y="80" on="1"/>
        <pt x="103" y="80" on="1"/>
      </contour>
    </TTGlyph>
    <TTGlyph name="logicalnot" xMin="184" yMin="340" xMax="1020" yMax="706">
      <contour>
        <pt x="192" y="706" on="1"/>
        <pt x="1020" y="706" on="1"/>
        <pt x="974" y="340" on="1"/>
        <pt x="895" y="340" on="1"/>
        <pt x="931" y="635" on="1"/>
        <pt x="184" y="635" on="1"/>
      </contour>
    </TTGlyph>
    <TTGlyph name="lozenge" xMin="157" yMin="-154" xMax="1027" yMax="1510">
      <contour>
        <pt x="157" y="678" on="1"/>
        <pt x="559" y="1510" on="1"/>
        <pt x="625" y="1510" on="1"/>
        <pt x="1027" y="678" on="1"/>
        <pt x="625" y="-154" on="1"/>
        <pt x="559" y="-154" on="1"/>
      </contour>
      <contour>
        <pt x="240" y="678" on="1"/>
        <pt x="572" y="-7" on="1"/>
        <pt x="580" y="-22" on="0"/>
        <pt x="589" y="-51" on="0"/>
        <pt x="592" y="-65" on="1"/>
        <pt x="596" y="-51" on="0"/>
        <pt x="605" y="-23" on="0"/>
        <pt x="613" y="-7" on="1"/>
        <pt x="946" y="678" on="1"/>
        <pt x="613" y="1363" on="1"/>
        <pt x="605" y="1379" on="0"/>
        <pt x="596" y="1407" on="0"/>
        <pt x="592" y="1421" on="1"/>
        <pt x="588" y="1407" on="0"/>
        <pt x="579" y="1379" on="0"/>
        <pt x="572" y="1363" on="1"/>
      </contour>
    </TTGlyph>
    <TTGlyph name="lslash" xMin="83" yMin="0" xMax="568" yMax="1455">
      <contour>
        <pt x="83" y="712" on="1"/>
        <pt x="83" y="723" on="0"/>
        <pt x="90" y="736" on="0"/>
        <pt x="101" y="741" on="1"/>
        <pt x="279" y="825" on="1"/>
        <pt x="355" y="1455" on="1"/>
        <pt x="448" y="1455" on="1"/>
        <pt x="376" y="864" on="1"/>
        <pt x="568" y="951" on="1"/>
        <pt x="568" y="901" on="1"/>
        <pt x="568" y="890" on="0"/>
        <pt x="561" y="875" on="0"/>
        <pt x="549" y="870" on="1"/>
        <pt x="366" y="784" on="1"/>
        <pt x="271" y="0" on="1"/>
        <pt x="179" y="0" on="1"/>
        <pt x="269" y="746" on="1"/>
        <pt x="83" y="660" on="1"/>
      </contour>
    </TTGlyph>
    <TTGlyph name="m" xMin="94" yMin="0" xMax="1438" yMax="1010">
      <contour>
        <pt x="94" y="0" on="1"/>
        <pt x="214" y="998" on="1"/>
        <pt x="257" y="998" on="1"/>
        <pt x="292" y="998" on="0"/>
        <pt x="292" y="962" on="1"/>
        <pt x="264" y="684" on="1"/>
        <pt x="342" y="839" on="0"/>
        <pt x="546" y="1010" on="0"/>
        <pt x="659" y="1010" on="1"/>
        <pt x="759" y="1010" on="0"/>
        <pt x="844" y="884" on="0"/>
        <pt x="844" y="766" on="1"/>
        <pt x="844" y="732" on="0"/>
        <pt x="841" y="693" on="1"/>
        <pt x="880" y="773" on="0"/>
        <pt x="973" y="892" on="0"/>
        <pt x="1076" y="971" on="0"/>
        <pt x="1184" y="1010" on="0"/>
        <pt x="1237" y="1010" on="1"/>
        <pt x="1344" y="1010" on="0"/>
        <pt x="1438" y="875" on="0"/>
        <pt x="1438" y="750" on="1"/>
        <pt x="1438" y="740" on="0"/>
        <pt x="1437" y="715" on="0"/>
        <pt x="1432" y="661" on="0"/>
        <pt x="1422" y="566" on="0"/>
        <pt x="1404" y="406" on="0"/>
        <pt x="1376" y="169" on="0"/>
        <pt x="1356" y="0" on="1"/>
        <pt x="1263" y="0" on="1"/>
        <pt x="1338" y="636" on="1"/>
        <pt x="1342" y="667" on="0"/>
        <pt x="1346" y="722" on="0"/>
        <pt x="1346" y="747" on="1"/>
        <pt x="1346" y="837" on="0"/>
        <pt x="1284" y="930" on="0"/>
        <pt x="1207" y="930" on="1"/>
        <pt x="1158" y="930" on="0"/>
        <pt x="1057" y="885" on="0"/>
        <pt x="960" y="795" on="0"/>
        <pt x="873" y="659" on="0"/>
        <pt x="838" y="567" on="1"/>
        <pt x="771" y="0" on="1"/>
        <pt x="678" y="0" on="1"/>
        <pt x="753" y="636" on="1"/>
        <pt x="762" y="705" on="0"/>
        <pt x="762" y="759" on="1"/>
        <pt x="762" y="843" on="0"/>
        <pt x="704" y="930" on="0"/>
        <pt x="630" y="930" on="1"/>
        <pt x="516" y="930" on="0"/>
        <pt x="323" y="722" on="0"/>
        <pt x="250" y="532" on="1"/>
        <pt x="187" y="0" on="1"/>
      </contour>
    </TTGlyph>
    <TTGlyph name="macron" xMin="114" yMin="1252" xMax="625" yMax="1316">
      <contour>
        <pt x="121" y="1316" on="1"/>
        <pt x="625" y="1316" on="1"/>
        <pt x="617" y="1252" on="1"/>
        <pt x="114" y="1252" on="1"/>
      </contour>
    </TTGlyph>
    <TTGlyph name="macron.case" xMin="140" yMin="1590" xMax="674" yMax="1648">
      <contour>
        <pt x="147" y="1648" on="1"/>
        <pt x="674" y="1648" on="1"/>
        <pt x="665" y="1590" on="1"/>
        <pt x="140" y="1590" on="1"/>
      </contour>
    </TTGlyph>
    <TTGlyph name="minus" xMin="184" yMin="635" xMax="1020" yMax="706">
      <contour>
        <pt x="192" y="706" on="1"/>
        <pt x="1020" y="706" on="1"/>
        <pt x="1011" y="635" on="1"/>
        <pt x="184" y="635" on="1"/>
      </contour>
    </TTGlyph>
</ttFont>
